<?xml version="1.0" encoding="utf-8"?>
<svg viewBox="29.6 215.591 158.799 191.697" width="158.799px" height="191.697px" style="max-height: 500px" xmlns="http://www.w3.org/2000/svg">
  <path style="fill: rgb(255, 255, 255);" d="M 33.415 346.972 C 34.097 346.278 34.775 344.897 35.446 342.854 C 35.449 343.615 35.45 344.407 35.449 345.264 C 34.776 346.851 34.095 347.421 33.415 346.972 Z M 35.258 378.318 L 35.06 378.752 C 34.891 378.49 34.723 378.204 34.553 377.895 C 34.703 377.33 34.854 376.808 35.004 376.277 C 35.135 376.072 35.266 375.867 35.396 375.591 C 35.355 376.71 35.309 377.625 35.258 378.318 Z M 33.327 325.886 C 33.822 324.627 34.321 323.828 34.82 323.484 L 34.865 323.484 C 34.894 324.562 34.918 325.666 34.94 326.767 C 34.407 327.225 33.868 326.867 33.327 325.886 Z M 34.364 308.173 C 34.403 309.489 34.445 310.779 34.49 312.088 C 34.346 312.056 34.203 311.973 34.059 312.005 C 33.748 311.827 33.438 311.589 33.127 311.294 C 33.536 310.004 33.948 308.966 34.364 308.173 Z M 35.039 279.187 C 35.035 279.672 35.031 280.152 35.028 280.633 C 34.503 281 33.979 281.403 33.455 281.77 C 33.428 281.614 33.401 281.484 33.373 281.304 C 33.925 280.046 34.481 279.523 35.039 279.187 Z M 182.35 250.356 C 180.047 248.077 184.442 245.813 182.354 243.583 C 187.741 241.313 182.157 239.058 182.358 236.837 C 180.037 234.549 179.588 232.269 182.362 230.038 C 182.348 229.907 182.345 229.786 182.344 229.671 L 176.316 229.671 L 176.316 226.764 C 176.28 227.743 176.247 228.821 176.213 229.671 L 171.169 229.671 C 171.13 229.957 171.092 230.251 171.055 230.57 C 170.893 230.349 170.729 230.341 170.565 230.562 C 170.381 230.251 170.196 230.227 170.01 230.505 C 169.827 230.186 169.641 230.162 169.456 230.44 C 169.273 230.12 169.088 230.104 168.904 230.375 C 168.72 230.047 168.533 230.021 168.346 230.301 C 168.163 229.982 167.978 229.964 167.793 230.236 C 167.608 229.916 167.422 229.901 167.237 230.177 C 167.054 229.859 166.868 229.834 166.683 230.111 C 166.499 229.794 166.312 229.77 166.128 230.047 C 165.944 229.73 165.759 229.704 165.574 229.982 C 165.39 229.662 165.204 229.647 165.019 229.916 C 164.836 229.605 164.652 229.583 164.468 229.851 C 164.283 229.522 164.096 229.508 163.91 229.786 C 163.726 229.466 163.54 229.444 163.356 229.721 C 163.172 229.402 162.986 229.376 162.801 229.656 C 162.617 229.336 162.432 229.319 162.247 229.589 C 162.063 229.272 161.877 229.255 161.692 229.531 C 161.507 229.214 161.322 229.19 161.137 229.466 C 160.955 229.156 160.77 229.132 160.586 229.393 C 160.4 229.067 160.213 229.05 160.027 229.328 C 159.844 229.011 159.658 228.985 159.473 229.263 C 159.289 228.943 159.103 228.929 158.918 229.198 C 158.735 228.887 158.549 228.862 158.364 229.142 C 158.18 228.821 157.994 228.796 157.809 229.075 C 157.625 228.757 157.441 228.731 157.256 229.011 C 157.072 228.69 156.886 228.665 156.701 228.943 C 156.518 228.634 156.334 228.609 156.15 228.878 C 155.964 228.553 155.777 228.535 155.591 228.813 C 155.407 228.496 155.221 228.471 155.037 228.747 C 154.853 228.43 154.667 228.405 154.482 228.683 C 154.298 228.362 154.111 228.34 153.928 228.617 C 153.744 228.298 153.557 228.283 153.372 228.553 C 153.189 228.232 153.003 228.218 152.817 228.496 C 152.635 228.176 152.449 228.151 152.264 228.43 C 152.081 228.119 151.896 228.094 151.712 228.356 C 151.528 228.037 151.341 228.012 151.155 228.29 C 150.971 227.973 150.785 227.955 150.6 228.224 C 150.417 227.907 150.231 227.889 150.046 228.168 C 149.862 227.851 149.675 227.825 149.491 228.102 C 149.306 227.785 149.121 227.76 148.936 228.037 C 148.752 227.718 148.566 227.694 148.382 227.973 C 148.198 227.652 148.012 227.629 147.827 227.907 C 147.644 227.596 147.459 227.57 147.276 227.842 C 147.09 227.513 146.903 227.497 146.718 227.775 C 146.534 227.457 146.348 227.431 146.163 227.712 C 145.979 227.393 145.793 227.367 145.609 227.644 C 145.425 227.327 145.24 227.302 145.054 227.579 C 144.87 227.261 144.684 227.244 144.5 227.513 C 144.317 227.196 144.13 227.18 143.946 227.457 C 143.762 227.137 143.577 227.114 143.393 227.384 C 143.209 227.058 143.022 227.041 142.836 227.319 C 142.652 226.999 142.466 226.977 142.28 227.253 C 142.097 226.934 141.912 226.92 141.727 227.187 C 141.543 226.868 141.357 226.852 141.172 227.131 C 140.988 226.811 140.803 226.786 140.618 227.064 C 140.434 226.747 140.248 226.721 140.063 226.999 C 139.879 226.682 139.694 226.656 139.509 226.934 C 139.326 226.625 139.141 226.599 138.957 226.868 C 138.772 226.543 138.585 226.525 138.4 226.804 C 138.215 226.485 138.029 226.461 137.845 226.738 C 137.66 226.42 137.474 226.395 137.29 226.673 C 137.106 226.353 136.92 226.331 136.735 226.607 C 136.551 226.289 136.365 226.266 136.18 226.543 C 135.997 226.222 135.811 226.207 135.626 226.477 C 135.442 226.166 135.256 226.14 135.071 226.42 C 134.889 226.109 134.704 226.084 134.52 226.345 C 134.336 226.019 134.148 226.003 133.963 226.28 C 133.779 225.963 133.593 225.937 133.409 226.216 C 133.225 225.897 133.038 225.881 132.854 226.15 C 132.67 225.833 132.485 225.815 132.299 226.093 C 132.115 225.774 131.929 225.751 131.744 226.027 C 131.559 225.708 131.374 225.685 131.19 225.963 C 131.006 225.651 130.822 225.626 130.638 225.897 C 130.453 225.578 130.266 225.552 130.08 225.823 C 129.896 225.505 129.711 225.488 129.526 225.766 C 129.342 225.448 129.156 225.423 128.972 225.7 C 128.788 225.382 128.602 225.357 128.417 225.634 C 128.233 225.317 128.047 225.292 127.862 225.569 C 127.679 225.252 127.493 225.235 127.308 225.505 C 127.124 225.187 126.938 225.171 126.753 225.448 C 126.57 225.129 126.386 225.105 126.202 225.374 C 126.016 225.047 125.829 225.031 125.643 225.308 C 125.46 224.99 125.274 224.966 125.089 225.244 C 124.905 224.923 124.719 224.901 124.534 225.179 C 124.35 224.859 124.165 224.842 123.98 225.114 C 123.796 224.803 123.61 224.777 123.425 225.053 C 123.241 224.736 123.056 224.713 122.871 224.99 C 122.687 224.673 122.501 224.646 122.316 224.923 C 122.133 224.613 121.948 224.59 121.765 224.859 C 121.58 224.542 121.393 224.516 121.208 224.786 C 121.024 224.469 120.837 224.451 120.653 224.729 C 120.469 224.409 120.283 224.385 120.098 224.664 C 119.914 224.344 119.727 224.321 119.542 224.598 C 119.359 224.279 119.174 224.255 118.988 224.533 C 118.805 224.214 118.619 224.198 118.434 224.469 C 118.251 224.148 118.065 224.131 117.88 224.409 C 117.696 224.092 117.511 224.067 117.327 224.336 C 117.143 224.011 116.956 223.993 116.771 224.27 C 116.587 223.953 116.4 223.928 116.216 224.205 C 116.032 223.887 115.846 223.871 115.662 224.14 C 115.478 223.82 115.292 223.805 115.106 224.084 C 114.923 223.763 114.737 223.741 114.552 224.018 C 114.368 223.699 114.182 223.676 113.997 223.953 C 113.814 223.633 113.629 223.617 113.446 223.887 C 113.261 223.56 113.074 223.534 112.888 223.814 C 112.704 223.496 112.518 223.477 112.334 223.747 C 112.15 223.438 111.964 223.413 111.779 223.69 C 111.595 223.373 111.409 223.347 111.224 223.626 C 111.041 223.307 110.855 223.283 110.67 223.56 C 110.486 223.243 110.3 223.216 110.115 223.496 C 109.932 223.175 109.746 223.16 109.561 223.429 C 109.378 223.119 109.193 223.095 109.009 223.365 C 108.824 223.037 108.638 223.022 108.451 223.3 C 108.268 222.98 108.082 222.955 107.897 223.235 C 107.713 222.915 107.528 222.889 107.343 223.169 C 107.159 222.85 106.973 222.831 106.788 223.101 C 106.604 222.784 106.419 222.768 106.234 223.044 C 106.05 222.727 105.864 222.702 105.679 222.98 C 105.494 222.663 105.308 222.637 105.124 222.915 C 104.942 222.595 104.757 222.581 104.573 222.85 C 104.387 222.53 104.2 222.508 104.016 222.775 C 103.832 222.457 103.645 222.442 103.46 222.719 C 103.276 222.399 103.09 222.377 102.905 222.654 C 102.722 222.334 102.537 222.309 102.352 222.589 C 102.167 222.269 101.981 222.244 101.796 222.522 C 101.613 222.205 101.427 222.179 101.242 222.457 C 101.059 222.148 100.874 222.123 100.69 222.391 C 100.505 222.066 100.319 222.048 100.134 222.327 C 99.949 222.009 99.763 221.983 99.578 222.261 C 99.394 221.943 99.209 221.919 99.024 222.196 C 98.84 221.876 98.654 221.853 98.469 222.132 C 98.286 221.811 98.1 221.797 97.915 222.066 C 97.731 221.747 97.545 221.729 97.36 222.009 C 97.176 221.69 96.99 221.663 96.806 221.943 C 96.623 221.625 96.438 221.607 96.254 221.876 C 96.069 221.55 95.882 221.525 95.697 221.803 C 95.513 221.485 95.327 221.468 95.142 221.738 C 94.958 221.42 94.772 221.403 94.587 221.681 C 94.403 221.364 94.218 221.338 94.032 221.616 C 93.848 221.296 93.662 221.274 93.478 221.55 C 93.295 221.231 93.108 221.208 92.924 221.485 C 92.74 221.165 92.553 221.151 92.368 221.42 C 92.186 221.109 92.001 221.083 91.818 221.355 C 91.633 221.027 91.446 221.01 91.26 221.29 C 91.075 220.969 90.89 220.946 90.705 221.224 C 90.521 220.905 90.335 220.879 90.15 221.159 C 89.966 220.84 89.781 220.815 89.596 221.092 C 89.412 220.775 89.226 220.758 89.041 221.027 C 88.857 220.718 88.671 220.693 88.487 220.969 C 88.303 220.651 88.117 220.629 87.932 220.905 C 87.749 220.585 87.564 220.572 87.381 220.84 C 87.196 220.513 87.009 220.49 86.823 220.766 C 86.639 220.447 86.453 220.432 86.268 220.702 C 86.085 220.381 85.899 220.365 85.714 220.644 C 85.529 220.325 85.344 220.3 85.159 220.577 C 84.976 220.26 84.79 220.234 84.605 220.513 C 84.421 220.195 84.235 220.17 84.05 220.447 C 83.867 220.138 83.683 220.113 83.499 220.381 C 83.314 220.056 83.127 220.04 82.941 220.317 C 82.757 220 82.571 219.974 82.387 220.251 C 82.202 219.932 82.016 219.909 81.831 220.187 C 81.647 219.868 81.461 219.844 81.277 220.12 C 81.094 219.801 80.907 219.785 80.722 220.056 C 80.538 219.736 80.352 219.72 80.168 220 C 79.984 219.679 79.799 219.655 79.613 219.932 C 79.43 219.624 79.245 219.598 79.061 219.859 C 78.877 219.533 78.69 219.516 78.504 219.792 C 78.32 219.475 78.134 219.449 77.949 219.729 C 77.766 219.412 77.58 219.393 77.395 219.662 C 77.211 219.352 77.025 219.328 76.84 219.606 C 76.657 219.287 76.471 219.263 76.286 219.541 C 76.102 219.221 75.915 219.199 75.731 219.475 C 75.547 219.157 75.361 219.132 75.176 219.412 C 74.994 219.099 74.809 219.074 74.625 219.345 C 74.438 219.018 74.25 219 74.064 219.277 C 73.881 218.97 73.696 218.944 73.512 219.221 C 73.328 218.904 73.143 218.879 72.958 219.157 C 72.773 218.839 72.585 218.814 72.399 219.099 C 72.217 218.788 72.032 218.766 71.85 219.033 C 71.666 218.714 71.479 218.7 71.295 218.977 C 71.109 218.651 70.922 218.632 70.736 218.913 C 70.553 218.601 70.369 218.585 70.185 218.854 C 69.999 218.537 69.812 218.511 69.626 218.797 C 69.444 218.485 69.259 218.463 69.076 218.732 C 68.892 218.414 68.706 218.397 68.521 218.666 C 68.337 218.347 68.149 218.332 67.963 218.61 C 67.78 218.299 67.595 218.273 67.412 218.553 C 67.226 218.225 67.039 218.209 66.854 218.485 C 66.671 218.177 66.486 218.159 66.303 218.429 C 66.119 218.112 65.934 218.086 65.749 218.363 C 65.563 218.045 65.376 218.03 65.19 218.307 C 65.007 217.996 64.822 217.973 64.64 218.25 C 64.454 217.922 64.267 217.908 64.08 218.185 C 63.898 217.873 63.713 217.858 63.53 218.126 C 63.346 217.809 63.16 217.783 62.975 218.062 C 62.79 217.743 62.603 217.727 62.418 218.005 C 62.235 217.693 62.05 217.67 61.867 217.949 C 61.682 217.628 61.496 217.605 61.311 217.883 C 61.126 217.564 60.939 217.54 60.753 217.817 C 60.57 217.507 60.386 217.489 60.202 217.761 C 60.018 217.441 59.83 217.417 59.645 217.701 C 59.461 217.393 59.277 217.367 59.093 217.637 C 58.909 217.32 58.724 217.303 58.539 217.579 C 58.354 217.261 58.167 217.238 57.98 217.514 C 57.797 217.204 57.613 217.19 57.43 217.457 C 57.246 217.138 57.06 217.114 56.875 217.393 C 56.69 217.073 56.503 217.056 56.317 217.334 C 56.134 217.025 55.949 216.999 55.765 217.278 C 55.561 216.918 55.355 216.918 55.15 217.278 C 54.933 216.951 54.716 217.025 54.5 217.489 C 54.315 217.303 54.13 217.401 53.946 217.776 C 53.761 217.589 53.575 217.687 53.389 218.07 C 53.205 217.883 53.02 217.982 52.837 218.356 C 52.653 218.168 52.467 218.268 52.284 218.642 C 52.097 218.463 51.911 218.559 51.726 218.944 C 51.543 218.757 51.358 218.854 51.174 219.23 C 50.99 219.042 50.804 219.14 50.62 219.516 C 50.435 219.328 50.25 219.426 50.066 219.801 C 49.88 219.615 49.694 219.711 49.509 220.095 C 49.325 219.909 49.141 220.005 48.958 220.381 C 48.773 220.195 48.586 220.291 48.402 220.676 C 48.217 220.49 48.031 220.585 47.847 220.969 C 47.663 220.783 47.478 220.879 47.294 221.255 C 47.109 221.069 46.924 221.165 46.74 221.541 C 46.555 221.355 46.368 221.452 46.183 221.836 C 45.999 221.649 45.815 221.747 45.631 222.123 C 45.448 221.935 45.261 222.033 45.077 222.409 C 44.893 222.221 44.707 222.318 44.523 222.702 C 44.338 222.514 44.151 222.612 43.966 222.997 C 43.782 222.809 43.597 222.907 43.414 223.283 C 43.229 223.095 43.045 223.193 42.86 223.568 C 42.674 223.382 42.488 223.477 42.303 223.862 C 42.119 223.676 41.935 223.772 41.751 224.148 C 41.567 223.962 41.381 224.058 41.197 224.434 C 41.011 224.247 40.825 224.344 40.642 224.736 C 40.458 224.549 40.272 224.646 40.088 225.023 C 39.903 224.834 39.718 224.932 39.535 225.308 C 39.35 225.12 39.164 225.218 38.98 225.595 C 38.795 225.405 38.608 225.505 38.424 225.89 C 38.24 225.7 38.055 225.799 37.871 226.175 C 37.745 226.068 37.632 226.256 37.517 226.362 C 37.475 225.611 37.422 225.006 37.36 225.023 C 35.847 225.244 34.374 227.726 32.913 233.168 L 31.712 233.168 C 31.433 233.168 31.433 239.785 31.712 239.785 L 32.02 239.785 C 32.035 241.24 32.107 242.521 32.226 242.497 C 32.276 242.482 32.325 242.431 32.374 242.417 C 32.387 243.805 32.45 245.055 32.568 245.08 C 32.777 245.111 32.984 245.168 33.191 245.227 C 32.479 247.072 31.759 248.42 31.029 249.589 C 30.762 250.006 30.749 256.067 31.029 256.051 C 31.403 256.011 31.778 255.863 32.152 255.595 C 32.16 255.642 32.163 255.772 32.172 255.805 C 32.199 255.912 32.226 255.985 32.254 256.085 C 32.158 257.661 32.211 260.92 32.397 261.289 L 32.449 261.385 C 32.406 261.844 32.379 262.605 32.378 263.428 L 31.884 263.428 C 31.663 263.428 31.615 268.378 31.832 269.327 C 32.425 271.908 33.021 273.633 33.621 274.859 C 33.308 275.422 32.997 276.133 32.687 277.178 C 32.537 277.684 32.505 280.796 32.617 282.235 C 32.373 282.341 32.129 282.503 31.884 282.538 C 31.634 282.571 31.634 288.484 31.884 288.452 C 31.933 288.452 31.983 288.428 32.032 288.419 C 32.4 289.491 32.768 290.315 33.137 291.009 C 32.701 291.582 32.267 292.389 31.834 293.591 C 31.653 294.107 31.651 298.715 31.834 299.178 C 32.084 299.807 32.334 300.313 32.584 300.724 C 32.547 302.146 32.579 304.05 32.691 304.465 C 32.837 305.012 32.982 305.437 33.127 305.813 C 32.752 306.965 32.379 308.371 32.009 310.16 C 31.811 311.107 31.864 315.118 32.055 315.387 C 32.289 315.722 32.524 315.935 32.758 316.196 C 32.769 316.973 32.796 317.676 32.866 317.903 C 32.909 318.036 32.952 318.101 32.994 318.23 C 32.681 318.271 32.367 318.287 32.055 318.297 C 31.835 318.297 31.835 323.5 32.055 323.493 L 32.455 323.493 C 32.421 323.64 32.387 323.722 32.353 323.861 C 32.199 324.514 32.184 328.33 32.353 328.828 C 32.824 330.182 33.3 331.171 33.773 331.686 C 33.265 332.798 32.757 333.819 32.246 334.742 C 32.012 334.775 31.777 334.791 31.542 334.791 C 31.369 334.791 31.35 338.068 31.466 339.177 C 31.306 339.571 31.146 339.938 30.986 340.346 C 30.819 340.78 30.851 344.308 30.986 345.019 C 31.476 347.577 31.97 349.349 32.466 350.478 C 31.989 350.876 31.51 351.123 31.029 351.18 C 30.826 351.197 30.826 356 31.029 355.966 C 31.153 355.96 31.276 355.828 31.4 355.804 C 31.378 356.988 31.4 358.344 31.5 358.59 C 31.515 358.631 31.528 358.646 31.542 358.679 L 31.543 358.679 C 32.184 360.273 32.825 361.041 33.465 361.244 C 33.455 361.923 33.458 362.625 33.486 363.149 C 32.931 365.019 32.38 367.266 31.844 370.393 C 31.681 371.342 31.709 374.79 31.884 374.971 C 32.425 375.526 32.953 375.165 33.476 374.26 C 33.431 375.533 33.48 377.519 33.596 377.495 L 33.617 377.486 C 33.639 378.769 33.777 379.69 33.958 380.336 C 34.03 380.73 34.102 381.064 34.172 381.4 C 34.006 382.207 33.876 383.197 33.879 384.358 C 33.779 384.701 33.676 384.929 33.573 385.044 C 33.478 385.247 33.505 387.512 33.596 387.512 C 33.949 387.494 34.301 387.217 34.653 387.004 C 34.634 387.901 34.62 388.818 34.611 389.758 C 34.551 389.781 34.489 389.772 34.427 389.781 C 34.244 388.718 34.127 388.759 34.076 389.847 C 33.915 389.863 33.756 389.905 33.596 389.905 C 33.444 389.914 33.444 393.483 33.596 393.499 C 33.785 393.516 33.976 393.565 34.165 393.605 C 34.214 393.72 34.262 393.833 34.31 393.932 C 34.238 394.358 34.164 394.692 34.093 395.141 C 34.042 395.175 33.989 395.24 33.938 395.254 C 33.778 395.313 33.777 399.069 33.938 399.046 C 33.984 399.038 34.029 398.964 34.076 398.948 C 34.087 398.99 34.095 399.127 34.108 399.112 C 34.205 399.063 34.298 398.857 34.394 398.777 L 34.394 398.842 C 34.439 398.8 34.483 398.687 34.529 398.636 C 34.728 398.475 34.928 398.31 35.126 398.041 C 35.127 398.9 35.123 399.838 35.108 400.933 C 35.467 403.686 35.834 403.727 36.185 402.844 C 36.373 403.147 36.559 403.017 36.741 402.559 C 36.928 402.861 37.113 402.722 37.295 402.273 C 37.481 402.575 37.666 402.436 37.849 401.987 C 38.034 402.264 38.221 402.168 38.405 401.692 C 38.591 401.987 38.775 401.848 38.957 401.398 C 39.144 401.701 39.329 401.562 39.512 401.104 C 39.699 401.416 39.883 401.276 40.065 400.818 C 40.253 401.122 40.439 400.99 40.622 400.532 C 40.808 400.836 40.993 400.697 41.174 400.248 C 41.361 400.549 41.546 400.41 41.729 399.962 C 41.914 400.238 42.102 400.141 42.284 399.666 C 42.471 399.962 42.656 399.822 42.837 399.373 C 43.024 399.675 43.21 399.536 43.391 399.079 C 43.578 399.389 43.765 399.251 43.947 398.792 C 44.134 399.094 44.319 398.955 44.501 398.506 C 44.687 398.808 44.872 398.67 45.054 398.22 C 45.241 398.523 45.427 398.376 45.609 397.934 C 45.794 398.212 45.981 398.116 46.164 397.64 C 46.351 397.934 46.536 397.796 46.717 397.346 C 46.904 397.649 47.089 397.51 47.272 397.052 C 47.459 397.355 47.646 397.224 47.828 396.766 C 48.015 397.069 48.198 396.929 48.38 396.481 C 48.567 396.783 48.753 396.644 48.935 396.195 C 49.123 396.496 49.308 396.35 49.49 395.9 C 49.677 396.195 49.862 396.055 50.043 395.608 C 50.231 395.908 50.416 395.769 50.597 395.313 C 50.784 395.622 50.969 395.484 51.152 395.028 C 51.34 395.327 51.525 395.197 51.707 394.74 C 51.894 395.042 52.079 394.905 52.26 394.455 C 52.448 394.756 52.633 394.617 52.815 394.167 C 53 394.448 53.187 394.349 53.37 393.875 C 53.557 394.167 53.742 394.029 53.924 393.58 C 54.11 393.882 54.295 393.743 54.477 393.287 C 54.647 393.572 54.817 393.499 54.982 393.131 C 55.158 393.499 55.336 393.508 55.511 393.148 C 55.699 393.59 55.884 393.58 56.067 393.214 C 56.254 393.638 56.439 393.638 56.621 393.271 C 56.807 393.703 56.993 393.703 57.175 393.327 C 57.362 393.768 57.549 393.768 57.731 393.384 C 57.917 393.816 58.103 393.816 58.284 393.448 C 58.471 393.882 58.656 393.89 58.839 393.516 C 59.026 393.948 59.213 393.948 59.395 393.58 C 59.581 394.006 59.766 394.006 59.948 393.629 C 60.136 394.072 60.321 394.072 60.504 393.687 C 60.69 394.119 60.875 394.119 61.057 393.751 C 61.244 394.185 61.43 394.192 61.612 393.816 C 61.798 394.259 61.985 394.249 62.169 393.882 C 62.354 394.308 62.539 394.308 62.721 393.942 C 62.907 394.374 63.093 394.374 63.275 393.998 C 63.46 394.431 63.647 394.448 63.832 394.054 C 64.018 394.488 64.202 394.488 64.385 394.119 C 64.572 394.561 64.758 394.553 64.941 394.185 C 65.128 394.617 65.312 394.617 65.494 394.24 C 65.68 394.675 65.866 394.675 66.049 394.3 C 66.236 394.74 66.422 394.74 66.604 394.358 C 66.791 394.79 66.976 394.79 67.157 394.422 C 67.345 394.864 67.532 394.855 67.714 394.488 C 67.9 394.92 68.085 394.92 68.267 394.544 C 68.454 394.977 68.639 394.977 68.822 394.61 C 69.008 395.042 69.195 395.042 69.378 394.659 C 69.563 395.092 69.749 395.092 69.931 394.725 C 70.117 395.166 70.304 395.157 70.486 394.79 C 70.673 395.223 70.858 395.223 71.04 394.847 C 71.223 395.28 71.41 395.296 71.594 394.911 C 71.781 395.346 71.968 395.346 72.151 394.968 C 72.337 395.394 72.522 395.394 72.703 395.028 C 72.889 395.461 73.076 395.466 73.258 395.092 C 73.446 395.534 73.631 395.526 73.814 395.157 C 74 395.591 74.184 395.591 74.366 395.223 C 74.553 395.656 74.739 395.656 74.921 395.288 C 75.108 395.712 75.294 395.722 75.477 395.346 C 75.663 395.779 75.849 395.786 76.031 395.409 C 76.217 395.843 76.403 395.851 76.586 395.476 C 76.772 395.908 76.958 395.916 77.141 395.54 C 77.327 395.973 77.512 395.982 77.694 395.608 C 77.881 396.032 78.068 396.04 78.25 395.664 C 78.435 396.097 78.62 396.107 78.802 395.729 C 78.987 396.164 79.175 396.186 79.359 395.802 C 79.542 396.236 79.729 396.253 79.913 395.869 C 80.097 396.301 80.284 396.318 80.468 395.934 C 80.655 396.367 80.839 396.367 81.022 395.991 C 81.206 396.424 81.393 396.44 81.577 396.055 C 81.764 396.496 81.949 396.496 82.132 396.12 C 82.315 396.553 82.502 396.571 82.686 396.186 C 82.873 396.627 83.058 396.627 83.238 396.259 C 83.426 396.693 83.613 396.693 83.796 396.327 C 83.982 396.751 84.168 396.759 84.349 396.383 C 84.536 396.816 84.722 396.825 84.904 396.448 C 85.091 396.881 85.278 396.89 85.46 396.514 C 85.646 396.947 85.831 396.956 86.014 396.578 C 86.2 397.012 86.386 397.012 86.568 396.644 C 86.754 397.069 86.939 397.076 87.121 396.7 C 87.306 397.133 87.494 397.159 87.678 396.775 C 87.861 397.208 88.048 397.224 88.232 396.839 C 88.416 397.273 88.603 397.288 88.787 396.906 C 88.971 397.34 89.157 397.355 89.341 396.971 C 89.528 397.404 89.713 397.404 89.896 397.029 C 90.082 397.47 90.268 397.47 90.45 397.094 C 90.637 397.535 90.823 397.535 91.005 397.159 C 91.189 397.583 91.375 397.608 91.557 397.232 C 91.745 397.673 91.931 397.673 92.114 397.298 C 92.298 397.714 92.485 397.74 92.668 397.355 C 92.855 397.787 93.041 397.796 93.223 397.419 C 93.41 397.852 93.595 397.861 93.778 397.485 C 93.964 397.917 94.15 397.926 94.333 397.551 C 94.519 397.985 94.705 397.992 94.887 397.617 C 95.071 398.034 95.257 398.059 95.441 397.683 C 95.628 398.106 95.813 398.116 95.995 397.74 C 96.18 398.172 96.366 398.198 96.551 397.813 C 96.735 398.246 96.921 398.262 97.105 397.877 C 97.289 398.31 97.476 398.329 97.659 397.944 C 97.847 398.376 98.032 398.376 98.215 398.007 C 98.402 398.442 98.586 398.442 98.769 398.065 C 98.953 398.498 99.14 398.515 99.324 398.131 C 99.511 398.572 99.697 398.572 99.878 398.198 C 100.062 398.622 100.247 398.645 100.431 398.271 C 100.618 398.709 100.805 398.709 100.987 398.335 C 101.173 398.761 101.36 398.768 101.542 398.392 C 101.729 398.826 101.915 398.833 102.097 398.457 C 102.283 398.89 102.469 398.9 102.651 398.523 C 102.838 398.955 103.024 398.964 103.206 398.588 C 103.392 399.021 103.578 399.03 103.76 398.653 C 103.947 399.079 104.132 399.086 104.313 398.709 C 104.5 399.161 104.686 399.161 104.869 398.784 C 105.056 399.225 105.242 399.225 105.424 398.851 C 105.611 399.29 105.797 399.29 105.979 398.917 C 106.163 399.349 106.35 399.364 106.534 398.981 C 106.72 399.414 106.905 399.414 107.088 399.046 C 107.274 399.479 107.46 399.479 107.642 399.103 C 107.826 399.536 108.013 399.553 108.196 399.168 C 108.383 399.61 108.568 399.61 108.75 399.241 C 108.937 399.683 109.124 399.683 109.306 399.307 C 109.49 399.723 109.677 399.749 109.861 399.373 C 110.047 399.796 110.233 399.805 110.416 399.43 C 110.602 399.863 110.787 399.871 110.97 399.497 C 111.157 399.929 111.343 399.936 111.526 399.561 C 111.711 399.995 111.897 400.001 112.079 399.625 C 112.266 400.06 112.452 400.068 112.634 399.692 C 112.82 400.116 113.005 400.125 113.186 399.749 C 113.371 400.181 113.559 400.207 113.743 399.822 C 113.927 400.255 114.113 400.271 114.297 399.886 C 114.484 400.329 114.67 400.329 114.852 399.953 C 115.036 400.385 115.223 400.402 115.407 400.018 C 115.594 400.451 115.779 400.451 115.961 400.077 C 116.145 400.51 116.332 400.524 116.515 400.141 C 116.702 400.583 116.887 400.583 117.069 400.214 C 117.256 400.655 117.443 400.655 117.625 400.281 C 117.811 400.714 117.997 400.722 118.18 400.345 C 118.366 400.77 118.552 400.779 118.735 400.41 C 118.92 400.836 119.106 400.843 119.289 400.467 C 119.476 400.9 119.661 400.909 119.844 400.532 C 120.029 400.965 120.215 400.973 120.398 400.598 C 120.585 401.031 120.771 401.04 120.953 400.664 C 121.139 401.096 121.324 401.096 121.505 400.727 C 121.692 401.169 121.879 401.169 122.062 400.795 C 122.246 401.228 122.432 401.243 122.616 400.86 C 122.8 401.294 122.987 401.308 123.171 400.925 C 123.358 401.368 123.543 401.368 123.725 400.99 C 123.909 401.425 124.096 401.44 124.28 401.055 C 124.467 401.489 124.653 401.489 124.834 401.112 C 125.021 401.554 125.206 401.554 125.389 401.178 C 125.576 401.619 125.761 401.619 125.942 401.252 C 126.129 401.692 126.315 401.692 126.499 401.316 C 126.685 401.749 126.871 401.757 127.054 401.382 C 127.239 401.81 127.425 401.815 127.608 401.44 C 127.794 401.873 127.98 401.881 128.163 401.506 C 128.348 401.939 128.534 401.947 128.716 401.571 C 128.903 402.004 129.09 402.013 129.272 401.635 C 129.458 402.069 129.644 402.077 129.826 401.701 C 130.009 402.118 130.195 402.142 130.379 401.767 C 130.566 402.208 130.752 402.208 130.934 401.832 C 131.118 402.264 131.306 402.28 131.49 401.897 C 131.677 402.338 131.861 402.338 132.044 401.961 C 132.231 402.403 132.416 402.403 132.6 402.027 C 132.786 402.46 132.972 402.46 133.153 402.093 C 133.34 402.527 133.526 402.527 133.708 402.151 C 133.892 402.575 134.077 402.602 134.26 402.224 C 134.448 402.666 134.634 402.666 134.817 402.29 C 135.003 402.722 135.19 402.731 135.372 402.355 C 135.558 402.788 135.744 402.796 135.926 402.42 C 136.113 402.844 136.299 402.853 136.481 402.477 C 136.667 402.91 136.853 402.919 137.036 402.542 C 137.222 402.975 137.408 402.984 137.59 402.607 C 137.777 403.04 137.962 403.049 138.145 402.675 C 138.328 403.1 138.514 403.122 138.697 402.74 C 138.885 403.178 139.071 403.178 139.253 402.804 C 139.44 403.246 139.626 403.246 139.809 402.87 C 139.995 403.31 140.18 403.31 140.363 402.935 C 140.549 403.377 140.735 403.377 140.918 403.001 C 141.104 403.442 141.29 403.442 141.472 403.065 C 141.659 403.498 141.844 403.498 142.027 403.131 C 142.214 403.563 142.399 403.563 142.581 403.187 C 142.767 403.629 142.953 403.629 143.134 403.261 C 143.321 403.703 143.508 403.703 143.691 403.326 C 143.877 403.76 144.063 403.767 144.245 403.392 C 144.43 403.809 144.616 403.833 144.8 403.459 C 144.985 403.883 145.172 403.892 145.354 403.516 C 145.541 403.948 145.727 403.956 145.909 403.58 C 146.096 404.012 146.28 404.022 146.463 403.646 C 146.65 404.079 146.835 404.088 147.017 403.71 C 147.201 404.144 147.388 404.169 147.573 403.784 C 147.759 404.218 147.945 404.218 148.127 403.841 C 148.314 404.282 148.498 404.282 148.682 403.906 C 148.868 404.347 149.053 404.347 149.237 403.97 C 149.423 404.412 149.609 404.412 149.791 404.038 C 149.977 404.478 150.163 404.478 150.346 404.105 C 150.532 404.537 150.719 404.537 150.9 404.161 C 151.083 404.585 151.269 404.61 151.453 404.234 C 151.64 404.676 151.827 404.676 152.009 404.299 C 152.195 404.732 152.381 404.74 152.563 404.364 C 152.75 404.797 152.936 404.807 153.119 404.43 C 153.302 404.845 153.489 404.871 153.672 404.495 C 153.86 404.92 154.045 404.928 154.228 404.552 C 154.415 404.984 154.599 404.993 154.782 404.619 C 154.969 405.052 155.154 405.057 155.337 404.684 C 155.523 405.116 155.708 405.125 155.889 404.749 C 156.076 405.192 156.263 405.192 156.446 404.822 C 156.633 405.256 156.817 405.256 157 404.88 C 157.187 405.321 157.372 405.321 157.555 404.944 C 157.742 405.386 157.927 405.386 158.109 405.01 C 158.296 405.451 158.482 405.451 158.664 405.076 C 158.848 405.509 159.035 405.524 159.218 405.139 C 159.405 405.573 159.59 405.573 159.774 405.197 C 159.959 405.639 160.145 405.639 160.326 405.27 C 160.513 405.712 160.699 405.712 160.882 405.338 C 161.069 405.771 161.255 405.776 161.438 405.402 C 161.624 405.836 161.809 405.844 161.992 405.468 C 162.178 405.894 162.364 405.9 162.547 405.524 C 162.733 405.958 162.918 405.966 163.101 405.59 C 163.287 406.023 163.473 406.031 163.656 405.655 C 163.842 406.088 164.026 406.097 164.208 405.72 C 164.393 406.153 164.581 406.178 164.765 405.794 C 164.952 406.226 165.137 406.226 165.319 405.859 C 165.506 406.292 165.691 406.292 165.874 405.917 C 166.058 406.35 166.245 406.366 166.428 405.984 C 166.612 406.416 166.799 406.431 166.983 406.048 C 167.169 406.489 167.356 406.489 167.537 406.113 C 167.724 406.546 167.91 406.546 168.092 406.178 C 168.276 406.602 168.462 406.619 168.645 406.244 C 168.832 406.686 169.018 406.686 169.201 406.31 C 169.388 406.742 169.573 406.75 169.756 406.374 C 169.942 406.807 170.128 406.815 170.311 406.439 C 170.483 406.841 170.655 406.841 170.824 406.546 C 170.853 406.79 170.885 407.044 170.92 407.288 L 182.128 407.288 C 182.178 406.898 182.225 406.504 182.256 406.113 C 175.328 403.826 183.843 401.58 182.259 399.349 C 185.8 397.069 181.125 394.816 182.264 392.6 C 185.691 390.305 183.612 388.041 182.268 385.796 C 185.118 383.524 184.088 381.262 182.272 379.022 C 177.991 376.751 179.489 374.482 182.276 372.251 C 184.14 369.978 180.664 367.714 182.28 365.476 C 177.598 363.205 180.056 360.933 182.284 358.712 C 182.937 356.442 175.431 354.162 182.288 351.94 C 180.374 349.677 179.381 347.404 182.292 345.192 C 187.208 342.904 184.285 340.633 182.296 338.393 C 181.234 336.114 178.502 333.843 182.3 331.621 C 187.021 329.343 184.864 327.079 182.304 324.848 C 188.365 322.57 186.899 320.298 182.308 318.084 C 175.051 315.805 189.323 313.534 182.312 311.303 C 184.172 309.024 176.564 306.761 182.316 304.539 C 181.026 302.259 178.875 299.996 182.32 297.759 C 182.619 295.495 183.014 293.224 182.325 291.016 C 177.036 288.731 177.605 286.452 182.33 284.22 C 180.471 281.941 186.096 279.672 182.333 277.45 C 179.043 275.169 183.655 272.906 182.337 270.676 C 179.316 268.387 180.451 266.125 182.341 263.895 C 188.058 261.622 176.451 259.353 182.345 257.122 C 192.666 254.85 187.809 252.58 182.35 250.356 Z"/>
  <g transform="matrix(0.309904009103775, 0, 0, 0.309904009103775, -173.46029663085938, 361.8367614746094)" style="stroke: rgb(0, 0, 0); stroke-width: 0.1; fill: rgb(217, 201, 109);" fill="#d9c96d" stroke-width="0.1" stroke="#000" font-size="9pt" fill-rule="evenodd" stroke-linecap="round" id="svgGroup">
    <path id="14" d="M 705.946 -80.075 L 730.087 -152.497 L 749.572 -152.497 L 773.821 -79.966 L 779.776 -78.884 L 779.776 -71.739 L 745.675 -71.739 L 745.675 -78.884 L 753.361 -79.966 L 749.681 -92.957 L 723.808 -92.957 L 720.127 -79.858 L 728.571 -78.884 L 728.571 -71.739 L 699.775 -71.739 L 699.667 -78.884 L 705.946 -80.075 Z M 747.407 -101.293 L 738.097 -133.661 L 736.474 -141.239 L 734.742 -133.552 L 725.973 -101.293 L 747.407 -101.293 Z" style=""/>
    <path id="15" d="M 831.196 -130.197 L 830.439 -110.602 L 819.505 -110.602 L 816.69 -123.052 C 816.523 -123.829 816.018 -124.492 815.313 -124.86 C 815.181 -124.933 815.044 -124.998 814.904 -125.054 C 814.42 -125.248 813.917 -125.391 813.404 -125.481 C 812.787 -125.594 812.114 -125.65 811.386 -125.65 C 807.994 -125.65 805.342 -123.99 803.429 -120.67 C 802.807 -119.553 802.32 -118.364 801.979 -117.131 C 801.25 -114.623 800.802 -111.468 800.635 -107.668 C 800.584 -106.481 800.559 -105.295 800.56 -104.107 C 800.552 -102.019 800.664 -99.931 800.897 -97.855 C 801.409 -93.464 802.506 -89.9 804.187 -87.165 C 804.908 -85.963 805.802 -84.871 806.84 -83.928 C 808.799 -82.168 811.351 -81.217 813.984 -81.265 C 819.324 -81.265 824.232 -82.637 828.707 -85.379 L 831.63 -78.992 C 830.976 -78.27 830.255 -77.611 829.476 -77.024 C 827.94 -75.845 825.979 -74.688 823.593 -73.551 C 823.422 -73.47 823.25 -73.389 823.077 -73.309 C 819.891 -71.848 816.475 -70.96 812.982 -70.68 C 811.947 -70.591 810.908 -70.547 809.87 -70.548 C 802.753 -70.548 796.984 -72.133 792.566 -75.304 C 791.114 -76.346 789.799 -77.567 788.652 -78.938 C 785.888 -82.289 783.918 -86.225 782.891 -90.446 C 782.041 -93.755 781.616 -97.406 781.616 -101.401 C 781.599 -104.351 781.906 -107.292 782.531 -110.175 C 783.148 -113.004 784.151 -115.734 785.513 -118.289 C 788.111 -123.124 791.756 -126.859 796.447 -129.493 C 799.921 -131.42 803.736 -132.655 807.68 -133.131 C 809.34 -133.342 811.011 -133.447 812.685 -133.444 C 813.849 -133.446 815.012 -133.413 816.174 -133.346 C 817.773 -133.249 819.227 -133.084 820.533 -132.849 C 822.378 -132.513 824.204 -132.082 826.006 -131.559 C 826.439 -131.435 826.87 -131.305 827.299 -131.171 C 827.663 -131.07 828.028 -130.971 828.393 -130.872 C 829.851 -130.48 830.786 -130.255 831.196 -130.197 Z" style=""/>
    <path id="16" d="M 839.532 -71.739 L 839.532 -78.884 L 846.136 -79.858 L 846.136 -120.562 L 839.749 -122.51 L 839.749 -130.954 L 857.719 -133.336 L 858.044 -133.336 L 861.075 -131.063 L 861.075 -128.464 L 860.75 -119.479 L 861.075 -119.479 C 861.271 -120.103 861.522 -120.708 861.826 -121.287 C 862.451 -122.499 863.355 -123.826 864.539 -125.271 C 865.859 -126.867 867.381 -128.284 869.067 -129.485 C 869.824 -130.03 870.608 -130.539 871.413 -131.008 C 874.192 -132.632 877.205 -133.444 880.452 -133.444 C 880.985 -133.446 881.517 -133.423 882.047 -133.374 C 883.111 -133.272 883.986 -133.061 884.673 -132.739 C 884.71 -132.722 884.746 -132.705 884.783 -132.686 L 884.783 -113.85 C 883.627 -114.716 882.383 -115.401 881.048 -115.907 C 880.483 -116.116 879.901 -116.276 879.309 -116.383 C 878.719 -116.495 878.079 -116.573 877.39 -116.618 C 876.896 -116.65 876.4 -116.666 875.906 -116.665 C 874.6 -116.669 873.297 -116.574 872.006 -116.378 C 870.942 -116.217 869.893 -115.969 868.869 -115.636 C 868.162 -115.407 867.466 -115.149 866.781 -114.862 C 866.139 -114.592 865.552 -114.309 865.023 -114.016 C 864.632 -113.8 864.254 -113.564 863.889 -113.309 L 863.889 -79.858 L 875.797 -78.776 L 875.797 -71.739 L 839.532 -71.739 Z" style=""/>
    <path id="17" d="M 892.39 -109.426 C 891.924 -106.812 891.697 -104.163 891.711 -101.509 C 891.711 -100.751 891.727 -99.993 891.76 -99.237 C 892.135 -90.577 894.7 -83.739 899.451 -78.721 C 902.78 -75.217 907.048 -72.746 911.746 -71.604 C 914.681 -70.877 917.698 -70.522 920.723 -70.548 C 921.818 -70.547 922.911 -70.591 924.002 -70.68 C 928.246 -70.995 932.389 -72.127 936.204 -74.012 C 937.845 -74.831 939.393 -75.825 940.82 -76.977 C 943.417 -79.105 945.596 -81.697 947.246 -84.621 C 947.628 -85.286 947.981 -85.967 948.303 -86.662 C 949.417 -89.062 950.227 -91.726 950.731 -94.655 C 951.163 -97.243 951.373 -99.861 951.359 -102.483 C 951.359 -103.241 951.343 -103.998 951.311 -104.755 C 950.935 -113.414 948.37 -120.253 943.619 -125.271 C 940.266 -128.794 935.965 -131.269 931.236 -132.4 C 928.291 -133.119 925.27 -133.47 922.239 -133.444 C 921.979 -133.444 921.72 -133.441 921.46 -133.436 C 916.405 -133.379 911.429 -132.159 906.921 -129.872 C 905.473 -129.133 904.098 -128.261 902.813 -127.266 C 899.966 -125.034 897.591 -122.258 895.825 -119.1 C 894.196 -116.25 893.051 -113.025 892.39 -109.426 Z M 921.806 -78.126 C 925.27 -78.126 927.85 -79.985 929.546 -83.701 C 930.097 -84.946 930.528 -86.242 930.832 -87.569 C 931.671 -91.064 932.09 -95.602 932.09 -101.184 C 932.09 -108.081 931.549 -113.497 930.465 -117.432 C 930.242 -118.256 929.971 -119.066 929.654 -119.858 C 929.247 -120.897 928.698 -121.875 928.023 -122.763 C 926.477 -124.8 924.037 -125.958 921.481 -125.866 C 918.256 -125.875 915.327 -123.989 913.999 -121.05 C 912.504 -118.316 911.546 -114.417 911.123 -109.354 C 910.949 -107.177 910.865 -104.993 910.872 -102.808 C 910.872 -95.908 911.46 -90.479 912.637 -86.52 C 912.869 -85.728 913.147 -84.949 913.47 -84.188 C 913.905 -83.139 914.48 -82.153 915.179 -81.258 C 916.758 -79.212 919.223 -78.047 921.806 -78.126 Z" style=""/>
    <path id="18" d="M 971.711 -89.276 L 974.417 -80.724 C 974.827 -80.081 975.673 -79.486 976.958 -78.937 C 977.28 -78.8 977.606 -78.675 977.936 -78.559 C 979.776 -77.91 981.635 -77.585 983.511 -77.585 C 984.365 -77.58 985.218 -77.641 986.064 -77.767 C 986.933 -77.902 987.719 -78.113 988.421 -78.398 C 989.09 -78.664 989.716 -79.029 990.277 -79.479 C 991.062 -80.1 991.685 -80.9 992.093 -81.812 C 992.442 -82.632 992.616 -83.515 992.604 -84.405 C 992.616 -86.196 991.833 -87.9 990.466 -89.058 C 990.184 -89.311 989.885 -89.547 989.573 -89.763 C 987.552 -91.171 984.233 -92.884 979.614 -94.906 L 975.5 -96.746 C 973.845 -97.474 972.247 -98.325 970.717 -99.29 C 969.089 -100.329 967.674 -101.451 966.474 -102.653 C 965.93 -103.197 965.419 -103.773 964.945 -104.378 C 963.413 -106.361 962.364 -108.674 961.882 -111.133 C 961.57 -112.669 961.417 -114.232 961.427 -115.799 C 961.427 -119.119 962.401 -122.096 964.35 -124.73 C 965.56 -126.344 967.044 -127.732 968.736 -128.83 C 970.017 -129.668 971.376 -130.379 972.794 -130.954 C 974.841 -131.784 976.977 -132.376 979.158 -132.72 C 981.222 -133.059 983.431 -133.228 985.784 -133.228 C 987.115 -133.23 988.445 -133.194 989.773 -133.12 C 991.032 -133.048 992.212 -132.941 993.314 -132.797 C 993.8 -132.734 994.285 -132.66 994.769 -132.578 C 997.295 -132.145 999.857 -131.604 1002.455 -130.954 C 1003.824 -130.555 1004.921 -130.291 1005.749 -130.162 C 1005.949 -130.131 1006.15 -130.106 1006.353 -130.088 L 1006.353 -115.366 L 996.718 -115.366 L 993.903 -123.701 C 993.774 -123.924 993.61 -124.125 993.417 -124.294 C 993.057 -124.623 992.553 -124.934 991.907 -125.231 C 991.709 -125.322 991.508 -125.407 991.305 -125.487 C 990.416 -125.833 989.488 -126.067 988.541 -126.182 C 987.915 -126.261 987.282 -126.3 986.65 -126.299 C 985.79 -126.304 984.93 -126.237 984.081 -126.097 C 982.518 -125.832 981.209 -125.303 980.155 -124.513 C 979.402 -123.965 978.789 -123.247 978.369 -122.415 C 977.971 -121.613 977.773 -120.706 977.773 -119.696 C 977.761 -118.79 977.924 -117.889 978.251 -117.044 C 978.69 -115.942 979.433 -115.003 980.48 -114.229 C 981.055 -113.809 981.649 -113.414 982.259 -113.047 C 983.994 -111.992 986.288 -110.817 989.14 -109.52 L 991.413 -108.546 C 995.621 -106.78 999.174 -104.91 1002.073 -102.939 C 1003.146 -102.214 1004.177 -101.43 1005.162 -100.589 C 1007.879 -98.261 1009.603 -94.982 1009.98 -91.424 C 1010.09 -90.568 1010.144 -89.706 1010.142 -88.843 C 1010.142 -83.503 1008.012 -79.119 1003.754 -75.69 C 1001.821 -74.17 999.63 -73.011 997.286 -72.266 C 993.838 -71.121 989.716 -70.548 984.918 -70.548 C 983.326 -70.545 981.734 -70.603 980.146 -70.724 C 978.207 -70.875 976.406 -71.123 974.742 -71.468 C 971.784 -72.082 968.536 -72.894 964.999 -73.904 L 961.427 -74.878 L 961.427 -89.276 L 971.711 -89.276 Z" style=""/>
    <path id="19" d="M 1028.87 -89.276 L 1031.576 -80.724 C 1031.985 -80.081 1032.832 -79.486 1034.117 -78.937 C 1034.438 -78.8 1034.764 -78.675 1035.094 -78.559 C 1036.935 -77.91 1038.793 -77.585 1040.669 -77.585 C 1041.523 -77.58 1042.377 -77.641 1043.222 -77.767 C 1044.091 -77.902 1044.877 -78.113 1045.58 -78.398 C 1046.249 -78.664 1046.875 -79.029 1047.435 -79.479 C 1048.22 -80.1 1048.844 -80.9 1049.252 -81.812 C 1049.6 -82.632 1049.775 -83.515 1049.763 -84.405 C 1049.775 -86.196 1048.992 -87.9 1047.625 -89.058 C 1047.342 -89.311 1047.043 -89.547 1046.732 -89.763 C 1044.71 -91.171 1041.391 -92.884 1036.772 -94.906 L 1032.659 -96.746 C 1031.003 -97.474 1029.405 -98.325 1027.876 -99.29 C 1026.248 -100.329 1024.833 -101.451 1023.632 -102.653 C 1023.089 -103.197 1022.578 -103.773 1022.104 -104.378 C 1020.572 -106.361 1019.523 -108.674 1019.04 -111.133 C 1018.728 -112.669 1018.576 -114.232 1018.585 -115.799 C 1018.585 -119.119 1019.56 -122.096 1021.508 -124.73 C 1022.719 -126.344 1024.203 -127.732 1025.895 -128.83 C 1027.175 -129.668 1028.534 -130.379 1029.952 -130.954 C 1031.999 -131.784 1034.135 -132.376 1036.316 -132.72 C 1038.381 -133.059 1040.589 -133.228 1042.943 -133.228 C 1044.273 -133.23 1045.604 -133.194 1046.932 -133.12 C 1048.191 -133.048 1049.371 -132.941 1050.473 -132.797 C 1050.959 -132.734 1051.444 -132.66 1051.928 -132.578 C 1054.453 -132.145 1057.016 -131.604 1059.614 -130.954 C 1060.982 -130.555 1062.08 -130.291 1062.907 -130.162 C 1063.107 -130.131 1063.309 -130.106 1063.511 -130.088 L 1063.511 -115.366 L 1053.876 -115.366 L 1051.062 -123.701 C 1050.933 -123.924 1050.768 -124.125 1050.576 -124.294 C 1050.215 -124.623 1049.712 -124.934 1049.066 -125.231 C 1048.867 -125.322 1048.666 -125.407 1048.464 -125.487 C 1047.575 -125.833 1046.646 -126.067 1045.7 -126.182 C 1045.073 -126.261 1044.441 -126.3 1043.809 -126.299 C 1042.948 -126.304 1042.089 -126.237 1041.24 -126.097 C 1039.677 -125.832 1038.368 -125.303 1037.313 -124.513 C 1036.56 -123.965 1035.947 -123.247 1035.527 -122.415 C 1035.13 -121.613 1034.932 -120.706 1034.932 -119.696 C 1034.92 -118.79 1035.082 -117.889 1035.409 -117.044 C 1035.849 -115.942 1036.591 -115.003 1037.638 -114.229 C 1038.213 -113.809 1038.807 -113.414 1039.418 -113.047 C 1041.152 -111.992 1043.446 -110.817 1046.299 -109.52 L 1048.572 -108.546 C 1052.78 -106.78 1056.333 -104.91 1059.232 -102.939 C 1060.305 -102.214 1061.335 -101.43 1062.32 -100.589 C 1065.037 -98.261 1066.762 -94.982 1067.139 -91.424 C 1067.248 -90.568 1067.302 -89.706 1067.3 -88.843 C 1067.3 -83.503 1065.171 -79.119 1060.913 -75.69 C 1058.98 -74.17 1056.788 -73.011 1054.445 -72.266 C 1050.997 -71.121 1046.875 -70.548 1042.077 -70.548 C 1040.484 -70.545 1038.893 -70.603 1037.305 -70.724 C 1035.366 -70.875 1033.565 -71.123 1031.901 -71.468 C 1028.942 -72.082 1025.694 -72.894 1022.158 -73.904 L 1018.585 -74.878 L 1018.585 -89.276 L 1028.87 -89.276 Z" style=""/>
    <path id="21" d="M 710.056 48.053 L 710.056 -21.006 L 700.326 -22.667 L 700.326 -30.973 L 740.314 -30.973 L 740.314 -22.667 L 730.346 -21.006 L 730.346 48.172 L 740.314 49.477 L 740.314 57.19 L 700.445 57.19 L 700.445 49.358 L 710.056 48.053 Z" style=""/>
    <path id="22" d="M 756.689 48.29 L 756.689 3.675 L 749.688 1.539 L 749.688 -7.716 L 771.283 -10.327 L 771.639 -10.327 L 774.725 -7.835 L 774.725 -3.445 L 774.606 -0.715 C 776.202 -2.205 777.951 -3.522 779.822 -4.643 C 781.538 -5.675 783.324 -6.583 785.166 -7.36 C 789.438 -9.181 793.908 -10.089 798.575 -10.089 C 800.028 -10.097 801.481 -10.004 802.921 -9.814 C 805.666 -9.439 807.955 -8.681 809.788 -7.538 C 811.609 -6.387 813.115 -4.801 814.17 -2.921 C 814.807 -1.808 815.327 -0.631 815.721 0.59 C 816.174 1.995 816.523 3.432 816.765 4.888 C 817.287 7.89 817.553 11.454 817.56 15.581 C 817.561 15.646 817.561 15.712 817.56 15.778 L 817.56 48.29 L 824.205 49.24 L 824.205 57.19 L 791.93 57.19 L 791.93 49.358 L 797.744 48.29 L 797.744 15.897 C 797.744 12.401 797.527 9.627 797.09 7.573 C 797.055 7.4 797.016 7.227 796.973 7.057 C 796.816 6.399 796.6 5.757 796.327 5.139 C 796.018 4.446 795.646 3.847 795.212 3.343 C 794.942 3.025 794.637 2.739 794.303 2.488 C 793.729 2.067 793.088 1.747 792.406 1.54 C 791.827 1.357 791.186 1.227 790.482 1.15 C 789.939 1.09 789.392 1.062 788.845 1.064 C 787.319 1.082 785.806 1.344 784.363 1.843 C 783.065 2.272 781.718 2.881 780.32 3.669 C 778.999 4.421 777.724 5.255 776.504 6.167 L 776.504 48.29 L 783.031 49.358 L 783.031 57.19 L 750.162 57.19 L 750.162 49.358 L 756.689 48.29 Z" style=""/>
    <path id="23" d="M 873.685 -9.615 L 873.685 -28.481 L 862.294 -30.143 L 862.294 -37.737 L 888.518 -40.11 L 889.111 -40.11 L 892.671 -37.262 L 892.671 49.24 L 898.841 49.24 L 898.841 56.834 C 896.877 57.219 894.904 57.556 892.923 57.847 C 891.047 58.119 889.296 58.318 887.668 58.445 C 886.333 58.553 884.993 58.609 883.653 58.614 C 882.97 58.616 882.289 58.584 881.609 58.517 C 880.22 58.375 879.097 58.075 878.243 57.617 C 878.04 57.508 877.845 57.385 877.66 57.249 C 877.129 56.841 876.712 56.3 876.452 55.681 C 876.032 54.736 875.821 53.498 875.821 51.969 L 875.821 49.002 C 874.584 50.786 873.051 52.345 871.288 53.614 C 870.135 54.452 868.913 55.191 867.634 55.825 C 864.074 57.605 860.396 58.495 856.599 58.495 C 849.004 58.495 842.834 55.766 838.088 50.307 C 833.342 44.849 830.968 36.662 830.968 25.745 C 830.938 21.12 831.684 16.522 833.177 12.145 C 833.709 10.608 834.34 9.106 835.062 7.65 C 837.791 2.151 841.826 -2.239 847.165 -5.521 C 852.505 -8.804 858.972 -10.445 866.566 -10.445 C 868.418 -10.441 870.266 -10.27 872.087 -9.938 C 872.622 -9.843 873.156 -9.735 873.685 -9.615 Z M 873.685 43.188 L 873.685 0.234 C 873.471 -0.037 873.217 -0.274 872.933 -0.472 C 872.423 -0.84 871.758 -1.166 870.937 -1.452 C 870.846 -1.486 870.753 -1.516 870.66 -1.546 C 869.367 -1.96 868.024 -2.195 866.668 -2.244 C 866.437 -2.253 866.205 -2.258 865.973 -2.258 C 862.494 -2.313 859.179 -0.77 856.981 1.928 C 856.403 2.606 855.878 3.33 855.412 4.09 C 852.802 8.322 851.496 15.224 851.496 24.796 C 851.489 26.84 851.577 28.884 851.759 30.921 C 852.138 34.99 852.928 38.305 854.128 40.866 C 854.338 41.314 854.568 41.752 854.819 42.179 C 855.439 43.257 856.201 44.246 857.084 45.122 C 858.841 46.878 861.235 47.85 863.718 47.816 C 865.933 47.816 867.891 47.36 869.592 46.451 C 871.293 45.541 872.658 44.453 873.685 43.188 Z" style=""/>
    <path id="24" d="M 913.91 48.29 L 913.91 3.675 L 905.96 1.42 L 905.96 -7.479 L 929.692 -10.327 L 929.929 -10.327 L 933.608 -7.835 L 933.608 48.29 L 940.727 49.358 L 940.727 57.19 L 906.554 57.19 L 906.554 49.358 L 913.91 48.29 Z M 921.267 -18.989 L 921.149 -18.989 C 920.022 -18.979 918.899 -19.119 917.808 -19.404 C 916.256 -19.811 914.832 -20.608 913.673 -21.718 C 911.939 -23.37 910.924 -25.636 910.844 -28.028 C 910.832 -28.258 910.825 -28.489 910.825 -28.719 C 910.813 -30.036 911.002 -31.347 911.385 -32.606 C 911.89 -34.227 912.776 -35.702 913.97 -36.906 C 915.502 -38.455 917.478 -39.486 919.624 -39.856 C 920.558 -40.03 921.506 -40.115 922.454 -40.11 C 923.528 -40.117 924.599 -40.021 925.654 -39.823 C 927.696 -39.424 929.358 -38.61 930.641 -37.381 C 932.376 -35.73 933.392 -33.464 933.47 -31.071 C 933.483 -30.842 933.49 -30.61 933.489 -30.38 C 933.501 -29.11 933.33 -27.845 932.98 -26.624 C 932.485 -24.921 931.557 -23.372 930.285 -22.133 C 928.287 -20.171 925.526 -19.128 922.002 -19.002 C 921.757 -18.994 921.513 -18.989 921.267 -18.989 Z" style=""/>
    <path id="25" d="M 985.817 16.49 L 985.817 14.117 C 985.817 11.271 985.502 9.018 984.869 7.357 C 984.869 7.356 984.869 7.354 984.868 7.353 C 984.235 5.692 983.088 4.446 981.427 3.616 C 980.823 3.321 980.189 3.092 979.537 2.932 C 978.278 2.609 976.755 2.427 974.968 2.381 C 974.669 2.373 974.37 2.37 974.07 2.37 C 970.195 2.37 966.733 2.824 963.687 3.734 C 961.701 4.332 959.742 5.017 957.815 5.788 C 956.577 6.281 955.351 6.803 954.135 7.353 L 950.101 -1.19 C 950.506 -1.515 950.925 -1.821 951.356 -2.109 C 952.587 -2.937 954.226 -3.877 956.271 -4.928 C 959.119 -6.392 962.541 -7.657 966.535 -8.725 C 970.53 -9.793 974.704 -10.327 979.054 -10.327 C 980.901 -10.333 982.747 -10.252 984.587 -10.084 C 988.352 -9.726 991.471 -8.976 993.945 -7.835 C 997.545 -6.174 1000.115 -3.604 1001.658 -0.122 C 1002.25 1.244 1002.708 2.665 1003.023 4.121 C 1003.656 6.933 1003.972 10.265 1003.972 14.117 L 1003.972 49.358 L 1010.142 49.358 L 1010.142 56.834 C 1009.507 56.97 1008.869 57.094 1008.228 57.205 C 1006.89 57.438 1005.303 57.671 1003.469 57.906 C 1003.163 57.944 1002.855 57.982 1002.548 58.02 C 1001.402 58.161 1000.252 58.281 999.1 58.382 C 997.296 58.536 995.676 58.614 994.242 58.614 C 991.236 58.614 989.239 58.178 988.25 57.308 C 987.889 56.977 987.604 56.571 987.413 56.121 C 987.078 55.369 986.873 54.39 986.798 53.183 C 986.777 52.817 986.766 52.453 986.766 52.087 L 986.766 49.358 C 985.657 50.675 984.41 51.87 983.045 52.923 C 981.784 53.908 980.374 54.835 978.816 55.706 C 976.353 57.066 973.65 57.938 970.856 58.274 C 969.678 58.422 968.493 58.497 967.306 58.495 C 964.917 58.511 962.54 58.141 960.268 57.397 C 959.197 57.039 958.158 56.593 957.161 56.062 C 954.116 54.44 951.703 52.106 949.923 49.062 C 948.757 47.034 947.969 44.811 947.599 42.502 C 947.364 41.082 947.249 39.644 947.253 38.204 C 947.253 31.243 950.794 25.903 957.873 22.186 C 960.964 20.594 964.232 19.376 967.608 18.556 C 972.891 17.226 978.96 16.537 985.817 16.49 Z M 985.817 43.307 L 985.817 24.44 C 984.206 24.433 982.594 24.521 980.991 24.703 C 977.547 25.11 974.787 25.991 972.71 27.346 C 972.507 27.478 972.308 27.616 972.112 27.762 C 971.022 28.556 970.076 29.533 969.315 30.648 C 968.207 32.324 967.63 34.296 967.662 36.306 C 967.662 38.819 968.058 40.938 968.845 42.664 C 969.161 43.359 969.561 44.014 970.036 44.612 C 971.619 46.589 973.794 47.578 976.562 47.578 C 977.248 47.574 977.93 47.487 978.594 47.323 C 979.211 47.175 979.852 46.962 980.517 46.686 C 980.784 46.574 981.048 46.457 981.308 46.332 C 982.407 45.813 983.451 45.189 984.428 44.467 C 984.913 44.106 985.377 43.718 985.817 43.307 Z" style=""/>
  </g>
  <g transform="matrix(0.341607004404068, 0, 0, 0.341607004404068, 42.511802673339844, 242.28265380859375)" style="stroke: rgb(0, 0, 0); stroke-width: 0.1; fill: rgb(217, 201, 109);" fill="#d9c96d" stroke-width="0.1" stroke="#000" font-size="9pt" fill-rule="evenodd" stroke-linecap="round" id="g-1">
    <path id="path-1" d="M 6.2 51.8 L 6.2 16.1 L 0 14.7 L 0 7.7 L 32.3 7.7 L 32.3 14.7 L 23.9 16.2 L 23.9 53.2 A 48.168 48.168 0 0 0 24.499 61.166 Q 26.882 75.302 38.751 75.783 A 20.942 20.942 0 0 0 39.6 75.8 A 16.054 16.054 0 0 0 44.272 75.16 A 11.744 11.744 0 0 0 51.05 69.85 A 21.766 21.766 0 0 0 53.409 64.28 Q 54.7 59.645 54.7 53.4 L 54.7 16.1 L 46.1 14.7 L 46.1 7.7 L 72.1 7.7 L 72.1 14.7 L 65.5 16.1 L 65.5 52.5 Q 65.5 62.392 62.424 68.966 A 21.537 21.537 0 0 1 57.85 75.45 A 25.556 25.556 0 0 1 45.55 81.912 A 37.978 37.978 0 0 1 37.1 82.8 A 50.936 50.936 0 0 1 28.379 82.104 Q 19.254 80.515 13.9 75.3 A 22.844 22.844 0 0 1 8.438 66.58 Q 7.109 62.926 6.569 58.4 A 55.814 55.814 0 0 1 6.2 51.8 Z"/>
    <path id="path-2" d="M 82.7 74.5 L 82.7 36.9 L 76.8 35.1 L 76.8 27.3 L 95 25.1 L 95.3 25.1 L 97.9 27.2 L 97.9 30.9 L 97.8 33.2 A 26.133 26.133 0 0 1 102.196 29.89 A 35.492 35.492 0 0 1 106.7 27.6 Q 112.1 25.3 118 25.3 A 27.119 27.119 0 0 1 121.663 25.532 Q 125.132 26.006 127.45 27.45 A 10.949 10.949 0 0 1 131.143 31.341 A 15.674 15.674 0 0 1 132.45 34.3 A 25.577 25.577 0 0 1 133.33 37.922 Q 133.99 41.717 134 46.934 A 84.038 84.038 0 0 1 134 47.1 L 134 74.5 L 139.6 75.3 L 139.6 82 L 112.4 82 L 112.4 75.4 L 117.3 74.5 L 117.3 47.2 Q 117.3 42.782 116.749 40.185 A 14.156 14.156 0 0 0 116.65 39.75 A 9.468 9.468 0 0 0 116.106 38.134 Q 115.714 37.258 115.166 36.62 A 4.826 4.826 0 0 0 114.4 35.9 A 5.315 5.315 0 0 0 112.801 35.101 Q 112.069 34.87 111.18 34.772 A 12.632 12.632 0 0 0 109.8 34.7 A 12.005 12.005 0 0 0 106.023 35.356 Q 104.382 35.9 102.616 36.895 A 30.786 30.786 0 0 0 99.4 39 L 99.4 74.5 L 104.9 75.4 L 104.9 82 L 77.2 82 L 77.2 75.4 L 82.7 74.5 Z"/>
    <path id="path-3" d="M 152.3 74.5 L 152.3 36.9 L 145.6 35 L 145.6 27.5 L 165.6 25.1 L 165.8 25.1 L 168.9 27.2 L 168.9 74.5 L 174.9 75.4 L 174.9 82 L 146.1 82 L 146.1 75.4 L 152.3 74.5 Z M 158.5 17.8 L 158.4 17.8 A 10.747 10.747 0 0 1 155.585 17.45 A 7.953 7.953 0 0 1 152.1 15.5 A 7.69 7.69 0 0 1 149.716 10.182 A 10.341 10.341 0 0 1 149.7 9.6 A 10.908 10.908 0 0 1 150.172 6.324 A 8.911 8.911 0 0 1 152.35 2.7 A 8.811 8.811 0 0 1 157.115 0.214 A 12.717 12.717 0 0 1 159.5 0 A 14.089 14.089 0 0 1 162.197 0.242 Q 164.778 0.746 166.4 2.3 A 7.69 7.69 0 0 1 168.784 7.618 A 10.341 10.341 0 0 1 168.8 8.2 A 11.134 11.134 0 0 1 168.371 11.365 A 8.653 8.653 0 0 1 166.1 15.15 Q 163.573 17.631 159.119 17.789 A 17.358 17.358 0 0 1 158.5 17.8 Z"/>
    <path id="path-4" d="M 185.8 70.4 L 185.8 34.8 L 179.7 34.8 L 179.7 29 L 181.7 28.2 Q 183.941 27.453 185.658 26.619 A 23.196 23.196 0 0 0 185.9 26.5 A 12.026 12.026 0 0 0 187.991 23.824 A 16.183 16.183 0 0 0 189.1 21.5 A 49.819 49.819 0 0 0 190.067 18.967 Q 191.163 15.869 192.4 11.4 L 201.7 11.4 L 202.3 26.4 L 216.6 26.4 L 216.6 34.8 L 202.5 34.8 L 202.5 61.3 A 159.44 159.44 0 0 0 202.519 63.84 Q 202.574 67.271 202.79 68.926 A 13.741 13.741 0 0 0 202.8 69 A 10.206 10.206 0 0 0 202.978 69.975 Q 203.306 71.358 203.95 71.85 A 2.32 2.32 0 0 0 204.582 72.179 Q 205.237 72.412 206.269 72.476 A 13.5 13.5 0 0 0 207.1 72.5 Q 211.8 72.5 216 70.9 L 218.1 77.2 A 15.618 15.618 0 0 1 215.739 78.776 Q 214.531 79.444 213.046 80.05 A 39.366 39.366 0 0 1 209.8 81.2 Q 204.3 82.9 198.7 82.9 A 22.675 22.675 0 0 1 195.129 82.639 Q 193.277 82.342 191.803 81.711 A 9.335 9.335 0 0 1 188.95 79.85 Q 186.431 77.411 185.926 72.831 A 22.217 22.217 0 0 1 185.8 70.4 Z"/>
    <path id="path-5" d="M 228.7 74.5 L 228.7 36.9 L 222 35 L 222 27.5 L 242 25.1 L 242.2 25.1 L 245.3 27.2 L 245.3 74.5 L 251.3 75.4 L 251.3 82 L 222.5 82 L 222.5 75.4 L 228.7 74.5 Z M 234.9 17.8 L 234.8 17.8 A 10.747 10.747 0 0 1 231.985 17.45 A 7.953 7.953 0 0 1 228.5 15.5 A 7.69 7.69 0 0 1 226.116 10.182 A 10.341 10.341 0 0 1 226.1 9.6 A 10.908 10.908 0 0 1 226.572 6.324 A 8.911 8.911 0 0 1 228.75 2.7 A 8.811 8.811 0 0 1 233.515 0.214 A 12.717 12.717 0 0 1 235.9 0 A 14.089 14.089 0 0 1 238.597 0.242 Q 241.178 0.746 242.8 2.3 A 7.69 7.69 0 0 1 245.184 7.618 A 10.341 10.341 0 0 1 245.2 8.2 A 11.134 11.134 0 0 1 244.771 11.365 A 8.653 8.653 0 0 1 242.5 15.15 Q 239.973 17.631 235.519 17.789 A 17.358 17.358 0 0 1 234.9 17.8 Z"/>
    <path id="path-6" d="M 263.8 74.5 L 263.8 36.9 L 257.9 35.1 L 257.9 27.3 L 276.1 25.1 L 276.4 25.1 L 279 27.2 L 279 30.9 L 278.9 33.2 A 26.133 26.133 0 0 1 283.296 29.89 A 35.492 35.492 0 0 1 287.8 27.6 Q 293.2 25.3 299.1 25.3 A 27.119 27.119 0 0 1 302.763 25.532 Q 306.232 26.006 308.55 27.45 A 10.949 10.949 0 0 1 312.243 31.341 A 15.674 15.674 0 0 1 313.55 34.3 A 25.577 25.577 0 0 1 314.43 37.922 Q 315.09 41.717 315.1 46.934 A 84.038 84.038 0 0 1 315.1 47.1 L 315.1 74.5 L 320.7 75.3 L 320.7 82 L 293.5 82 L 293.5 75.4 L 298.4 74.5 L 298.4 47.2 Q 298.4 42.782 297.849 40.185 A 14.156 14.156 0 0 0 297.75 39.75 A 9.468 9.468 0 0 0 297.206 38.134 Q 296.814 37.258 296.266 36.62 A 4.826 4.826 0 0 0 295.5 35.9 A 5.315 5.315 0 0 0 293.901 35.101 Q 293.169 34.87 292.28 34.772 A 12.632 12.632 0 0 0 290.9 34.7 A 12.005 12.005 0 0 0 287.123 35.356 Q 285.482 35.9 283.716 36.895 A 30.786 30.786 0 0 0 280.5 39 L 280.5 74.5 L 286 75.4 L 286 82 L 258.3 82 L 258.3 75.4 L 263.8 74.5 Z"/>
    <path id="path-7" d="M 382 24.8 L 385.6 24.8 L 385.6 37 L 375.7 37 Q 376.7 39.8 376.7 42.7 A 20.96 20.96 0 0 1 375.668 49.428 A 17.248 17.248 0 0 1 370.2 57.3 A 21.347 21.347 0 0 1 362.898 61.176 Q 359.77 62.165 355.991 62.512 A 46.913 46.913 0 0 1 351.7 62.7 A 56.568 56.568 0 0 1 348.398 62.61 Q 345.65 62.449 343.6 62 Q 343 63.2 342.65 64.5 A 14.174 14.174 0 0 0 342.465 65.264 Q 342.315 65.981 342.301 66.502 A 3.869 3.869 0 0 0 342.3 66.6 A 6.468 6.468 0 0 0 342.482 68.19 A 3.908 3.908 0 0 0 344.6 70.85 Q 346.346 71.723 350.281 71.934 A 51.18 51.18 0 0 0 353 72 L 363.3 72 A 43.416 43.416 0 0 1 370.87 72.6 Q 384.096 74.954 384.393 86.562 A 21.04 21.04 0 0 1 384.4 87.1 Q 384.4 93.7 379.8 98.7 A 27.158 27.158 0 0 1 372.535 104.251 A 35.08 35.08 0 0 1 367.75 106.35 Q 360.3 109 352 109 Q 340.278 109 334.076 105.898 A 16.092 16.092 0 0 1 332.05 104.7 A 15.207 15.207 0 0 1 328.184 100.898 Q 325.936 97.64 325.901 93.337 A 16.761 16.761 0 0 1 325.9 93.2 Q 325.9 89.2 328.6 85.6 Q 331.3 82 335.4 80.2 A 8.822 8.822 0 0 1 330.896 73.875 A 12.643 12.643 0 0 1 330.7 71.6 A 9.769 9.769 0 0 1 331.74 67.271 A 13.168 13.168 0 0 1 332.9 65.35 A 13.757 13.757 0 0 1 338.231 60.959 A 16.492 16.492 0 0 1 338.8 60.7 Q 329.863 57.399 328.121 48.393 A 24.722 24.722 0 0 1 327.7 43.7 Q 327.7 38 331.1 33.75 A 20.144 20.144 0 0 1 337.227 28.674 A 25.694 25.694 0 0 1 340.3 27.25 A 33.37 33.37 0 0 1 349.257 25.178 A 40.629 40.629 0 0 1 353.1 25 Q 365.6 25 371.4 29.6 A 9.259 9.259 0 0 1 372.675 28.346 Q 373.925 27.319 375.8 26.35 A 13.495 13.495 0 0 1 381.005 24.838 A 13.053 13.053 0 0 1 382 24.8 Z M 357.7 82.7 L 347.5 82.7 Q 345.9 82.7 343.9 82.5 A 12.358 12.358 0 0 0 342.39 86.34 Q 342.049 87.894 342.006 89.684 A 21.667 21.667 0 0 0 342 90.2 A 15.412 15.412 0 0 0 342.611 94.741 Q 344.15 99.731 349.57 101.037 A 18.529 18.529 0 0 0 353.9 101.5 A 17.398 17.398 0 0 0 358.705 100.863 A 14.166 14.166 0 0 0 363.3 98.6 A 9.35 9.35 0 0 0 367.131 91.766 A 13.201 13.201 0 0 0 367.2 90.4 Q 367.2 87.941 366.48 86.321 A 5.069 5.069 0 0 0 365.1 84.45 Q 363 82.7 357.7 82.7 Z M 352.7 55.9 A 8.752 8.752 0 0 0 355.096 55.593 A 6.003 6.003 0 0 0 358.75 52.75 A 11.359 11.359 0 0 0 359.859 50.066 Q 360.588 47.475 360.6 43.817 A 37.387 37.387 0 0 0 360.6 43.7 A 34.215 34.215 0 0 0 360.458 40.462 Q 360.152 37.26 359.189 35.27 A 7.715 7.715 0 0 0 358.7 34.4 A 6.18 6.18 0 0 0 354.556 31.682 A 9.975 9.975 0 0 0 352.6 31.5 A 8.524 8.524 0 0 0 348.539 32.408 Q 345.009 34.289 344.286 40.067 A 26.133 26.133 0 0 0 344.1 43.3 Q 344.1 55.526 352.196 55.889 A 11.233 11.233 0 0 0 352.7 55.9 Z"/>
    <path id="path-8" d="M 7.7 183.4 L 7.7 125.1 L 0.2 123.7 L 0.2 116.7 L 34.3 116.7 L 34.3 123.7 L 24.8 125.1 L 24.8 183.2 L 43.6 182.2 L 50.1 162.4 L 59.5 163.6 L 56.6 191 L 0 191 L 0 184.4 L 7.7 183.4 Z"/>
    <path id="path-9" d="M 70.9 183.5 L 70.9 145.9 L 64.2 144 L 64.2 136.5 L 84.2 134.1 L 84.4 134.1 L 87.5 136.2 L 87.5 183.5 L 93.5 184.4 L 93.5 191 L 64.7 191 L 64.7 184.4 L 70.9 183.5 Z M 77.1 126.8 L 77 126.8 C 76.05 126.809 75.104 126.691 74.185 126.45 C 72.876 126.107 71.677 125.436 70.7 124.5 C 69.238 123.109 68.382 121.199 68.316 119.182 C 68.305 118.989 68.3 118.794 68.3 118.6 C 68.29 117.491 68.449 116.386 68.772 115.324 C 69.197 113.959 69.944 112.716 70.95 111.7 C 72.241 110.396 73.907 109.527 75.715 109.214 C 76.502 109.068 77.3 108.996 78.1 109 C 79.005 108.994 79.908 109.075 80.797 109.242 C 82.518 109.578 83.919 110.264 85 111.3 C 86.462 112.692 87.318 114.602 87.384 116.618 C 87.395 116.812 87.4 117.006 87.4 117.2 C 87.41 118.27 87.265 119.336 86.971 120.365 C 86.554 121.802 85.771 123.106 84.7 124.15 C 83.015 125.804 80.688 126.684 77.719 126.789 C 77.513 126.797 77.306 126.8 77.1 126.8 Z"/>
    <path id="path-10" d="M 95.3 141.8 L 95.3 135.4 L 123.7 135.4 L 123.7 141.8 L 117.4 143 L 125.8 169.4 L 128.4 178.5 L 130.5 169.5 L 138.8 143 L 132.7 141.8 L 132.7 135.4 L 155.8 135.4 L 155.8 141.8 L 150.6 143 L 132.4 191.8 L 119 191.8 L 99.2 143 L 95.3 141.8 Z"/>
    <path id="path-11" d="M 204.9 164.6 L 173.6 164.6 C 173.689 166.252 173.896 167.895 174.22 169.517 C 174.571 171.227 175.053 172.767 175.668 174.137 C 176.207 175.362 176.908 176.51 177.75 177.55 C 179.715 179.955 182.543 181.496 185.629 181.844 C 186.415 181.95 187.207 182.003 188 182 C 189.683 181.994 191.361 181.813 193.007 181.462 C 193.932 181.268 194.847 181.03 195.75 180.75 C 196.703 180.459 197.643 180.13 198.57 179.764 C 199.467 179.406 200.287 179.031 201.029 178.639 C 201.463 178.411 201.887 178.164 202.3 177.9 L 205.1 184 C 203.367 185.934 200.417 187.767 196.25 189.5 C 192.083 191.234 187.833 192.1 183.5 192.1 C 177.145 192.1 171.936 190.85 167.872 188.348 C 166.114 187.27 164.537 185.921 163.2 184.35 C 158.8 179.184 156.6 172.134 156.6 163.2 C 156.587 160.691 156.805 158.186 157.251 155.716 C 157.76 152.858 158.687 150.09 160 147.5 C 162.267 143.1 165.45 139.75 169.55 137.45 C 172.341 135.907 175.386 134.877 178.54 134.409 C 180.347 134.131 182.172 133.995 184 134 C 186.085 133.986 188.168 134.169 190.219 134.544 C 194.258 135.314 197.535 136.899 200.05 139.3 C 203.653 142.741 205.565 147.572 205.786 153.792 C 205.792 153.962 205.797 154.131 205.8 154.3 C 205.8 158.52 205.507 161.924 204.92 164.514 C 204.913 164.543 204.907 164.572 204.9 164.6 Z M 173.5 158 L 189.9 158 L 190 153.8 C 190 149.6 189.433 146.4 188.3 144.2 C 187.327 142.311 185.763 141.233 183.609 140.966 C 183.241 140.922 182.871 140.9 182.5 140.9 C 181.377 140.883 180.265 141.113 179.241 141.574 C 178.156 142.078 177.217 142.863 176.425 143.929 C 176.275 144.131 176.134 144.338 176 144.55 C 174.467 146.984 173.633 151.467 173.5 158 Z"/>
    <path id="path-12" d="M 223.1 174.8 L 225.6 182.7 C 225.978 183.294 226.76 183.845 227.947 184.351 C 228.244 184.477 228.545 184.594 228.85 184.7 C 230.55 185.3 232.267 185.6 234 185.6 C 234.789 185.605 235.577 185.549 236.358 185.432 C 237.161 185.307 237.887 185.113 238.536 184.849 C 239.154 184.604 239.732 184.267 240.25 183.85 C 240.975 183.278 241.551 182.539 241.928 181.695 C 242.25 180.938 242.411 180.123 242.4 179.3 C 242.411 177.646 241.688 176.071 240.425 175.002 C 240.164 174.768 239.888 174.55 239.6 174.35 C 237.733 173.05 234.667 171.467 230.4 169.6 L 226.6 167.9 C 225.071 167.227 223.595 166.442 222.182 165.55 C 220.678 164.59 219.371 163.555 218.262 162.443 C 217.76 161.941 217.288 161.409 216.85 160.85 C 215.435 159.018 214.466 156.882 214.02 154.61 C 213.732 153.192 213.592 151.748 213.6 150.3 C 213.6 147.234 214.5 144.484 216.3 142.05 C 217.418 140.559 218.789 139.277 220.352 138.262 C 221.535 137.489 222.79 136.831 224.1 136.3 C 225.991 135.535 227.964 134.987 229.979 134.669 C 231.886 134.357 233.926 134.2 236.1 134.2 C 237.329 134.198 238.558 134.231 239.785 134.299 C 240.948 134.366 242.038 134.466 243.056 134.598 C 243.505 134.657 243.953 134.724 244.4 134.8 C 246.733 135.2 249.1 135.7 251.5 136.3 C 252.764 136.669 253.778 136.913 254.542 137.032 C 254.727 137.062 254.913 137.084 255.1 137.1 L 255.1 150.7 L 246.2 150.7 L 243.6 143 C 243.481 142.794 243.329 142.609 243.151 142.452 C 242.818 142.15 242.353 141.861 241.756 141.587 C 241.573 141.503 241.387 141.424 241.2 141.35 C 240.379 141.031 239.521 140.816 238.647 140.708 C 238.068 140.635 237.484 140.599 236.9 140.6 C 236.105 140.596 235.311 140.659 234.527 140.787 C 233.083 141.033 231.874 141.52 230.9 142.25 C 230.204 142.756 229.638 143.421 229.25 144.188 C 228.883 144.93 228.7 145.767 228.7 146.7 C 228.689 147.538 228.839 148.369 229.141 149.15 C 229.547 150.168 230.233 151.035 231.2 151.75 C 231.731 152.139 232.28 152.503 232.844 152.842 C 234.446 153.816 236.565 154.902 239.2 156.1 L 241.3 157 C 245.187 158.632 248.469 160.358 251.147 162.179 C 252.138 162.849 253.09 163.574 254 164.35 C 256.51 166.5 258.103 169.529 258.451 172.816 C 258.552 173.607 258.602 174.403 258.6 175.2 C 258.6 180.134 256.633 184.184 252.7 187.35 C 250.914 188.754 248.89 189.825 246.725 190.513 C 243.54 191.571 239.732 192.1 235.3 192.1 C 233.829 192.103 232.359 192.049 230.892 191.938 C 229.101 191.798 227.437 191.569 225.9 191.25 C 223.167 190.684 220.167 189.934 216.9 189 L 213.6 188.1 L 213.6 174.8 L 223.1 174.8 Z"/>
  </g>
</svg>