<svg xmlns="http://www.w3.org/2000/svg" viewBox="29.599999999999998 215.59062404092072 270 93.94350383631715" id="svg2" style="max-height: 500px" width="270" height="93.94350383631715">
  <desc>Source: openclipart.org/detail/209545</desc>
  <defs/>
  <path style="fill: rgb(255, 255, 255);" d="M 35.249 278.837 C 36.415 278.507 37.573 277.85 38.719 276.878 C 38.725 277.24 38.726 277.617 38.725 278.025 C 37.575 278.779 36.411 279.051 35.249 278.837 Z M 38.399 293.75 L 38.06 293.956 C 37.771 293.832 37.483 293.696 37.193 293.548 C 37.45 293.28 37.707 293.031 37.964 292.779 C 38.188 292.681 38.412 292.584 38.634 292.452 C 38.564 292.985 38.486 293.42 38.399 293.75 Z M 35.101 268.806 C 35.946 268.207 36.797 267.826 37.65 267.663 L 37.726 267.663 C 37.775 268.176 37.818 268.701 37.856 269.225 C 36.944 269.443 36.023 269.272 35.101 268.806 Z M 36.87 260.379 C 36.937 261.005 37.01 261.619 37.087 262.241 C 36.841 262.226 36.595 262.187 36.349 262.202 C 35.818 262.117 35.288 262.004 34.757 261.864 C 35.457 261.25 36.162 260.756 36.87 260.379 Z M 38.023 246.589 C 38.016 246.819 38.01 247.048 38.005 247.277 C 37.108 247.452 36.213 247.643 35.318 247.818 C 35.271 247.744 35.225 247.682 35.178 247.596 C 36.121 246.998 37.071 246.749 38.023 246.589 Z M 289.666 232.873 C 285.733 231.789 293.241 230.712 289.673 229.651 C 298.876 228.571 289.338 227.498 289.68 226.441 C 285.716 225.353 284.949 224.268 289.687 223.207 C 289.664 223.145 289.658 223.087 289.657 223.032 L 279.358 223.032 L 279.358 221.649 C 279.298 222.115 279.241 222.628 279.183 223.032 L 270.566 223.032 C 270.501 223.168 270.436 223.308 270.372 223.46 C 270.094 223.355 269.814 223.351 269.535 223.456 C 269.221 223.308 268.904 223.297 268.588 223.429 C 268.274 223.277 267.957 223.266 267.641 223.398 C 267.328 223.246 267.012 223.238 266.698 223.367 C 266.383 223.211 266.064 223.199 265.746 223.332 C 265.432 223.18 265.115 223.172 264.799 223.301 C 264.484 223.149 264.167 223.141 263.851 223.273 C 263.536 223.122 263.219 223.11 262.903 223.242 C 262.589 223.091 262.271 223.079 261.956 223.211 C 261.642 223.06 261.324 223.048 261.009 223.18 C 260.695 223.028 260.377 223.021 260.062 223.149 C 259.749 223.001 259.434 222.99 259.12 223.118 C 258.804 222.962 258.485 222.955 258.167 223.087 C 257.853 222.935 257.536 222.924 257.22 223.056 C 256.906 222.904 256.589 222.892 256.273 223.025 C 255.959 222.873 255.642 222.865 255.326 222.993 C 255.011 222.842 254.694 222.834 254.378 222.966 C 254.063 222.815 253.746 222.803 253.43 222.935 C 253.118 222.787 252.802 222.776 252.488 222.9 C 252.171 222.745 251.852 222.737 251.535 222.869 C 251.221 222.718 250.903 222.706 250.588 222.838 C 250.273 222.686 249.955 222.679 249.64 222.807 C 249.326 222.659 249.008 222.648 248.693 222.78 C 248.379 222.628 248.062 222.616 247.746 222.749 C 247.432 222.597 247.115 222.585 246.799 222.718 C 246.485 222.566 246.168 222.554 245.852 222.686 C 245.54 222.539 245.224 222.527 244.91 222.655 C 244.593 222.5 244.274 222.492 243.957 222.624 C 243.642 222.473 243.324 222.461 243.009 222.593 C 242.695 222.442 242.377 222.43 242.062 222.562 C 241.747 222.41 241.429 222.399 241.114 222.531 C 240.8 222.379 240.482 222.372 240.166 222.5 C 239.853 222.348 239.535 222.341 239.219 222.473 C 238.905 222.321 238.588 222.309 238.272 222.442 C 237.96 222.294 237.644 222.282 237.33 222.407 C 237.015 222.255 236.695 222.243 236.378 222.375 C 236.064 222.224 235.747 222.216 235.431 222.344 C 235.117 222.193 234.799 222.185 234.484 222.317 C 234.169 222.166 233.851 222.154 233.536 222.286 C 233.221 222.135 232.903 222.123 232.588 222.255 C 232.274 222.103 231.956 222.092 231.641 222.224 C 231.327 222.072 231.009 222.061 230.693 222.193 C 230.381 222.045 230.065 222.033 229.752 222.162 C 229.435 222.006 229.116 221.998 228.798 222.131 C 228.484 221.979 228.167 221.967 227.851 222.1 C 227.537 221.948 227.22 221.936 226.904 222.068 C 226.59 221.917 226.273 221.905 225.957 222.037 C 225.643 221.886 225.325 221.878 225.01 222.006 C 224.696 221.855 224.378 221.847 224.063 221.979 C 223.75 221.827 223.434 221.816 223.12 221.944 C 222.803 221.789 222.484 221.781 222.167 221.913 C 221.853 221.761 221.535 221.75 221.219 221.882 C 220.905 221.73 220.588 221.723 220.272 221.851 C 219.958 221.699 219.641 221.691 219.325 221.824 C 219.011 221.672 218.694 221.66 218.378 221.792 C 218.064 221.641 217.747 221.629 217.431 221.761 C 217.117 221.61 216.799 221.598 216.484 221.73 C 216.171 221.583 215.855 221.571 215.541 221.699 C 215.225 221.544 214.906 221.536 214.589 221.668 C 214.274 221.517 213.956 221.505 213.641 221.637 C 213.326 221.485 213.008 221.474 212.693 221.606 C 212.379 221.454 212.061 221.443 211.745 221.575 C 211.432 221.423 211.114 221.412 210.798 221.544 C 210.484 221.392 210.167 221.384 209.851 221.513 C 209.537 221.365 209.22 221.353 208.904 221.485 C 208.592 221.338 208.276 221.326 207.962 221.45 C 207.647 221.295 207.327 221.287 207.01 221.419 C 206.696 221.268 206.378 221.256 206.063 221.388 C 205.749 221.237 205.431 221.229 205.116 221.357 C 204.802 221.206 204.484 221.198 204.168 221.33 C 203.854 221.178 203.536 221.167 203.22 221.299 C 202.905 221.147 202.587 221.136 202.272 221.268 C 201.959 221.12 201.645 221.108 201.331 221.237 C 201.014 221.085 200.695 221.073 200.377 221.202 C 200.063 221.05 199.746 221.042 199.43 221.175 C 199.116 221.023 198.799 221.011 198.483 221.143 C 198.169 220.992 197.852 220.98 197.536 221.112 C 197.222 220.961 196.904 220.949 196.589 221.081 C 196.275 220.93 195.957 220.922 195.642 221.05 C 195.328 220.899 195.01 220.891 194.694 221.023 C 194.381 220.871 194.066 220.86 193.752 220.988 C 193.435 220.832 193.116 220.825 192.798 220.957 C 192.485 220.805 192.167 220.794 191.851 220.926 C 191.537 220.774 191.22 220.763 190.904 220.895 C 190.589 220.743 190.272 220.735 189.956 220.864 C 189.642 220.716 189.325 220.704 189.009 220.836 C 188.695 220.685 188.378 220.673 188.062 220.805 C 187.748 220.654 187.431 220.642 187.115 220.774 C 186.803 220.626 186.487 220.615 186.173 220.743 C 185.857 220.592 185.538 220.58 185.221 220.708 C 184.907 220.557 184.589 220.549 184.273 220.681 C 183.959 220.529 183.641 220.518 183.325 220.65 C 183.011 220.498 182.693 220.487 182.377 220.619 C 182.063 220.467 181.746 220.455 181.43 220.588 C 181.116 220.436 180.799 220.428 180.483 220.557 C 180.169 220.405 179.852 220.397 179.536 220.529 C 179.223 220.378 178.907 220.366 178.593 220.494 C 178.278 220.339 177.958 220.331 177.642 220.463 C 177.327 220.312 177.009 220.3 176.694 220.432 C 176.38 220.281 176.062 220.273 175.747 220.401 C 175.433 220.249 175.115 220.242 174.799 220.374 C 174.485 220.222 174.167 220.211 173.851 220.343 C 173.537 220.191 173.219 220.18 172.903 220.312 C 172.591 220.16 172.276 220.152 171.962 220.281 C 171.646 220.125 171.327 220.113 171.009 220.246 C 170.695 220.094 170.378 220.086 170.062 220.214 C 169.748 220.067 169.431 220.055 169.115 220.187 C 168.801 220.036 168.483 220.024 168.168 220.156 C 167.853 220.005 167.535 219.993 167.22 220.125 C 166.906 219.974 166.588 219.962 166.273 220.094 C 165.959 219.942 165.641 219.935 165.326 220.063 C 165.013 219.915 164.698 219.904 164.384 220.032 C 164.067 219.876 163.748 219.869 163.43 220.001 C 163.116 219.849 162.799 219.837 162.483 219.97 C 162.169 219.818 161.852 219.806 161.536 219.939 C 161.222 219.787 160.905 219.779 160.589 219.907 C 160.275 219.756 159.958 219.748 159.642 219.88 C 159.327 219.729 159.01 219.717 158.694 219.849 C 158.379 219.698 158.062 219.686 157.746 219.818 C 157.434 219.666 157.119 219.659 156.805 219.787 C 156.488 219.635 156.169 219.624 155.852 219.752 C 155.538 219.6 155.22 219.593 154.904 219.725 C 154.59 219.573 154.273 219.562 153.957 219.694 C 153.643 219.542 153.326 219.53 153.01 219.663 C 152.695 219.511 152.378 219.499 152.062 219.631 C 151.748 219.48 151.431 219.468 151.115 219.6 C 150.803 219.453 150.487 219.441 150.173 219.569 C 149.857 219.414 149.538 219.406 149.221 219.538 C 148.906 219.387 148.588 219.375 148.273 219.507 C 147.959 219.356 147.641 219.344 147.326 219.476 C 147.012 219.324 146.694 219.313 146.378 219.445 C 146.065 219.293 145.747 219.286 145.431 219.414 C 145.117 219.262 144.799 219.254 144.483 219.387 C 144.169 219.235 143.852 219.223 143.536 219.356 C 143.224 219.204 142.908 219.196 142.594 219.324 C 142.278 219.169 141.959 219.157 141.641 219.289 C 141.327 219.138 141.01 219.13 140.694 219.258 C 140.38 219.107 140.063 219.099 139.747 219.231 C 139.432 219.08 139.115 219.068 138.799 219.2 C 138.485 219.048 138.167 219.037 137.852 219.169 C 137.538 219.017 137.22 219.006 136.905 219.138 C 136.591 218.986 136.273 218.979 135.957 219.107 C 135.645 218.959 135.329 218.947 135.016 219.076 C 134.7 218.92 134.381 218.912 134.063 219.045 C 133.748 218.893 133.431 218.881 133.115 219.014 C 132.8 218.862 132.483 218.85 132.167 218.982 C 131.853 218.831 131.536 218.819 131.22 218.951 C 130.906 218.8 130.589 218.792 130.273 218.92 C 129.959 218.773 129.641 218.761 129.326 218.893 C 129.012 218.741 128.694 218.73 128.379 218.862 C 128.066 218.71 127.75 218.703 127.436 218.831 C 127.12 218.675 126.801 218.664 126.483 218.796 C 126.169 218.644 125.852 218.637 125.536 218.765 C 125.222 218.613 124.905 218.605 124.589 218.738 C 124.274 218.586 123.957 218.574 123.641 218.706 C 123.327 218.555 123.01 218.543 122.694 218.675 C 122.38 218.524 122.063 218.512 121.747 218.644 C 121.435 218.497 121.119 218.485 120.805 218.613 C 120.489 218.458 120.17 218.45 119.853 218.582 C 119.538 218.431 119.22 218.419 118.905 218.551 C 118.59 218.399 118.272 218.388 117.957 218.52 C 117.643 218.368 117.325 218.357 117.01 218.489 C 116.696 218.337 116.378 218.329 116.062 218.458 C 115.748 218.306 115.431 218.298 115.115 218.431 C 114.801 218.279 114.484 218.267 114.168 218.399 C 113.855 218.252 113.539 218.24 113.225 218.364 C 112.91 218.209 112.59 218.201 112.273 218.333 C 111.958 218.182 111.641 218.17 111.325 218.302 C 111.011 218.151 110.694 218.143 110.378 218.271 C 110.064 218.123 109.746 218.112 109.431 218.244 C 109.117 218.092 108.799 218.081 108.484 218.213 C 108.169 218.061 107.851 218.05 107.536 218.182 C 107.222 218.03 106.904 218.019 106.588 218.151 C 106.276 218.003 105.961 217.991 105.647 218.12 C 105.328 217.964 105.006 217.956 104.687 218.088 C 104.375 217.941 104.059 217.929 103.746 218.061 C 103.432 217.91 103.115 217.898 102.799 218.03 C 102.482 217.879 102.162 217.867 101.845 218.003 C 101.533 217.855 101.218 217.844 100.905 217.972 C 100.591 217.82 100.273 217.813 99.958 217.945 C 99.641 217.789 99.321 217.781 99.003 217.914 C 98.69 217.766 98.376 217.758 98.062 217.886 C 97.745 217.735 97.425 217.723 97.107 217.859 C 96.795 217.711 96.48 217.7 96.167 217.828 C 95.853 217.677 95.536 217.669 95.22 217.797 C 94.904 217.645 94.584 217.638 94.266 217.77 C 93.954 217.622 93.638 217.61 93.325 217.743 C 93.008 217.587 92.688 217.579 92.371 217.711 C 92.059 217.564 91.744 217.556 91.431 217.684 C 91.117 217.533 90.799 217.521 90.484 217.653 C 90.167 217.502 89.847 217.494 89.53 217.626 C 89.217 217.478 88.902 217.467 88.589 217.599 C 88.272 217.443 87.952 217.436 87.634 217.568 C 87.322 217.42 87.007 217.412 86.693 217.54 C 86.379 217.389 86.062 217.377 85.746 217.509 C 85.43 217.358 85.11 217.35 84.793 217.482 C 84.481 217.334 84.165 217.323 83.852 217.455 C 83.537 217.303 83.22 217.292 82.904 217.424 C 82.587 217.272 82.268 217.261 81.95 217.393 C 81.638 217.245 81.323 217.237 81.01 217.366 C 80.693 217.214 80.373 217.202 80.056 217.338 C 79.743 217.191 79.429 217.179 79.115 217.307 C 78.801 217.156 78.483 217.148 78.167 217.28 C 77.851 217.128 77.532 217.117 77.213 217.249 C 76.901 217.101 76.586 217.094 76.273 217.222 C 75.959 217.07 75.642 217.059 75.326 217.191 C 75.009 217.039 74.689 217.031 74.371 217.163 C 74.059 217.016 73.743 217.004 73.43 217.136 C 73.081 216.965 72.728 216.965 72.379 217.136 C 72.009 216.981 71.637 217.016 71.268 217.237 C 70.953 217.148 70.636 217.195 70.322 217.373 C 70.005 217.284 69.687 217.331 69.371 217.513 C 69.057 217.424 68.741 217.471 68.428 217.649 C 68.113 217.56 67.795 217.607 67.482 217.785 C 67.164 217.7 66.846 217.746 66.53 217.929 C 66.216 217.84 65.9 217.886 65.587 218.065 C 65.272 217.976 64.955 218.022 64.641 218.201 C 64.325 218.112 64.008 218.158 63.693 218.337 C 63.376 218.248 63.058 218.294 62.743 218.477 C 62.429 218.388 62.113 218.434 61.8 218.613 C 61.484 218.524 61.166 218.57 60.852 218.753 C 60.536 218.664 60.218 218.71 59.903 218.893 C 59.589 218.804 59.272 218.85 58.959 219.029 C 58.643 218.94 58.327 218.986 58.012 219.165 C 57.695 219.076 57.377 219.122 57.061 219.305 C 56.747 219.216 56.432 219.262 56.119 219.441 C 55.804 219.352 55.486 219.398 55.172 219.577 C 54.857 219.488 54.539 219.534 54.225 219.717 C 53.909 219.628 53.589 219.674 53.274 219.857 C 52.96 219.768 52.644 219.814 52.331 219.993 C 52.015 219.904 51.699 219.95 51.384 220.129 C 51.067 220.04 50.749 220.086 50.433 220.269 C 50.119 220.18 49.803 220.226 49.49 220.405 C 49.175 220.316 48.858 220.362 48.543 220.541 C 48.227 220.452 47.908 220.498 47.594 220.685 C 47.28 220.595 46.963 220.642 46.65 220.821 C 46.334 220.731 46.018 220.778 45.703 220.957 C 45.388 220.867 45.07 220.914 44.756 221.093 C 44.44 221.003 44.121 221.05 43.805 221.233 C 43.491 221.143 43.175 221.19 42.862 221.369 C 42.647 221.318 42.455 221.408 42.257 221.458 C 42.186 221.101 42.095 220.813 41.989 220.821 C 39.404 220.926 36.888 222.107 34.392 224.696 L 32.342 224.696 C 31.864 224.696 31.864 227.844 32.342 227.844 L 32.866 227.844 C 32.894 228.536 33.016 229.146 33.219 229.134 C 33.304 229.127 33.387 229.103 33.472 229.096 C 33.494 229.756 33.601 230.351 33.804 230.363 C 34.159 230.378 34.513 230.405 34.868 230.433 C 33.651 231.311 32.421 231.952 31.173 232.508 C 30.719 232.706 30.697 235.59 31.173 235.582 C 31.813 235.563 32.453 235.493 33.092 235.365 C 33.106 235.388 33.111 235.45 33.126 235.466 C 33.173 235.516 33.22 235.551 33.267 235.598 C 33.102 236.348 33.194 237.899 33.512 238.074 L 33.599 238.12 C 33.526 238.338 33.481 238.7 33.479 239.092 L 32.635 239.092 C 32.257 239.092 32.176 241.447 32.545 241.898 C 33.558 243.126 34.577 243.947 35.601 244.53 C 35.068 244.798 34.536 245.136 34.007 245.633 C 33.751 245.874 33.696 247.355 33.887 248.039 C 33.47 248.09 33.052 248.167 32.635 248.183 C 32.208 248.199 32.207 251.012 32.635 250.997 C 32.719 250.997 32.803 250.985 32.888 250.981 C 33.516 251.491 34.145 251.883 34.775 252.213 C 34.031 252.486 33.289 252.87 32.548 253.442 C 32.24 253.687 32.236 255.879 32.548 256.1 C 32.976 256.399 33.403 256.64 33.831 256.835 C 33.767 257.511 33.822 258.417 34.014 258.615 C 34.263 258.875 34.51 259.077 34.757 259.256 C 34.117 259.804 33.48 260.473 32.847 261.324 C 32.509 261.775 32.601 263.683 32.927 263.811 C 33.327 263.971 33.728 264.072 34.128 264.196 C 34.146 264.565 34.192 264.9 34.313 265.008 C 34.385 265.071 34.458 265.102 34.532 265.164 C 33.996 265.183 33.46 265.191 32.927 265.195 C 32.551 265.195 32.551 267.671 32.927 267.667 L 33.61 267.667 C 33.552 267.737 33.494 267.776 33.436 267.842 C 33.174 268.153 33.146 269.968 33.436 270.205 C 34.242 270.85 35.053 271.32 35.86 271.565 C 34.994 272.094 34.126 272.58 33.253 273.019 C 32.853 273.034 32.452 273.042 32.05 273.042 C 31.755 273.042 31.722 274.601 31.92 275.129 C 31.647 275.316 31.374 275.491 31.1 275.685 C 30.816 275.891 30.869 277.57 31.1 277.908 C 31.937 279.125 32.781 279.968 33.628 280.505 C 32.813 280.695 31.995 280.812 31.173 280.839 C 30.827 280.847 30.827 283.132 31.173 283.116 C 31.386 283.113 31.596 283.05 31.808 283.039 C 31.769 283.602 31.809 284.247 31.979 284.364 C 32.003 284.383 32.026 284.391 32.05 284.407 L 32.051 284.407 C 33.148 285.165 34.243 285.53 35.336 285.627 C 35.317 285.95 35.323 286.284 35.371 286.533 C 34.422 287.423 33.483 288.492 32.565 289.98 C 32.287 290.431 32.336 292.071 32.635 292.157 C 33.558 292.421 34.461 292.25 35.354 291.819 C 35.277 292.425 35.361 293.369 35.558 293.358 L 35.595 293.354 C 35.633 293.964 35.867 294.403 36.179 294.71 C 36.301 294.897 36.422 295.056 36.543 295.216 C 36.259 295.6 36.038 296.071 36.043 296.623 C 35.871 296.786 35.696 296.895 35.52 296.949 C 35.358 297.046 35.404 298.123 35.558 298.123 C 36.163 298.115 36.764 297.983 37.365 297.882 C 37.333 298.309 37.309 298.745 37.293 299.192 C 37.19 299.203 37.085 299.199 36.979 299.203 C 36.666 298.698 36.467 298.717 36.378 299.234 C 36.104 299.242 35.832 299.262 35.558 299.262 C 35.299 299.266 35.299 300.964 35.558 300.972 C 35.883 300.98 36.208 301.003 36.531 301.022 C 36.614 301.077 36.696 301.131 36.779 301.178 C 36.655 301.38 36.53 301.539 36.408 301.753 C 36.32 301.769 36.231 301.8 36.143 301.807 C 35.87 301.835 35.868 303.622 36.143 303.611 C 36.222 303.607 36.299 303.572 36.378 303.564 C 36.398 303.584 36.41 303.65 36.435 303.642 C 36.599 303.619 36.758 303.521 36.922 303.483 L 36.922 303.514 C 36.999 303.494 37.075 303.44 37.152 303.416 C 37.493 303.339 37.835 303.261 38.173 303.133 C 38.175 303.541 38.167 303.988 38.143 304.509 C 38.756 305.818 39.382 305.838 39.983 305.418 C 40.303 305.562 40.621 305.5 40.932 305.282 C 41.251 305.426 41.566 305.36 41.877 305.146 C 42.196 305.29 42.512 305.224 42.824 305.01 C 43.14 305.142 43.459 305.096 43.773 304.87 C 44.092 305.01 44.407 304.944 44.717 304.73 C 45.037 304.874 45.353 304.808 45.664 304.59 C 45.983 304.738 46.3 304.672 46.61 304.454 C 46.931 304.598 47.249 304.536 47.56 304.318 C 47.879 304.462 48.195 304.396 48.505 304.182 C 48.824 304.326 49.14 304.26 49.452 304.046 C 49.768 304.178 50.088 304.132 50.401 303.906 C 50.72 304.046 51.035 303.98 51.345 303.766 C 51.664 303.91 51.981 303.844 52.292 303.626 C 52.612 303.774 52.93 303.708 53.241 303.49 C 53.56 303.634 53.876 303.568 54.186 303.354 C 54.505 303.498 54.822 303.432 55.133 303.218 C 55.452 303.362 55.769 303.292 56.08 303.082 C 56.397 303.214 56.716 303.168 57.029 302.942 C 57.348 303.082 57.663 303.016 57.973 302.802 C 58.293 302.946 58.609 302.88 58.921 302.662 C 59.241 302.806 59.559 302.744 59.87 302.526 C 60.189 302.67 60.504 302.604 60.814 302.39 C 61.133 302.534 61.45 302.468 61.761 302.254 C 62.082 302.398 62.399 302.328 62.711 302.114 C 63.03 302.254 63.345 302.188 63.654 301.975 C 63.975 302.118 64.291 302.052 64.602 301.835 C 64.921 301.982 65.237 301.916 65.549 301.699 C 65.869 301.842 66.186 301.78 66.498 301.563 C 66.817 301.706 67.132 301.64 67.442 301.427 C 67.762 301.57 68.078 301.504 68.389 301.29 C 68.706 301.423 69.025 301.376 69.338 301.151 C 69.657 301.29 69.973 301.224 70.283 301.011 C 70.603 301.154 70.919 301.088 71.23 300.871 C 71.52 301.007 71.809 300.972 72.092 300.797 C 72.392 300.972 72.696 300.976 72.995 300.805 C 73.315 301.015 73.633 301.011 73.946 300.836 C 74.264 301.038 74.58 301.038 74.891 300.863 C 75.209 301.069 75.527 301.069 75.838 300.89 C 76.157 301.1 76.476 301.1 76.788 300.917 C 77.105 301.123 77.422 301.123 77.732 300.948 C 78.052 301.154 78.368 301.158 78.68 300.98 C 79 301.186 79.318 301.186 79.63 301.011 C 79.948 301.213 80.264 301.213 80.575 301.034 C 80.895 301.244 81.212 301.244 81.525 301.061 C 81.843 301.267 82.159 301.267 82.469 301.092 C 82.788 301.298 83.106 301.302 83.417 301.123 C 83.736 301.333 84.055 301.329 84.368 301.154 C 84.685 301.357 85.001 301.357 85.311 301.182 C 85.63 301.388 85.947 301.388 86.258 301.209 C 86.574 301.415 86.894 301.423 87.209 301.236 C 87.527 301.442 87.843 301.442 88.154 301.267 C 88.474 301.477 88.792 301.473 89.104 301.298 C 89.422 301.504 89.738 301.504 90.049 301.325 C 90.367 301.531 90.684 301.531 90.996 301.353 C 91.316 301.563 91.633 301.563 91.946 301.38 C 92.264 301.586 92.58 301.586 92.89 301.411 C 93.21 301.621 93.529 301.617 93.841 301.442 C 94.159 301.648 94.475 301.648 94.785 301.469 C 95.104 301.675 95.421 301.675 95.732 301.5 C 96.052 301.706 96.371 301.706 96.683 301.524 C 97 301.73 97.316 301.73 97.627 301.555 C 97.947 301.765 98.265 301.761 98.577 301.586 C 98.896 301.792 99.211 301.792 99.522 301.613 C 99.836 301.819 100.155 301.827 100.469 301.644 C 100.789 301.85 101.107 301.85 101.42 301.671 C 101.737 301.873 102.054 301.873 102.364 301.699 C 102.682 301.905 103 301.908 103.311 301.73 C 103.631 301.94 103.95 301.936 104.262 301.761 C 104.579 301.967 104.894 301.967 105.203 301.792 C 105.523 301.998 105.841 301.998 106.153 301.823 C 106.472 302.025 106.789 302.029 107.101 301.85 C 107.42 302.056 107.737 302.06 108.049 301.881 C 108.367 302.087 108.684 302.091 108.996 301.912 C 109.314 302.118 109.632 302.122 109.943 301.943 C 110.262 302.149 110.579 302.153 110.89 301.975 C 111.209 302.177 111.527 302.181 111.838 302.002 C 112.155 302.208 112.472 302.212 112.782 302.033 C 113.098 302.239 113.418 302.25 113.733 302.068 C 114.047 302.274 114.366 302.282 114.68 302.099 C 114.994 302.305 115.313 302.313 115.627 302.13 C 115.946 302.336 116.263 302.336 116.575 302.157 C 116.888 302.363 117.208 302.371 117.522 302.188 C 117.841 302.398 118.158 302.398 118.47 302.219 C 118.784 302.425 119.103 302.433 119.417 302.25 C 119.735 302.46 120.052 302.46 120.361 302.285 C 120.681 302.491 121 302.491 121.312 302.317 C 121.63 302.519 121.948 302.523 122.259 302.344 C 122.577 302.55 122.895 302.554 123.206 302.375 C 123.525 302.581 123.843 302.585 124.154 302.406 C 124.473 302.612 124.79 302.616 125.101 302.437 C 125.42 302.643 125.737 302.643 126.048 302.468 C 126.366 302.67 126.683 302.674 126.993 302.495 C 127.309 302.701 127.629 302.713 127.944 302.53 C 128.258 302.736 128.577 302.744 128.891 302.561 C 129.205 302.767 129.524 302.775 129.838 302.593 C 130.152 302.799 130.471 302.806 130.785 302.624 C 131.104 302.83 131.421 302.83 131.732 302.651 C 132.051 302.861 132.369 302.861 132.68 302.682 C 132.999 302.892 133.317 302.892 133.628 302.713 C 133.941 302.915 134.259 302.927 134.572 302.748 C 134.892 302.958 135.21 302.958 135.522 302.779 C 135.836 302.977 136.155 302.989 136.469 302.806 C 136.788 303.012 137.105 303.016 137.416 302.837 C 137.735 303.043 138.052 303.047 138.364 302.868 C 138.683 303.074 139.001 303.078 139.312 302.9 C 139.63 303.106 139.948 303.109 140.259 302.931 C 140.574 303.129 140.892 303.141 141.206 302.962 C 141.524 303.164 141.84 303.168 142.151 302.989 C 142.466 303.195 142.786 303.207 143.101 303.024 C 143.415 303.23 143.734 303.238 144.048 303.055 C 144.362 303.261 144.682 303.269 144.995 303.086 C 145.315 303.292 145.632 303.292 145.943 303.117 C 146.262 303.323 146.579 303.323 146.891 303.144 C 147.205 303.35 147.524 303.358 147.838 303.176 C 148.157 303.385 148.474 303.385 148.786 303.207 C 149.099 303.409 149.416 303.42 149.729 303.242 C 150.049 303.451 150.368 303.451 150.68 303.273 C 150.998 303.475 151.316 303.479 151.627 303.3 C 151.946 303.506 152.264 303.51 152.574 303.331 C 152.894 303.537 153.211 303.541 153.522 303.362 C 153.841 303.568 154.158 303.572 154.469 303.393 C 154.788 303.599 155.105 303.603 155.417 303.424 C 155.735 303.626 156.051 303.63 156.361 303.451 C 156.681 303.665 156.999 303.665 157.311 303.486 C 157.63 303.696 157.948 303.696 158.259 303.518 C 158.578 303.727 158.896 303.727 159.207 303.549 C 159.521 303.755 159.84 303.762 160.154 303.58 C 160.472 303.786 160.79 303.786 161.101 303.611 C 161.419 303.817 161.737 303.817 162.048 303.638 C 162.362 303.844 162.681 303.852 162.995 303.669 C 163.314 303.879 163.629 303.879 163.94 303.704 C 164.26 303.914 164.578 303.914 164.891 303.735 C 165.205 303.933 165.524 303.945 165.838 303.766 C 166.156 303.968 166.473 303.972 166.785 303.793 C 167.104 303.999 167.421 304.003 167.733 303.825 C 168.051 304.031 168.369 304.034 168.681 303.856 C 168.999 304.062 169.316 304.066 169.628 303.887 C 169.946 304.093 170.263 304.097 170.575 303.918 C 170.893 304.12 171.209 304.124 171.519 303.945 C 171.834 304.151 172.155 304.163 172.469 303.98 C 172.783 304.186 173.103 304.194 173.416 304.011 C 173.735 304.221 174.053 304.221 174.364 304.042 C 174.678 304.248 174.998 304.256 175.312 304.073 C 175.631 304.279 175.947 304.279 176.259 304.101 C 176.573 304.307 176.892 304.314 177.206 304.132 C 177.524 304.342 177.84 304.342 178.151 304.167 C 178.47 304.376 178.789 304.376 179.102 304.198 C 179.42 304.404 179.737 304.408 180.049 304.229 C 180.367 304.431 180.684 304.435 180.996 304.26 C 181.314 304.462 181.631 304.466 181.943 304.287 C 182.262 304.493 182.578 304.497 182.89 304.318 C 183.209 304.524 183.526 304.528 183.838 304.349 C 184.157 304.555 184.474 304.559 184.786 304.38 C 185.102 304.586 185.42 304.586 185.729 304.411 C 186.048 304.621 186.368 304.621 186.68 304.443 C 186.994 304.649 187.313 304.656 187.627 304.474 C 187.941 304.68 188.26 304.687 188.574 304.505 C 188.893 304.715 189.211 304.715 189.522 304.536 C 189.836 304.742 190.155 304.75 190.469 304.567 C 190.788 304.773 191.105 304.773 191.417 304.594 C 191.736 304.804 192.052 304.804 192.364 304.625 C 192.682 304.835 192.998 304.835 193.309 304.66 C 193.628 304.87 193.946 304.87 194.26 304.691 C 194.578 304.897 194.894 304.901 195.207 304.722 C 195.525 304.925 195.842 304.928 196.154 304.75 C 196.472 304.956 196.789 304.959 197.101 304.781 C 197.419 304.987 197.737 304.991 198.048 304.812 C 198.366 305.018 198.685 305.022 198.996 304.843 C 199.314 305.049 199.632 305.053 199.943 304.874 C 200.256 305.072 200.574 305.084 200.887 304.905 C 201.207 305.115 201.525 305.115 201.837 304.936 C 202.151 305.142 202.471 305.15 202.785 304.967 C 203.104 305.177 203.421 305.177 203.733 304.998 C 204.052 305.208 204.368 305.208 204.681 305.029 C 204.999 305.235 205.316 305.235 205.628 305.061 C 205.946 305.267 206.263 305.267 206.575 305.088 C 206.888 305.29 207.205 305.302 207.518 305.123 C 207.839 305.333 208.156 305.333 208.469 305.154 C 208.787 305.36 209.105 305.364 209.417 305.185 C 209.735 305.391 210.053 305.395 210.364 305.216 C 210.683 305.418 211 305.422 211.311 305.243 C 211.63 305.449 211.947 305.453 212.259 305.274 C 212.577 305.48 212.894 305.484 213.206 305.305 C 213.524 305.511 213.842 305.515 214.154 305.337 C 214.467 305.539 214.784 305.55 215.097 305.368 C 215.417 305.577 215.736 305.577 216.048 305.399 C 216.367 305.609 216.684 305.609 216.996 305.43 C 217.314 305.64 217.631 305.64 217.943 305.461 C 218.261 305.671 218.579 305.671 218.891 305.492 C 219.209 305.702 219.526 305.702 219.838 305.523 C 220.157 305.729 220.473 305.729 220.785 305.554 C 221.104 305.76 221.42 305.76 221.732 305.581 C 222.05 305.791 222.367 305.791 222.677 305.616 C 222.996 305.826 223.315 305.826 223.628 305.647 C 223.946 305.853 224.263 305.857 224.575 305.679 C 224.89 305.877 225.208 305.888 225.522 305.71 C 225.84 305.912 226.158 305.916 226.469 305.737 C 226.788 305.943 227.105 305.947 227.416 305.768 C 227.735 305.974 228.052 305.978 228.363 305.799 C 228.682 306.005 228.998 306.009 229.309 305.83 C 229.624 306.036 229.944 306.048 230.259 305.865 C 230.578 306.071 230.894 306.071 231.206 305.892 C 231.525 306.102 231.841 306.102 232.154 305.923 C 232.472 306.133 232.788 306.133 233.101 305.954 C 233.419 306.164 233.736 306.164 234.049 305.986 C 234.367 306.195 234.684 306.195 234.996 306.017 C 235.314 306.223 235.632 306.223 235.943 306.044 C 236.256 306.246 236.574 306.258 236.887 306.079 C 237.206 306.289 237.525 306.289 237.837 306.11 C 238.156 306.316 238.473 306.32 238.784 306.141 C 239.103 306.347 239.421 306.351 239.732 306.172 C 240.047 306.37 240.366 306.382 240.679 306.203 C 240.999 306.405 241.315 306.409 241.627 306.23 C 241.946 306.436 242.262 306.44 242.574 306.262 C 242.893 306.468 243.21 306.471 243.522 306.293 C 243.839 306.499 244.156 306.503 244.466 306.324 C 244.785 306.534 245.104 306.534 245.417 306.359 C 245.735 306.565 246.052 306.565 246.364 306.386 C 246.682 306.596 246.999 306.596 247.311 306.417 C 247.63 306.627 247.946 306.627 248.258 306.448 C 248.577 306.658 248.894 306.658 249.206 306.479 C 249.52 306.685 249.839 306.693 250.153 306.51 C 250.471 306.716 250.788 306.716 251.101 306.537 C 251.418 306.747 251.734 306.747 252.043 306.572 C 252.364 306.782 252.682 306.782 252.995 306.604 C 253.313 306.81 253.631 306.813 253.943 306.635 C 254.262 306.841 254.579 306.845 254.89 306.666 C 255.209 306.868 255.526 306.872 255.838 306.693 C 256.156 306.899 256.473 306.903 256.785 306.724 C 257.103 306.93 257.42 306.934 257.732 306.755 C 258.05 306.961 258.365 306.965 258.677 306.786 C 258.992 306.992 259.313 307.004 259.627 306.821 C 259.946 307.027 260.262 307.027 260.575 306.852 C 260.893 307.058 261.209 307.058 261.522 306.88 C 261.836 307.086 262.155 307.093 262.469 306.911 C 262.783 307.117 263.102 307.124 263.416 306.942 C 263.734 307.152 264.053 307.152 264.364 306.973 C 264.682 307.179 265 307.179 265.311 307.004 C 265.624 307.206 265.942 307.214 266.255 307.035 C 266.575 307.245 266.893 307.245 267.205 307.066 C 267.525 307.272 267.841 307.276 268.152 307.097 C 268.472 307.303 268.789 307.307 269.101 307.128 C 269.396 307.319 269.689 307.319 269.978 307.179 C 270.026 307.295 270.081 307.416 270.142 307.532 L 289.288 307.532 C 289.373 307.346 289.452 307.159 289.505 306.973 C 277.671 305.885 292.216 304.816 289.512 303.755 C 295.561 302.67 287.574 301.598 289.52 300.544 C 295.374 299.452 291.822 298.375 289.528 297.307 C 294.395 296.226 292.635 295.15 289.534 294.085 C 282.221 293.004 284.779 291.924 289.541 290.863 C 292.724 289.782 286.788 288.705 289.548 287.64 C 281.548 286.56 285.749 285.479 289.555 284.422 C 290.67 283.342 277.847 282.257 289.562 281.2 C 286.292 280.124 284.596 279.043 289.568 277.99 C 297.965 276.902 292.972 275.821 289.575 274.756 C 287.76 273.672 283.094 272.591 289.582 271.534 C 297.646 270.45 293.961 269.373 289.589 268.312 C 299.942 267.228 297.439 266.147 289.596 265.094 C 277.197 264.01 301.579 262.929 289.602 261.868 C 292.779 260.784 279.783 259.707 289.609 258.65 C 287.406 257.565 283.73 256.489 289.616 255.424 C 290.127 254.347 290.8 253.267 289.624 252.217 C 280.59 251.129 281.56 250.045 289.632 248.984 C 286.457 247.899 296.067 246.819 289.638 245.762 C 284.017 244.677 291.895 243.601 289.645 242.54 C 284.483 241.451 286.422 240.375 289.652 239.314 C 299.418 238.233 279.59 237.153 289.659 236.092 C 307.289 235.011 298.992 233.931 289.666 232.873 Z"/>
  <g transform="matrix(0.309904, 0, 0, 0.309904, -157.352203, 264.940582)" style="stroke: rgb(0, 0, 0); stroke-width: 0.1; fill: rgb(217, 201, 109);" fill="#d9c96d" stroke-width="0.1" stroke="#000" font-size="9pt" fill-rule="evenodd" stroke-linecap="round" id="svgGroup">
    <path id="14" d="M 702.7 74.3 L 725 7.4 L 743 7.4 L 765.4 74.4 L 770.9 75.4 L 770.9 82 L 739.4 82 L 739.4 75.4 L 746.5 74.4 L 743.1 62.4 L 719.2 62.4 L 715.8 74.5 L 723.6 75.4 L 723.6 82 L 697 82 L 696.9 75.4 L 702.7 74.3 Z M 741 54.7 L 732.4 24.8 L 730.9 17.8 L 729.3 24.9 L 721.2 54.7 L 741 54.7 Z"/>
    <path id="15" d="M 818.4 28 L 817.7 46.1 L 807.6 46.1 L 805 34.6 A 2.474 2.474 0 0 0 803.728 32.93 A 3.52 3.52 0 0 0 803.35 32.75 A 6.971 6.971 0 0 0 801.964 32.356 Q 801.109 32.2 800.1 32.2 Q 795.4 32.2 792.75 36.8 A 14.861 14.861 0 0 0 791.41 40.069 Q 790.4 43.544 790.169 48.811 A 75.058 75.058 0 0 0 790.1 52.1 A 50.001 50.001 0 0 0 790.411 57.875 Q 791.121 63.961 793.45 67.75 A 13.218 13.218 0 0 0 795.901 70.74 A 9.601 9.601 0 0 0 802.5 73.2 Q 809.9 73.2 816.1 69.4 L 818.8 75.3 A 14.278 14.278 0 0 1 816.811 77.118 Q 814.682 78.751 811.376 80.326 A 49.536 49.536 0 0 1 810.9 80.55 A 27.669 27.669 0 0 1 801.574 82.978 A 33.282 33.282 0 0 1 798.7 83.1 Q 788.837 83.1 782.715 78.707 A 19.675 19.675 0 0 1 779.1 75.35 A 26.58 26.58 0 0 1 773.778 64.719 Q 772.6 60.135 772.6 54.6 A 37.25 37.25 0 0 1 773.445 46.495 A 29.108 29.108 0 0 1 776.2 39 Q 779.8 32.3 786.3 28.65 A 28.419 28.419 0 0 1 796.677 25.289 A 36.026 36.026 0 0 1 801.3 25 A 54.058 54.058 0 0 1 804.523 25.091 Q 806.739 25.224 808.55 25.55 A 50.637 50.637 0 0 1 813.605 26.741 A 57.085 57.085 0 0 1 814.8 27.1 A 160.993 160.993 0 0 0 815.81 27.376 Q 817.831 27.919 818.4 28 Z"/>
    <path id="16" d="M 826.1 82 L 826.1 75.4 L 832.2 74.5 L 832.2 36.9 L 826.3 35.1 L 826.3 27.3 L 842.9 25.1 L 843.2 25.1 L 846 27.2 L 846 29.6 L 845.7 37.9 L 846 37.9 A 10.068 10.068 0 0 1 846.694 36.23 Q 847.559 34.552 849.2 32.55 A 22.025 22.025 0 0 1 853.383 28.657 A 26.94 26.94 0 0 1 855.55 27.25 Q 859.4 25 863.9 25 A 15.553 15.553 0 0 1 865.373 25.065 Q 866.847 25.206 867.799 25.651 A 4.326 4.326 0 0 1 867.9 25.7 L 867.9 43.1 Q 866.3 41.9 864.45 41.2 A 9.537 9.537 0 0 0 862.844 40.76 Q 862.027 40.606 861.071 40.543 A 20.966 20.966 0 0 0 859.7 40.5 A 23.508 23.508 0 0 0 856.098 40.765 A 18.305 18.305 0 0 0 853.2 41.45 A 25.145 25.145 0 0 0 851.271 42.165 Q 850.381 42.54 849.647 42.947 A 11.443 11.443 0 0 0 848.6 43.6 L 848.6 74.5 L 859.6 75.5 L 859.6 82 L 826.1 82 Z"/>
    <path id="17" d="M 874.927 47.187 A 40.468 40.468 0 0 0 874.3 54.5 A 48.394 48.394 0 0 0 874.345 56.599 Q 874.866 68.598 881.45 75.55 A 23.237 23.237 0 0 0 892.807 82.125 A 33.327 33.327 0 0 0 901.1 83.1 A 36.979 36.979 0 0 0 904.129 82.978 A 30.546 30.546 0 0 0 915.4 79.9 A 23.38 23.38 0 0 0 919.664 77.161 A 25.016 25.016 0 0 0 925.6 70.1 A 24.186 24.186 0 0 0 926.577 68.215 Q 928.121 64.89 928.82 60.831 A 42.594 42.594 0 0 0 929.4 53.6 A 48.394 48.394 0 0 0 929.355 51.502 Q 928.834 39.503 922.25 32.55 A 23.251 23.251 0 0 0 910.811 25.965 A 33.797 33.797 0 0 0 902.5 25 A 35.532 35.532 0 0 0 901.781 25.008 A 30.44 30.44 0 0 0 888.35 28.3 A 24.083 24.083 0 0 0 884.556 30.707 A 25.257 25.257 0 0 0 878.1 38.25 Q 875.844 42.199 874.927 47.187 Z M 902.1 76.1 Q 906.9 76.1 909.25 70.95 A 19.721 19.721 0 0 0 910.438 67.377 Q 911.6 62.535 911.6 54.8 Q 911.6 45.244 910.099 39.791 A 20.34 20.34 0 0 0 909.35 37.55 A 11.163 11.163 0 0 0 907.843 34.867 A 7.257 7.257 0 0 0 901.8 32 A 7.562 7.562 0 0 0 894.889 36.449 Q 892.818 40.238 892.232 47.253 A 72.903 72.903 0 0 0 892 53.3 Q 892 62.861 893.63 68.346 A 19.785 19.785 0 0 0 894.4 70.5 A 11.687 11.687 0 0 0 895.979 73.207 A 7.445 7.445 0 0 0 902.1 76.1 Z"/>
    <path id="18" d="M 948.2 65.8 L 950.7 73.7 Q 951.267 74.591 953.047 75.351 A 15.161 15.161 0 0 0 953.95 75.7 Q 956.5 76.6 959.1 76.6 A 15.381 15.381 0 0 0 961.458 76.432 Q 962.663 76.244 963.636 75.849 A 6.673 6.673 0 0 0 965.35 74.85 A 5.724 5.724 0 0 0 967.028 72.695 A 5.92 5.92 0 0 0 967.5 70.3 A 5.58 5.58 0 0 0 965.525 66.002 A 8.423 8.423 0 0 0 964.7 65.35 Q 961.9 63.4 955.5 60.6 L 951.7 58.9 A 33.868 33.868 0 0 1 947.282 56.55 Q 945.026 55.11 943.362 53.443 A 17.78 17.78 0 0 1 941.95 51.85 A 14.902 14.902 0 0 1 939.12 45.61 A 21.059 21.059 0 0 1 938.7 41.3 Q 938.7 36.7 941.4 33.05 A 15.862 15.862 0 0 1 945.452 29.262 A 21.839 21.839 0 0 1 949.2 27.3 A 26.792 26.792 0 0 1 955.079 25.669 Q 957.939 25.2 961.2 25.2 A 64.839 64.839 0 0 1 964.885 25.299 Q 966.629 25.399 968.156 25.598 A 34.079 34.079 0 0 1 969.5 25.8 Q 973 26.4 976.6 27.3 Q 978.496 27.853 979.642 28.032 A 7.934 7.934 0 0 0 980.2 28.1 L 980.2 41.7 L 971.3 41.7 L 968.7 34 A 2.19 2.19 0 0 0 968.251 33.452 Q 967.752 32.998 966.856 32.587 A 11.046 11.046 0 0 0 966.3 32.35 A 10.612 10.612 0 0 0 963.747 31.708 A 13.699 13.699 0 0 0 962 31.6 A 14.184 14.184 0 0 0 959.627 31.787 Q 957.461 32.155 956 33.25 A 5.423 5.423 0 0 0 954.35 35.188 Q 953.8 36.3 953.8 37.7 A 6.559 6.559 0 0 0 954.241 40.15 Q 954.85 41.677 956.3 42.75 A 21.937 21.937 0 0 0 957.944 43.842 Q 960.347 45.303 964.3 47.1 L 966.4 48 Q 972.23 50.447 976.247 53.179 A 32.003 32.003 0 0 1 979.1 55.35 A 12.94 12.94 0 0 1 983.551 63.816 A 18.526 18.526 0 0 1 983.7 66.2 Q 983.7 73.6 977.8 78.35 A 18.958 18.958 0 0 1 971.825 81.513 Q 967.048 83.1 960.4 83.1 A 56.853 56.853 0 0 1 955.992 82.938 Q 953.306 82.728 951 82.25 Q 946.9 81.4 942 80 L 938.7 79.1 L 938.7 65.8 L 948.2 65.8 Z"/>
    <path id="19" d="M 1001 65.8 L 1003.5 73.7 Q 1004.067 74.591 1005.847 75.351 A 15.161 15.161 0 0 0 1006.75 75.7 Q 1009.3 76.6 1011.9 76.6 A 15.381 15.381 0 0 0 1014.258 76.432 Q 1015.463 76.244 1016.436 75.849 A 6.673 6.673 0 0 0 1018.15 74.85 A 5.724 5.724 0 0 0 1019.828 72.695 A 5.92 5.92 0 0 0 1020.3 70.3 A 5.58 5.58 0 0 0 1018.325 66.002 A 8.423 8.423 0 0 0 1017.5 65.35 Q 1014.7 63.4 1008.3 60.6 L 1004.5 58.9 A 33.868 33.868 0 0 1 1000.082 56.55 Q 997.826 55.11 996.162 53.443 A 17.78 17.78 0 0 1 994.75 51.85 A 14.902 14.902 0 0 1 991.92 45.61 A 21.059 21.059 0 0 1 991.5 41.3 Q 991.5 36.7 994.2 33.05 A 15.862 15.862 0 0 1 998.252 29.262 A 21.839 21.839 0 0 1 1002 27.3 A 26.792 26.792 0 0 1 1007.879 25.669 Q 1010.739 25.2 1014 25.2 A 64.839 64.839 0 0 1 1017.685 25.299 Q 1019.429 25.399 1020.956 25.598 A 34.079 34.079 0 0 1 1022.3 25.8 Q 1025.8 26.4 1029.4 27.3 Q 1031.296 27.853 1032.442 28.032 A 7.934 7.934 0 0 0 1033 28.1 L 1033 41.7 L 1024.1 41.7 L 1021.5 34 A 2.19 2.19 0 0 0 1021.051 33.452 Q 1020.552 32.998 1019.656 32.587 A 11.046 11.046 0 0 0 1019.1 32.35 A 10.612 10.612 0 0 0 1016.547 31.708 A 13.699 13.699 0 0 0 1014.8 31.6 A 14.184 14.184 0 0 0 1012.427 31.787 Q 1010.261 32.155 1008.8 33.25 A 5.423 5.423 0 0 0 1007.15 35.188 Q 1006.6 36.3 1006.6 37.7 A 6.559 6.559 0 0 0 1007.041 40.15 Q 1007.65 41.677 1009.1 42.75 A 21.937 21.937 0 0 0 1010.744 43.842 Q 1013.147 45.303 1017.1 47.1 L 1019.2 48 Q 1025.03 50.447 1029.047 53.179 A 32.003 32.003 0 0 1 1031.9 55.35 A 12.94 12.94 0 0 1 1036.351 63.816 A 18.526 18.526 0 0 1 1036.5 66.2 Q 1036.5 73.6 1030.6 78.35 A 18.958 18.958 0 0 1 1024.625 81.513 Q 1019.848 83.1 1013.2 83.1 A 56.853 56.853 0 0 1 1008.792 82.938 Q 1006.106 82.728 1003.8 82.25 Q 999.7 81.4 994.8 80 L 991.5 79.1 L 991.5 65.8 L 1001 65.8 Z"/>
    <path id="21" d="M 1075.5 74.3 L 1075.5 16.1 L 1067.3 14.7 L 1067.3 7.7 L 1101 7.7 L 1101 14.7 L 1092.6 16.1 L 1092.6 74.4 L 1101 75.5 L 1101 82 L 1067.4 82 L 1067.4 75.4 L 1075.5 74.3 Z"/>
    <path id="22" d="M 1114.8 74.5 L 1114.8 36.9 L 1108.9 35.1 L 1108.9 27.3 L 1127.1 25.1 L 1127.4 25.1 L 1130 27.2 L 1130 30.9 L 1129.9 33.2 A 26.133 26.133 0 0 1 1134.296 29.89 A 35.492 35.492 0 0 1 1138.8 27.6 Q 1144.2 25.3 1150.1 25.3 A 27.119 27.119 0 0 1 1153.763 25.532 Q 1157.232 26.006 1159.55 27.45 A 10.949 10.949 0 0 1 1163.243 31.341 A 15.674 15.674 0 0 1 1164.55 34.3 A 25.577 25.577 0 0 1 1165.43 37.922 Q 1166.09 41.717 1166.1 46.934 A 84.038 84.038 0 0 1 1166.1 47.1 L 1166.1 74.5 L 1171.7 75.3 L 1171.7 82 L 1144.5 82 L 1144.5 75.4 L 1149.4 74.5 L 1149.4 47.2 Q 1149.4 42.782 1148.849 40.185 A 14.156 14.156 0 0 0 1148.75 39.75 A 9.468 9.468 0 0 0 1148.206 38.134 Q 1147.814 37.258 1147.266 36.62 A 4.826 4.826 0 0 0 1146.5 35.9 A 5.315 5.315 0 0 0 1144.901 35.101 Q 1144.169 34.87 1143.28 34.772 A 12.632 12.632 0 0 0 1141.9 34.7 A 12.005 12.005 0 0 0 1138.123 35.356 Q 1136.482 35.9 1134.716 36.895 A 30.786 30.786 0 0 0 1131.5 39 L 1131.5 74.5 L 1137 75.4 L 1137 82 L 1109.3 82 L 1109.3 75.4 L 1114.8 74.5 Z"/>
    <path id="23" d="M 1213.4 25.7 L 1213.4 9.8 L 1203.8 8.4 L 1203.8 2 L 1225.9 0 L 1226.4 0 L 1229.4 2.4 L 1229.4 75.3 L 1234.6 75.3 L 1234.6 81.7 A 104.081 104.081 0 0 1 1229.613 82.554 Q 1227.241 82.898 1225.184 83.058 A 43.566 43.566 0 0 1 1221.8 83.2 A 16.958 16.958 0 0 1 1220.078 83.119 Q 1218.321 82.939 1217.241 82.36 A 3.977 3.977 0 0 1 1216.75 82.05 A 3.243 3.243 0 0 1 1215.732 80.729 Q 1215.2 79.534 1215.2 77.6 L 1215.2 75.1 A 16.124 16.124 0 0 1 1211.38 78.987 A 21.388 21.388 0 0 1 1208.3 80.85 Q 1203.8 83.1 1199 83.1 Q 1189.4 83.1 1183.4 76.2 Q 1177.4 69.3 1177.4 55.5 A 34.753 34.753 0 0 1 1179.261 44.038 A 32.313 32.313 0 0 1 1180.85 40.25 Q 1184.3 33.3 1191.05 29.15 Q 1197.8 25 1207.4 25 A 26.397 26.397 0 0 1 1212.053 25.428 A 30.523 30.523 0 0 1 1213.4 25.7 Z M 1213.4 70.2 L 1213.4 34 A 3.055 3.055 0 0 0 1212.766 33.405 Q 1212.121 32.941 1211.084 32.579 A 11.239 11.239 0 0 0 1210.85 32.5 A 12.51 12.51 0 0 0 1207.486 31.912 A 14.344 14.344 0 0 0 1206.9 31.9 A 9.582 9.582 0 0 0 1199.322 35.428 A 14.348 14.348 0 0 0 1198 37.25 Q 1194.7 42.6 1194.7 54.7 A 55.841 55.841 0 0 0 1194.921 59.862 Q 1195.401 65.006 1196.918 68.243 A 13.271 13.271 0 0 0 1197.5 69.35 A 11.709 11.709 0 0 0 1199.409 71.83 A 7.751 7.751 0 0 0 1205 74.1 Q 1207.8 74.1 1209.95 72.95 Q 1212.1 71.8 1213.4 70.2 Z"/>
    <path id="24" d="M 1247.3 74.5 L 1247.3 36.9 L 1240.6 35 L 1240.6 27.5 L 1260.6 25.1 L 1260.8 25.1 L 1263.9 27.2 L 1263.9 74.5 L 1269.9 75.4 L 1269.9 82 L 1241.1 82 L 1241.1 75.4 L 1247.3 74.5 Z M 1253.5 17.8 L 1253.4 17.8 A 10.747 10.747 0 0 1 1250.585 17.45 A 7.953 7.953 0 0 1 1247.1 15.5 A 7.69 7.69 0 0 1 1244.716 10.182 A 10.341 10.341 0 0 1 1244.7 9.6 A 10.908 10.908 0 0 1 1245.172 6.324 A 8.911 8.911 0 0 1 1247.35 2.7 A 8.811 8.811 0 0 1 1252.115 0.214 A 12.717 12.717 0 0 1 1254.5 0 A 14.089 14.089 0 0 1 1257.197 0.242 Q 1259.778 0.746 1261.4 2.3 A 7.69 7.69 0 0 1 1263.784 7.618 A 10.341 10.341 0 0 1 1263.8 8.2 A 11.134 11.134 0 0 1 1263.371 11.365 A 8.653 8.653 0 0 1 1261.1 15.15 Q 1258.573 17.631 1254.119 17.789 A 17.358 17.358 0 0 1 1253.5 17.8 Z"/>
    <path id="25" d="M 1307.9 47.7 L 1307.9 45.7 Q 1307.9 42.103 1307.101 40.003 A 7.356 7.356 0 0 0 1307.1 40 Q 1306.3 37.9 1304.2 36.85 A 8 8 0 0 0 1302.607 36.274 Q 1301.015 35.867 1298.757 35.81 A 29.86 29.86 0 0 0 1298 35.8 Q 1293.1 35.8 1289.25 36.95 A 59.392 59.392 0 0 0 1284.301 38.681 A 73.004 73.004 0 0 0 1281.2 40 L 1277.8 32.8 A 14.695 14.695 0 0 1 1278.858 32.026 Q 1280.413 30.98 1283 29.65 Q 1286.6 27.8 1291.65 26.45 Q 1296.7 25.1 1302.2 25.1 A 49.553 49.553 0 0 1 1306.863 25.305 Q 1311.622 25.757 1314.75 27.2 Q 1319.3 29.3 1321.25 33.7 A 19.271 19.271 0 0 1 1322.4 37.276 Q 1323.2 40.832 1323.2 45.7 L 1323.2 75.4 L 1328.4 75.4 L 1328.4 81.7 A 40.283 40.283 0 0 1 1326.787 82.013 Q 1325.095 82.308 1322.776 82.604 A 146.954 146.954 0 0 1 1322 82.7 A 81.516 81.516 0 0 1 1319.094 83.005 Q 1316.813 83.2 1315 83.2 Q 1311.2 83.2 1309.95 82.1 A 2.865 2.865 0 0 1 1309.245 81.099 Q 1308.821 80.15 1308.727 78.623 A 15 15 0 0 1 1308.7 77.7 L 1308.7 75.4 A 20.351 20.351 0 0 1 1305.564 78.404 Q 1303.969 79.649 1302 80.75 A 18.413 18.413 0 0 1 1295.291 82.914 A 23.415 23.415 0 0 1 1292.3 83.1 A 18.627 18.627 0 0 1 1286.368 82.175 A 17.021 17.021 0 0 1 1283.75 81.05 Q 1279.9 79 1277.65 75.15 A 16.212 16.212 0 0 1 1275.691 69.622 A 21.699 21.699 0 0 1 1275.4 66 Q 1275.4 57.2 1284.35 52.5 A 37.048 37.048 0 0 1 1292.554 49.441 Q 1299.231 47.76 1307.9 47.7 Z M 1307.9 70.3 L 1307.9 54.4 A 34.75 34.75 0 0 0 1303.833 54.622 Q 1299.478 55.137 1296.854 56.849 A 9.714 9.714 0 0 0 1296.35 57.2 A 9.937 9.937 0 0 0 1293.993 59.632 A 8.393 8.393 0 0 0 1292.6 64.4 Q 1292.6 67.578 1293.597 69.758 A 7.824 7.824 0 0 0 1294.6 71.4 Q 1296.6 73.9 1300.1 73.9 A 7.34 7.34 0 0 0 1301.813 73.685 Q 1302.592 73.498 1303.433 73.148 A 14.193 14.193 0 0 0 1304.1 72.85 A 15.725 15.725 0 0 0 1306.729 71.278 A 13.502 13.502 0 0 0 1307.9 70.3 Z"/>
  </g>
  <g transform="matrix(0.341607, 0, 0, 0.341607, 44.226776, 227.705353)" style="stroke: rgb(0, 0, 0); stroke-width: 0.1; fill: rgb(217, 201, 109);" fill="#d9c96d" stroke-width="0.1" stroke="#000" font-size="9pt" fill-rule="evenodd" stroke-linecap="round" id="g-1">
    <path id="path-1" d="M 6.2 51.8 L 6.2 16.1 L 0 14.7 L 0 7.7 L 32.3 7.7 L 32.3 14.7 L 23.9 16.2 L 23.9 53.2 A 48.168 48.168 0 0 0 24.499 61.166 Q 26.882 75.302 38.751 75.783 A 20.942 20.942 0 0 0 39.6 75.8 A 16.054 16.054 0 0 0 44.272 75.16 A 11.744 11.744 0 0 0 51.05 69.85 A 21.766 21.766 0 0 0 53.409 64.28 Q 54.7 59.645 54.7 53.4 L 54.7 16.1 L 46.1 14.7 L 46.1 7.7 L 72.1 7.7 L 72.1 14.7 L 65.5 16.1 L 65.5 52.5 Q 65.5 62.392 62.424 68.966 A 21.537 21.537 0 0 1 57.85 75.45 A 25.556 25.556 0 0 1 45.55 81.912 A 37.978 37.978 0 0 1 37.1 82.8 A 50.936 50.936 0 0 1 28.379 82.104 Q 19.254 80.515 13.9 75.3 A 22.844 22.844 0 0 1 8.438 66.58 Q 7.109 62.926 6.569 58.4 A 55.814 55.814 0 0 1 6.2 51.8 Z"/>
    <path id="path-2" d="M 82.7 74.5 L 82.7 36.9 L 76.8 35.1 L 76.8 27.3 L 95 25.1 L 95.3 25.1 L 97.9 27.2 L 97.9 30.9 L 97.8 33.2 A 26.133 26.133 0 0 1 102.196 29.89 A 35.492 35.492 0 0 1 106.7 27.6 Q 112.1 25.3 118 25.3 A 27.119 27.119 0 0 1 121.663 25.532 Q 125.132 26.006 127.45 27.45 A 10.949 10.949 0 0 1 131.143 31.341 A 15.674 15.674 0 0 1 132.45 34.3 A 25.577 25.577 0 0 1 133.33 37.922 Q 133.99 41.717 134 46.934 A 84.038 84.038 0 0 1 134 47.1 L 134 74.5 L 139.6 75.3 L 139.6 82 L 112.4 82 L 112.4 75.4 L 117.3 74.5 L 117.3 47.2 Q 117.3 42.782 116.749 40.185 A 14.156 14.156 0 0 0 116.65 39.75 A 9.468 9.468 0 0 0 116.106 38.134 Q 115.714 37.258 115.166 36.62 A 4.826 4.826 0 0 0 114.4 35.9 A 5.315 5.315 0 0 0 112.801 35.101 Q 112.069 34.87 111.18 34.772 A 12.632 12.632 0 0 0 109.8 34.7 A 12.005 12.005 0 0 0 106.023 35.356 Q 104.382 35.9 102.616 36.895 A 30.786 30.786 0 0 0 99.4 39 L 99.4 74.5 L 104.9 75.4 L 104.9 82 L 77.2 82 L 77.2 75.4 L 82.7 74.5 Z"/>
    <path id="path-3" d="M 152.3 74.5 L 152.3 36.9 L 145.6 35 L 145.6 27.5 L 165.6 25.1 L 165.8 25.1 L 168.9 27.2 L 168.9 74.5 L 174.9 75.4 L 174.9 82 L 146.1 82 L 146.1 75.4 L 152.3 74.5 Z M 158.5 17.8 L 158.4 17.8 A 10.747 10.747 0 0 1 155.585 17.45 A 7.953 7.953 0 0 1 152.1 15.5 A 7.69 7.69 0 0 1 149.716 10.182 A 10.341 10.341 0 0 1 149.7 9.6 A 10.908 10.908 0 0 1 150.172 6.324 A 8.911 8.911 0 0 1 152.35 2.7 A 8.811 8.811 0 0 1 157.115 0.214 A 12.717 12.717 0 0 1 159.5 0 A 14.089 14.089 0 0 1 162.197 0.242 Q 164.778 0.746 166.4 2.3 A 7.69 7.69 0 0 1 168.784 7.618 A 10.341 10.341 0 0 1 168.8 8.2 A 11.134 11.134 0 0 1 168.371 11.365 A 8.653 8.653 0 0 1 166.1 15.15 Q 163.573 17.631 159.119 17.789 A 17.358 17.358 0 0 1 158.5 17.8 Z"/>
    <path id="path-4" d="M 185.8 70.4 L 185.8 34.8 L 179.7 34.8 L 179.7 29 L 181.7 28.2 Q 183.941 27.453 185.658 26.619 A 23.196 23.196 0 0 0 185.9 26.5 A 12.026 12.026 0 0 0 187.991 23.824 A 16.183 16.183 0 0 0 189.1 21.5 A 49.819 49.819 0 0 0 190.067 18.967 Q 191.163 15.869 192.4 11.4 L 201.7 11.4 L 202.3 26.4 L 216.6 26.4 L 216.6 34.8 L 202.5 34.8 L 202.5 61.3 A 159.44 159.44 0 0 0 202.519 63.84 Q 202.574 67.271 202.79 68.926 A 13.741 13.741 0 0 0 202.8 69 A 10.206 10.206 0 0 0 202.978 69.975 Q 203.306 71.358 203.95 71.85 A 2.32 2.32 0 0 0 204.582 72.179 Q 205.237 72.412 206.269 72.476 A 13.5 13.5 0 0 0 207.1 72.5 Q 211.8 72.5 216 70.9 L 218.1 77.2 A 15.618 15.618 0 0 1 215.739 78.776 Q 214.531 79.444 213.046 80.05 A 39.366 39.366 0 0 1 209.8 81.2 Q 204.3 82.9 198.7 82.9 A 22.675 22.675 0 0 1 195.129 82.639 Q 193.277 82.342 191.803 81.711 A 9.335 9.335 0 0 1 188.95 79.85 Q 186.431 77.411 185.926 72.831 A 22.217 22.217 0 0 1 185.8 70.4 Z"/>
    <path id="path-5" d="M 228.7 74.5 L 228.7 36.9 L 222 35 L 222 27.5 L 242 25.1 L 242.2 25.1 L 245.3 27.2 L 245.3 74.5 L 251.3 75.4 L 251.3 82 L 222.5 82 L 222.5 75.4 L 228.7 74.5 Z M 234.9 17.8 L 234.8 17.8 A 10.747 10.747 0 0 1 231.985 17.45 A 7.953 7.953 0 0 1 228.5 15.5 A 7.69 7.69 0 0 1 226.116 10.182 A 10.341 10.341 0 0 1 226.1 9.6 A 10.908 10.908 0 0 1 226.572 6.324 A 8.911 8.911 0 0 1 228.75 2.7 A 8.811 8.811 0 0 1 233.515 0.214 A 12.717 12.717 0 0 1 235.9 0 A 14.089 14.089 0 0 1 238.597 0.242 Q 241.178 0.746 242.8 2.3 A 7.69 7.69 0 0 1 245.184 7.618 A 10.341 10.341 0 0 1 245.2 8.2 A 11.134 11.134 0 0 1 244.771 11.365 A 8.653 8.653 0 0 1 242.5 15.15 Q 239.973 17.631 235.519 17.789 A 17.358 17.358 0 0 1 234.9 17.8 Z"/>
    <path id="path-6" d="M 263.8 74.5 L 263.8 36.9 L 257.9 35.1 L 257.9 27.3 L 276.1 25.1 L 276.4 25.1 L 279 27.2 L 279 30.9 L 278.9 33.2 A 26.133 26.133 0 0 1 283.296 29.89 A 35.492 35.492 0 0 1 287.8 27.6 Q 293.2 25.3 299.1 25.3 A 27.119 27.119 0 0 1 302.763 25.532 Q 306.232 26.006 308.55 27.45 A 10.949 10.949 0 0 1 312.243 31.341 A 15.674 15.674 0 0 1 313.55 34.3 A 25.577 25.577 0 0 1 314.43 37.922 Q 315.09 41.717 315.1 46.934 A 84.038 84.038 0 0 1 315.1 47.1 L 315.1 74.5 L 320.7 75.3 L 320.7 82 L 293.5 82 L 293.5 75.4 L 298.4 74.5 L 298.4 47.2 Q 298.4 42.782 297.849 40.185 A 14.156 14.156 0 0 0 297.75 39.75 A 9.468 9.468 0 0 0 297.206 38.134 Q 296.814 37.258 296.266 36.62 A 4.826 4.826 0 0 0 295.5 35.9 A 5.315 5.315 0 0 0 293.901 35.101 Q 293.169 34.87 292.28 34.772 A 12.632 12.632 0 0 0 290.9 34.7 A 12.005 12.005 0 0 0 287.123 35.356 Q 285.482 35.9 283.716 36.895 A 30.786 30.786 0 0 0 280.5 39 L 280.5 74.5 L 286 75.4 L 286 82 L 258.3 82 L 258.3 75.4 L 263.8 74.5 Z"/>
    <path id="path-7" d="M 382 24.8 L 385.6 24.8 L 385.6 37 L 375.7 37 Q 376.7 39.8 376.7 42.7 A 20.96 20.96 0 0 1 375.668 49.428 A 17.248 17.248 0 0 1 370.2 57.3 A 21.347 21.347 0 0 1 362.898 61.176 Q 359.77 62.165 355.991 62.512 A 46.913 46.913 0 0 1 351.7 62.7 A 56.568 56.568 0 0 1 348.398 62.61 Q 345.65 62.449 343.6 62 Q 343 63.2 342.65 64.5 A 14.174 14.174 0 0 0 342.465 65.264 Q 342.315 65.981 342.301 66.502 A 3.869 3.869 0 0 0 342.3 66.6 A 6.468 6.468 0 0 0 342.482 68.19 A 3.908 3.908 0 0 0 344.6 70.85 Q 346.346 71.723 350.281 71.934 A 51.18 51.18 0 0 0 353 72 L 363.3 72 A 43.416 43.416 0 0 1 370.87 72.6 Q 384.096 74.954 384.393 86.562 A 21.04 21.04 0 0 1 384.4 87.1 Q 384.4 93.7 379.8 98.7 A 27.158 27.158 0 0 1 372.535 104.251 A 35.08 35.08 0 0 1 367.75 106.35 Q 360.3 109 352 109 Q 340.278 109 334.076 105.898 A 16.092 16.092 0 0 1 332.05 104.7 A 15.207 15.207 0 0 1 328.184 100.898 Q 325.936 97.64 325.901 93.337 A 16.761 16.761 0 0 1 325.9 93.2 Q 325.9 89.2 328.6 85.6 Q 331.3 82 335.4 80.2 A 8.822 8.822 0 0 1 330.896 73.875 A 12.643 12.643 0 0 1 330.7 71.6 A 9.769 9.769 0 0 1 331.74 67.271 A 13.168 13.168 0 0 1 332.9 65.35 A 13.757 13.757 0 0 1 338.231 60.959 A 16.492 16.492 0 0 1 338.8 60.7 Q 329.863 57.399 328.121 48.393 A 24.722 24.722 0 0 1 327.7 43.7 Q 327.7 38 331.1 33.75 A 20.144 20.144 0 0 1 337.227 28.674 A 25.694 25.694 0 0 1 340.3 27.25 A 33.37 33.37 0 0 1 349.257 25.178 A 40.629 40.629 0 0 1 353.1 25 Q 365.6 25 371.4 29.6 A 9.259 9.259 0 0 1 372.675 28.346 Q 373.925 27.319 375.8 26.35 A 13.495 13.495 0 0 1 381.005 24.838 A 13.053 13.053 0 0 1 382 24.8 Z M 357.7 82.7 L 347.5 82.7 Q 345.9 82.7 343.9 82.5 A 12.358 12.358 0 0 0 342.39 86.34 Q 342.049 87.894 342.006 89.684 A 21.667 21.667 0 0 0 342 90.2 A 15.412 15.412 0 0 0 342.611 94.741 Q 344.15 99.731 349.57 101.037 A 18.529 18.529 0 0 0 353.9 101.5 A 17.398 17.398 0 0 0 358.705 100.863 A 14.166 14.166 0 0 0 363.3 98.6 A 9.35 9.35 0 0 0 367.131 91.766 A 13.201 13.201 0 0 0 367.2 90.4 Q 367.2 87.941 366.48 86.321 A 5.069 5.069 0 0 0 365.1 84.45 Q 363 82.7 357.7 82.7 Z M 352.7 55.9 A 8.752 8.752 0 0 0 355.096 55.593 A 6.003 6.003 0 0 0 358.75 52.75 A 11.359 11.359 0 0 0 359.859 50.066 Q 360.588 47.475 360.6 43.817 A 37.387 37.387 0 0 0 360.6 43.7 A 34.215 34.215 0 0 0 360.458 40.462 Q 360.152 37.26 359.189 35.27 A 7.715 7.715 0 0 0 358.7 34.4 A 6.18 6.18 0 0 0 354.556 31.682 A 9.975 9.975 0 0 0 352.6 31.5 A 8.524 8.524 0 0 0 348.539 32.408 Q 345.009 34.289 344.286 40.067 A 26.133 26.133 0 0 0 344.1 43.3 Q 344.1 55.526 352.196 55.889 A 11.233 11.233 0 0 0 352.7 55.9 Z"/>
    <path id="path-8" d="M 421.1 74.4 L 421.1 16.1 L 413.6 14.7 L 413.6 7.7 L 447.7 7.7 L 447.7 14.7 L 438.2 16.1 L 438.2 74.2 L 457 73.2 L 463.5 53.4 L 472.9 54.6 L 470 82 L 413.4 82 L 413.4 75.4 L 421.1 74.4 Z"/>
    <path id="path-9" d="M 484.3 74.5 L 484.3 36.9 L 477.6 35 L 477.6 27.5 L 497.6 25.1 L 497.8 25.1 L 500.9 27.2 L 500.9 74.5 L 506.9 75.4 L 506.9 82 L 478.1 82 L 478.1 75.4 L 484.3 74.5 Z M 490.5 17.8 L 490.4 17.8 A 10.747 10.747 0 0 1 487.585 17.45 A 7.953 7.953 0 0 1 484.1 15.5 A 7.69 7.69 0 0 1 481.716 10.182 A 10.341 10.341 0 0 1 481.7 9.6 A 10.908 10.908 0 0 1 482.172 6.324 A 8.911 8.911 0 0 1 484.35 2.7 A 8.811 8.811 0 0 1 489.115 0.214 A 12.717 12.717 0 0 1 491.5 0 A 14.089 14.089 0 0 1 494.197 0.242 Q 496.778 0.746 498.4 2.3 A 7.69 7.69 0 0 1 500.784 7.618 A 10.341 10.341 0 0 1 500.8 8.2 A 11.134 11.134 0 0 1 500.371 11.365 A 8.653 8.653 0 0 1 498.1 15.15 Q 495.573 17.631 491.119 17.789 A 17.358 17.358 0 0 1 490.5 17.8 Z"/>
    <path id="path-10" d="M 508.7 32.8 L 508.7 26.4 L 537.1 26.4 L 537.1 32.8 L 530.8 34 L 539.2 60.4 L 541.8 69.5 L 543.9 60.5 L 552.2 34 L 546.1 32.8 L 546.1 26.4 L 569.2 26.4 L 569.2 32.8 L 564 34 L 545.8 82.8 L 532.4 82.8 L 512.6 34 L 508.7 32.8 Z"/>
    <path id="path-11" d="M 618.3 55.6 L 587 55.6 A 34.624 34.624 0 0 0 587.62 60.517 Q 588.146 63.082 589.068 65.137 A 15.074 15.074 0 0 0 591.15 68.55 A 11.9 11.9 0 0 0 599.029 72.844 A 17.344 17.344 0 0 0 601.4 73 A 24.48 24.48 0 0 0 606.407 72.462 A 30.296 30.296 0 0 0 609.15 71.75 A 37.643 37.643 0 0 0 611.97 70.764 Q 613.316 70.227 614.429 69.639 A 17.815 17.815 0 0 0 615.7 68.9 L 618.5 75 Q 615.9 77.9 609.65 80.5 Q 603.4 83.1 596.9 83.1 Q 587.368 83.1 581.272 79.348 A 19.572 19.572 0 0 1 576.6 75.35 Q 570 67.6 570 54.2 A 40.961 40.961 0 0 1 570.651 46.716 A 29.667 29.667 0 0 1 573.4 38.5 Q 576.8 31.9 582.95 28.45 A 26.669 26.669 0 0 1 591.94 25.409 A 35.161 35.161 0 0 1 597.4 25 A 33.28 33.28 0 0 1 603.619 25.544 Q 609.678 26.698 613.45 30.3 Q 618.854 35.461 619.186 44.792 A 34.013 34.013 0 0 1 619.2 45.3 Q 619.2 51.629 618.32 55.514 A 22.477 22.477 0 0 1 618.3 55.6 Z M 586.9 49 L 603.3 49 L 603.4 44.8 Q 603.4 38.5 601.7 35.2 Q 600.24 32.366 597.009 31.966 A 9.029 9.029 0 0 0 595.9 31.9 A 7.658 7.658 0 0 0 592.641 32.574 Q 591.013 33.329 589.825 34.929 A 9.84 9.84 0 0 0 589.4 35.55 Q 587.1 39.2 586.9 49 Z"/>
    <path id="path-12" d="M 636.5 65.8 L 639 73.7 Q 639.567 74.591 641.347 75.351 A 15.161 15.161 0 0 0 642.25 75.7 Q 644.8 76.6 647.4 76.6 A 15.381 15.381 0 0 0 649.758 76.432 Q 650.963 76.244 651.936 75.849 A 6.673 6.673 0 0 0 653.65 74.85 A 5.724 5.724 0 0 0 655.328 72.695 A 5.92 5.92 0 0 0 655.8 70.3 A 5.58 5.58 0 0 0 653.825 66.002 A 8.423 8.423 0 0 0 653 65.35 Q 650.2 63.4 643.8 60.6 L 640 58.9 A 33.868 33.868 0 0 1 635.582 56.55 Q 633.326 55.11 631.662 53.443 A 17.78 17.78 0 0 1 630.25 51.85 A 14.902 14.902 0 0 1 627.42 45.61 A 21.059 21.059 0 0 1 627 41.3 Q 627 36.7 629.7 33.05 A 15.862 15.862 0 0 1 633.752 29.262 A 21.839 21.839 0 0 1 637.5 27.3 A 26.792 26.792 0 0 1 643.379 25.669 Q 646.239 25.2 649.5 25.2 A 64.839 64.839 0 0 1 653.185 25.299 Q 654.929 25.399 656.456 25.598 A 34.079 34.079 0 0 1 657.8 25.8 Q 661.3 26.4 664.9 27.3 Q 666.796 27.853 667.942 28.032 A 7.934 7.934 0 0 0 668.5 28.1 L 668.5 41.7 L 659.6 41.7 L 657 34 A 2.19 2.19 0 0 0 656.551 33.452 Q 656.052 32.998 655.156 32.587 A 11.046 11.046 0 0 0 654.6 32.35 A 10.612 10.612 0 0 0 652.047 31.708 A 13.699 13.699 0 0 0 650.3 31.6 A 14.184 14.184 0 0 0 647.927 31.787 Q 645.761 32.155 644.3 33.25 A 5.423 5.423 0 0 0 642.65 35.188 Q 642.1 36.3 642.1 37.7 A 6.559 6.559 0 0 0 642.541 40.15 Q 643.15 41.677 644.6 42.75 A 21.937 21.937 0 0 0 646.244 43.842 Q 648.647 45.303 652.6 47.1 L 654.7 48 Q 660.53 50.447 664.547 53.179 A 32.003 32.003 0 0 1 667.4 55.35 A 12.94 12.94 0 0 1 671.851 63.816 A 18.526 18.526 0 0 1 672 66.2 Q 672 73.6 666.1 78.35 A 18.958 18.958 0 0 1 660.125 81.513 Q 655.348 83.1 648.7 83.1 A 56.853 56.853 0 0 1 644.292 82.938 Q 641.606 82.728 639.3 82.25 Q 635.2 81.4 630.3 80 L 627 79.1 L 627 65.8 L 636.5 65.8 Z"/>
  </g>
</svg>