<?xml version="1.0" encoding="utf-8" ?>
<svg xmlns="http://www.w3.org/2000/svg" xmlns:xlink="http://www.w3.org/1999/xlink" width="1024" height="1024">
	<path fill="#FFFFFF" transform="scale(2 2)" d="M233.928 45.273C241.881 38.4962 248.593 29.814 255.725 22.1911C258.013 23.9358 260.15 26.824 262.125 28.949C266.861 34.045 273.594 40.2612 277.41 45.9758L277.559 147.844L255.705 146.082L234.378 148.081C235.16 118.726 234.437 88.5788 234.462 59.1603C234.466 54.5821 234.953 49.7632 233.928 45.273Z"/>
	<path fill="#FFFFFF" transform="scale(2 2)" d="M292.317 64.7475C293.593 62.6458 295.812 60.9159 297.594 59.2343C306.68 50.6615 315.398 41.7029 324.239 32.8802C327.663 29.4624 331.05 25.6281 334.869 22.6764C336.056 23.7843 335.315 57.8149 335.313 62.2204C335.304 95.4906 335.283 128.761 335.308 162.031C335.312 167.432 334.976 173.018 335.748 178.374L310.638 161.052C304.847 157.81 298.623 155.081 292.298 153.071L292.317 64.7475Z"/>
	<path fill="#FFFFFF" transform="scale(2 2)" d="M176.524 177.64C175.99 172.869 176.41 167.699 176.41 162.878C176.412 129.831 176.395 96.7841 176.399 63.7372C176.4 53.8063 175.268 31.9878 177.641 22.7932C179.946 23.799 181.994 26.3783 183.766 28.1444C187.576 31.9412 219.34 62.5646 219.663 65.875C220.046 69.8018 219.804 73.9195 219.808 77.8672C219.829 102.246 220.741 128.259 219.645 152.521C213.333 155.073 207.175 157.172 201.178 160.515L176.524 177.64Z"/>
	<path fill="#FFFFFF" transform="scale(2 2)" d="M351.193 94.7679C358.306 85.6155 369.381 76.6446 377.351 67.4407C382.1 74.5075 390.594 81.1269 394.196 87.0742C395.193 114.692 394.222 143.786 394.263 171.529C394.269 175.55 394.078 179.58 394.783 183.554C383.567 186.28 372.782 193.506 363.623 200.187C361.922 201.458 356.644 206.505 354.467 204.572C349.905 200.523 351.234 165.386 351.234 158.663C351.233 137.374 351.514 116.052 351.193 94.7679Z"/>
	<path fill="#FFFFFF" transform="scale(2 2)" d="M117.818 87.2016L118.058 86.817C121.114 81.7828 130.706 73.8011 135.128 67.9577C141.082 74.5955 147.711 80.8328 153.875 87.3026C156.166 89.7074 159.182 92.2697 160.85 95.143L160.893 95.5578C161.027 97.0067 160.847 98.5305 160.828 99.9905C160.525 124.435 160.82 148.912 160.818 173.36C160.817 183.906 162.572 195.766 155.29 204.49L148.735 199.909C139.044 192.883 128.909 187.409 117.639 183.296L117.818 87.2016Z"/>
	<path fill="#FFFFFF" transform="scale(2 2)" d="M200.024 487.503C201.292 460.228 200.267 431.02 200.252 403.615C200.242 384.23 199.496 367.392 186.721 351.778C183.287 347.582 179.283 343.817 175.664 339.774C142.519 302.744 138.929 250.95 166.246 209C187.711 176.037 216.876 161.416 255.174 159.863C280.851 159.014 308.219 169.415 327.213 186.711C369.628 225.336 378.066 289.248 341.472 334.595C337.059 340.064 331.835 344.771 327.06 349.903C311.628 366.488 311.846 385.347 311.814 406.742C311.775 433.687 311.144 460.738 312.152 487.656L272.556 487.712C271.883 482.369 272.216 476.746 272.211 471.362C272.18 433.067 271.432 394.695 272.563 356.423C275.806 356.221 278.741 355.229 281.789 354.154C315.313 342.332 340.489 309.555 342.727 273.994C345.367 232.044 314.363 190.096 273.093 181.207C268.454 180.208 263.754 179.826 259.03 179.531C221.051 178.744 186.827 203.396 174.454 239.383C159.23 283.663 180.801 332.654 223.571 351.331C228.657 353.552 233.986 355.14 239.232 356.926C239.945 363.134 239.744 369.395 239.751 375.634C239.788 413.109 239.652 450.585 239.753 488.06C227.201 487.421 211.978 489.018 200.024 487.503Z"/>
	<path fill="#FFFFFF" transform="scale(2 2)" d="M183.56 236.25C192.708 211.521 222.708 187.465 249.567 185.352L252.187 185.33C248.705 191.323 243.769 196.511 239.711 202.14C232.072 212.739 226.833 223.87 221.931 235.86L186.601 236.265L183.56 236.25Z"/>
	<path fill="#FFFFFF" transform="scale(2 2)" d="M289.895 236.063C286.147 224.986 282.233 214.74 275.775 204.896C273.59 201.566 260.907 187.723 262.451 185.332C286.058 182.25 321.08 214.612 328.68 236L328.406 236.41L289.895 236.063Z"/>
	<path fill="#FFFFFF" transform="scale(2 2)" d="M229.179 235.671C235.892 219.909 243.588 203.469 256.39 191.666L256.935 191.813C269.338 203.887 276.911 219.886 282.853 235.885L256.125 235.684L229.179 235.671Z"/>
	<path fill="#FFFFFF" transform="scale(2 2)" d="M152.553 487.871C151.879 457.323 152.975 427.011 152.768 396.625C152.64 377.858 139.111 367.219 128.25 354.472C103.011 324.849 102.465 301.007 93.6442 266.985C87.2059 242.151 79.0887 232.236 64.4843 213.418C72.0737 213.488 79.7693 213.799 87.153 215.707C111.183 221.918 128.963 241.862 135.815 265.287C137.681 271.665 138.692 278.336 140.043 284.838C143.615 302.029 150.119 320.256 161.314 334.029C172.752 348.102 185.455 355.065 190.765 374.126C193.546 384.105 193.472 395.033 193.486 405.322C193.524 432.891 193.493 460.46 193.473 488.03L152.553 487.871Z"/>
	<path fill="#FFFFFF" transform="scale(2 2)" d="M318.486 487.872C318.426 486.438 318.676 484.96 318.724 483.517C319.546 458.878 318.752 433.038 318.744 408.271C318.739 390.824 317.91 372.917 328.703 358.116C332.691 352.647 337.862 348.168 342.619 343.392C358.343 327.606 367.777 306.962 372.184 285.316C376.242 265.388 377.879 254.108 391.859 237.279C404.394 222.189 421.23 215.37 440.377 213.602L448.768 213.601C440.225 221.932 431.947 232.788 426.85 243.592C414.325 270.139 414.232 300.827 401.75 327.304C396.532 338.374 389.375 348.026 381.182 357.056C362.518 377.626 359.533 381.012 359.496 410.903C359.471 431.029 359.458 451.155 359.476 471.28C359.481 476.715 359.036 482.557 359.928 487.905L328.054 487.996L318.486 487.872Z"/>
	<path fill="#FFFFFF" transform="scale(2 2)" d="M225.866 282.704C225.116 276.237 223.673 247.195 226.5 242.757L227.363 242.623L285.547 243.273C286.668 252.424 288.251 273.624 285.428 282.68L284.331 282.889L225.866 282.704Z"/>
	<path fill="#FFFFFF" transform="scale(2 2)" d="M291.953 282.509C293.903 269.302 293.189 255.99 291.54 242.808L332.112 243.407C334.029 250.885 336.666 278.903 333.672 282.441L291.953 282.509Z"/>
	<path fill="#FFFFFF" transform="scale(2 2)" d="M178.555 282.349C177.056 270.137 175.94 254.834 180.706 243.118L219.821 242.933L219.97 282.822L216.736 282.803L178.555 282.349Z"/>
	<path fill="#FFFFFF" transform="scale(2 2)" d="M251.945 349.803C248.955 350.35 245.56 350.004 242.578 349.528C218.093 345.619 194.947 327.575 185.145 304.914C182.904 299.734 181.527 294.226 180.047 288.795C193.638 290.29 208.817 287.941 221.424 289.765C226.772 308.317 235.057 323.072 246.201 338.664C248.432 341.786 252.049 345.724 251.945 349.803Z"/>
	<path fill="#FFFFFF" transform="scale(2 2)" d="M260.148 349.199C261.107 343.936 264.609 340.281 267.582 336.012C277.734 321.434 286.273 306.651 290.869 289.296L332.564 289.665C325.428 311.466 312.528 329.313 292.636 340.999L290.973 341.933C282.465 346.472 270.089 352.181 260.148 349.199Z"/>
	<path fill="#FFFFFF" transform="scale(2 2)" d="M255.914 340.8C247.983 329.821 240.012 319.206 234.723 306.616C232.416 301.124 231.016 295.332 228.769 289.821L283.618 290.021C278.953 303.053 274.755 313.023 267.215 324.765C263.702 330.261 260.243 335.899 255.914 340.8Z"/>
</svg>
