<svg xmlns="http://www.w3.org/2000/svg" width="317.69" height="172.86" style="max-height:500px" viewBox="34.853 179.56 317.69 172.86">
<desc fill="#ffffff">Source: openclipart.org/detail/209545</desc>
<path d="m101.81 194.51c2.632-2.243 4.853-5.116 7.214-7.639 0.756 0.577 1.464 1.533 2.118 2.237 1.566 1.686 3.795 3.743 5.057 5.634l0.05 33.711-7.232-0.582-7.058 0.661c0.259-9.714 0.019-19.691 0.028-29.427 1e-3 -1.515 0.162-3.11-0.177-4.595z" style="" fill="#ffffff"/>
<path d="m121.13 200.96c0.422-0.697 1.156-1.269 1.746-1.825 3.007-2.837 5.892-5.802 8.818-8.721 1.133-1.132 2.254-2.401 3.518-3.377 0.392 0.367 0.147 11.628 0.146 13.086-3e-3 11.01-9e-3 22.02-2e-3 33.03 2e-3 1.787-0.109 3.636 0.146 5.409l-8.309-5.733c-1.917-1.073-3.976-1.976-6.069-2.641l6e-3 -29.228z" style="" fill="#ffffff"/>
<path d="m82.814 238.32c-0.177-1.578-0.038-3.289-0.038-4.885 1e-3 -10.936-5e-3 -21.872-4e-3 -32.808 1e-3 -3.287-0.374-10.507 0.411-13.55 0.763 0.334 1.441 1.187 2.027 1.771 1.261 1.257 11.772 11.391 11.879 12.486 0.127 1.3 0.047 2.662 0.048 3.969 8e-3 8.067 0.309 16.676-0.054 24.705-2.089 0.845-4.126 1.539-6.111 2.645l-8.158 5.667z" style="" fill="#ffffff"/>
<path d="m140.62 210.89c2.353-3.029 6.019-5.998 8.656-9.044 1.571 2.339 4.383 4.529 5.574 6.498 0.33 9.139 9e-3 18.767 0.023 27.948 2e-3 1.331-0.062 2.665 0.172 3.98-3.712 0.902-7.281 3.293-10.312 5.504-0.563 0.42-2.31 2.091-3.03 1.451-1.51-1.34-1.07-12.967-1.07-15.193 0-7.044 0.093-14.101-0.013-21.144z" style="" fill="#ffffff"/>
<path d="m63.386 208.39 0.08-0.127c1.011-1.666 4.185-4.307 5.649-6.241 1.97 2.197 4.163 4.26 6.204 6.401 0.758 0.796 1.755 1.644 2.307 2.595l0.014 0.137c0.045 0.48-0.014 0.984-0.02 1.467-0.101 8.09-3e-3 16.19-4e-3 24.281 0 3.489 0.58 7.414-1.83 10.301l-2.169-1.516c-3.207-2.325-6.561-4.136-10.29-5.498l0.059-31.8z" style="" fill="#ffffff"/>
<path d="m90.59 340.86c0.42-9.027 0.081-18.692 0.076-27.762-3e-3 -6.415-0.25-11.987-4.478-17.154-1.136-1.389-2.461-2.634-3.659-3.972-10.969-12.255-12.157-29.395-3.117-43.278 7.103-10.908 16.755-15.746 29.429-16.26 8.498-0.281 17.555 3.161 23.84 8.885 14.036 12.782 16.829 33.932 4.719 48.939-1.461 1.809-3.189 3.367-4.77 5.066-5.106 5.488-5.034 11.729-5.045 18.809-0.013 8.917-0.222 17.869 0.112 26.777l-13.104 0.019c-0.222-1.768-0.112-3.63-0.114-5.411-0.01-12.673-0.257-25.371 0.116-38.037 1.074-0.066 2.045-0.395 3.053-0.751 11.095-3.912 19.426-14.759 20.167-26.527 0.873-13.883-9.386-27.764-23.044-30.706-1.535-0.33-3.09-0.457-4.654-0.554-12.568-0.261-23.894 7.897-27.989 19.806-5.038 14.654 2.101 30.866 16.255 37.047 1.683 0.735 3.446 1.26 5.182 1.852 0.236 2.054 0.17 4.126 0.172 6.191 0.012 12.401-0.033 24.803 1e-3 37.205-4.154-0.211-9.192 0.317-13.148-0.184z" style="" fill="#ffffff"/>
<path d="m85.142 257.71c3.027-8.183 12.956-16.144 21.843-16.843l0.868-8e-3c-1.153 1.984-2.786 3.701-4.129 5.563-2.528 3.508-4.262 7.191-5.884 11.159l-11.692 0.134-1.006-5e-3z" style="" fill="#ffffff"/>
<path d="m120.33 257.65c-1.24-3.665-2.535-7.056-4.672-10.313-0.723-1.102-4.921-5.683-4.41-6.475 7.812-1.02 19.402 9.69 21.918 16.768l-0.091 0.135-12.745-0.115z" style="" fill="#ffffff"/>
<path d="m100.24 257.52c2.221-5.216 4.768-10.657 9.004-14.562l0.181 0.048c4.104 3.996 6.61 9.29 8.577 14.585l-8.845-0.067-8.917-4e-3z" style="" fill="#ffffff"/>
<path d="m74.881 340.98c-0.223-10.109 0.14-20.14 0.071-30.196-0.042-6.21-4.52-9.731-8.114-13.949-8.352-9.804-8.533-17.693-11.452-28.952-2.13-8.219-4.816-11.5-9.65-17.727 2.512 0.022 5.058 0.126 7.502 0.757 7.952 2.055 13.836 8.656 16.104 16.408 0.617 2.111 0.952 4.318 1.399 6.47 1.182 5.689 3.335 11.721 7.039 16.278 3.785 4.657 7.989 6.962 9.746 13.27 0.921 3.302 0.896 6.918 0.901 10.323 0.012 9.123 2e-3 18.247-5e-3 27.371l-13.541-0.053z" style="" fill="#ffffff"/>
<path d="m129.79 340.98c-0.02-0.474 0.063-0.963 0.078-1.441 0.273-8.153 0.01-16.705 7e-3 -24.901-2e-3 -5.774-0.276-11.7 3.296-16.598 1.32-1.81 3.031-3.292 4.605-4.872 5.204-5.224 8.326-12.056 9.784-19.219 1.343-6.595 1.885-10.328 6.511-15.897 4.148-4.993 9.72-7.251 16.056-7.836h2.777c-2.827 2.757-5.566 6.35-7.253 9.925-4.146 8.785-4.176 18.941-8.307 27.703-1.726 3.663-4.095 6.857-6.806 9.846-6.176 6.807-7.164 7.927-7.177 17.819-8e-3 6.66-0.012 13.321-6e-3 19.981 1e-3 1.798-0.146 3.731 0.149 5.502l-10.548 0.029-3.166-0.041z" style="" fill="#ffffff"/>
<path d="m99.142 273.09c-0.248-2.14-0.726-11.751 0.21-13.219l0.286-0.045 19.254 0.216c0.371 3.028 0.895 10.044-0.039 13.04l-0.363 0.07-19.348-0.062z" style="" fill="#ffffff"/>
<path d="m121.01 273.02c0.646-4.371 0.409-8.776-0.136-13.138l13.426 0.198c0.635 2.475 1.507 11.747 0.516 12.917l-13.806 0.023z" style="" fill="#ffffff"/>
<path d="m83.486 272.97c-0.496-4.041-0.866-9.106 0.711-12.983l12.945-0.061 0.049 13.201-1.07-7e-3 -12.635-0.15z" style="" fill="#ffffff"/>
<path d="m107.77 295.29c-0.99 0.182-2.113 0.067-3.1-0.09-8.103-1.294-15.763-7.265-19.006-14.765-0.742-1.714-1.198-3.537-1.688-5.334 4.498 0.495 9.521-0.282 13.693 0.321 1.77 6.139 4.512 11.022 8.199 16.182 0.739 1.033 1.936 2.336 1.902 3.686z" style="" fill="#ffffff"/>
<path d="m110.49 295.09c0.318-1.741 1.476-2.951 2.46-4.364 3.36-4.824 6.185-9.716 7.706-15.459l13.799 0.122c-2.362 7.215-6.631 13.121-13.213 16.988l-0.551 0.309c-2.815 1.502-6.911 3.391-10.201 2.404z" style="" fill="#ffffff"/>
<path d="m109.09 292.31c-2.625-3.633-5.263-7.146-7.013-11.313-0.763-1.817-1.227-3.734-1.97-5.557l18.151 0.066c-1.544 4.313-2.933 7.612-5.428 11.497-1.163 1.819-2.307 3.685-3.74 5.307z" style="" fill="#ffffff"/>
<g transform="matrix(.49524 0 0 .49524 172.91 255.8)" font-size="9pt" stroke="#ffffff" stroke-linecap="round" stroke-width=".25mm">
<path d="m217.7 51.2v-2q0-5.6 1.95-10.75t5.6-9.15 8.95-6.35a27.185 27.185 0 0 1 7.56-2.072 34.462 34.462 0 0 1 4.44-0.278 32.944 32.944 0 0 1 7.15 0.739 24.205 24.205 0 0 1 7.95 3.261q6.2 4 9.5 10.55t3.3 14.25v5.8h-48.8v-9.8h38.3l-6.3 4.4a29.465 29.465 0 0 0-0.19-3.45q-0.205-1.732-0.629-3.209a15.518 15.518 0 0 0-0.431-1.291 12.06 12.06 0 0 0-1.379-2.627 9.342 9.342 0 0 0-2.321-2.323 9.231 9.231 0 0 0-3.35-1.419q-1.276-0.276-2.753-0.281a16.077 16.077 0 0 0-0.047 0 13.208 13.208 0 0 0-3.252 0.384 10.521 10.521 0 0 0-2.998 1.266 9.681 9.681 0 0 0-3.136 3.206 12.888 12.888 0 0 0-0.914 1.794 16.38 16.38 0 0 0-0.932 3.138q-0.307 1.551-0.412 3.354a33.522 33.522 0 0 0-0.056 1.958q0 4.19 1.079 7.343a15.934 15.934 0 0 0 0.221 0.607 11.636 11.636 0 0 0 1.713 3.043 9.931 9.931 0 0 0 2.287 2.107 10.08 10.08 0 0 0 3.155 1.364q1.729 0.436 3.845 0.436 3.8 0 6.25-1.3a8.657 8.657 0 0 0 1.895-1.336 6.843 6.843 0 0 0 1.555-2.164h16.6q-1.2 5.6-4.75 10t-9 6.9a27.064 27.064 0 0 1-7.406 2.141 35.522 35.522 0 0 1-5.144 0.359 34.748 34.748 0 0 1-6.551-0.59 26.764 26.764 0 0 1-5.849-1.81 27.291 27.291 0 0 1-7.272-4.671 25.323 25.323 0 0 1-1.828-1.829q-3.7-4.1-5.65-9.2t-1.95-10.5zm-217.7-3.3v-43.1h18.6v43.5q0 4.3 1.65 7.5t4.75 4.9a13.194 13.194 0 0 0 3.689 1.327q1.577 0.327 3.389 0.367a23.183 23.183 0 0 0 0.522 6e-3q4.083 0 7.013-1.399a11.758 11.758 0 0 0 0.587-0.301q3.1-1.7 4.7-4.85a14.223 14.223 0 0 0 1.272-3.819q0.328-1.737 0.328-3.731v-43.5h18.6v43.1q0 9.8-3.75 16.95t-11 11.05q-6.818 3.668-16.51 3.886a55 55 0 0 1-1.24 0.014 47.027 47.027 0 0 1-7.994-0.643q-5.451-0.941-9.756-3.257-7.25-3.9-11.05-11.05a31.721 31.721 0 0 1-3.172-9.425 43.168 43.168 0 0 1-0.628-7.525zm280.5 3.8v-2.4a41.079 41.079 0 0 1 1e-3 -0.093q9e-3 -4.042 0.814-7.697a31.476 31.476 0 0 1 0.935-3.36 27.672 27.672 0 0 1 3.635-7.188 25.476 25.476 0 0 1 1.415-1.812q3.3-3.85 8-6t10.5-2.15a25.436 25.436 0 0 1 5.49 0.565 18.939 18.939 0 0 1 5.96 2.385 18.53 18.53 0 0 1 6.45 6.865 23.119 23.119 0 0 1 0.85 1.685 28.431 28.431 0 0 1 1.919 5.988q0.728 3.487 0.831 7.612l-4.2-3.1v-38.2h18.2v73h-14.4v-22.4h2q-0.2 7.4-3 12.85a21.041 21.041 0 0 1-4.733 6.195 19.773 19.773 0 0 1-3.017 2.205q-4.95 2.95-11.75 2.95a27.756 27.756 0 0 1-6.517-0.74 23.643 23.643 0 0 1-4.033-1.36q-4.75-2.1-8.2-5.85a25.821 25.821 0 0 1-5.062-8.217 29.599 29.599 0 0 1-0.238-0.633 31.192 31.192 0 0 1-1.755-8.427 37.048 37.048 0 0 1-0.095-2.673zm43 0v-3.4q0-3.907-1.669-6.574a9.532 9.532 0 0 0-0.081-0.126q-1.75-2.7-4.5-4.15t-5.95-1.45a11.963 11.963 0 0 0-4.499 0.835 11.329 11.329 0 0 0-1.951 1.015 12.731 12.731 0 0 0-4.18 4.503 15.187 15.187 0 0 0-0.32 0.597 14.994 14.994 0 0 0-1.418 4.473 19.66 19.66 0 0 0-0.232 3.077 18.85 18.85 0 0 0 0.339 3.661 13.955 13.955 0 0 0 1.311 3.789 12.689 12.689 0 0 0 2.875 3.704 11.951 11.951 0 0 0 1.625 1.196 11.918 11.918 0 0 0 5.782 1.735 14.395 14.395 0 0 0 0.668 0.015 12.558 12.558 0 0 0 5.178-1.068 12.235 12.235 0 0 0 0.872-0.432 11.362 11.362 0 0 0 4.122-3.868 13.623 13.623 0 0 0 0.328-0.532 12.058 12.058 0 0 0 1.42-3.866 16.678 16.678 0 0 0 0.28-3.134zm-227.6 26.1h-18.2v-55.2h14.4v23.7h-0.8q0-8.6 2.2-14.25a20.085 20.085 0 0 1 2.337-4.398 15.372 15.372 0 0 1 4.213-4.052 17.274 17.274 0 0 1 6.328-2.437 23.559 23.559 0 0 1 4.222-0.363h0.8a22.593 22.593 0 0 1 6.177 0.799 16.388 16.388 0 0 1 8.373 5.451q5.15 6.25 5.15 19.15v31.6h-18.2v-32.1q0-3.8-2.25-6.25a7.414 7.414 0 0 0-4.357-2.306 10.719 10.719 0 0 0-1.793-0.144 10.052 10.052 0 0 0-2.797 0.37 7.634 7.634 0 0 0-3.453 2.08 8.293 8.293 0 0 0-2.181 4.421 11.742 11.742 0 0 0-0.169 2.029v31.9zm115.4 0.8h-7.5a60.02 60.02 0 0 1-5.513-0.237q-5.242-0.485-8.837-1.963-5.35-2.2-7.75-7.3t-2.4-13.8l0.1-47.1h16.8l-0.1 47.6q0 3.7 1.95 5.65 1.73 1.729 4.835 1.925a12.962 12.962 0 0 0 0.815 0.025h7.6v15.2zm0-42.8v-13.2h-40v13.2h40zm-47.2 42h-18.2v-55.2h18.2v55.2zm0-55.2h-25.2v13.2h25.2v-13.2zm-13.427-4.623q-1.472-0.264-2.621-0.838a6.866 6.866 0 0 1-2.002-1.489 8.763 8.763 0 0 1-2.22-4.754 12.059 12.059 0 0 1-0.13-1.796q0-4 2.35-6.55 1.958-2.123 5.683-2.478a16.532 16.532 0 0 1 1.567-0.072 15.519 15.519 0 0 1 2.665 0.213q1.442 0.252 2.568 0.801a6.708 6.708 0 0 1 2.067 1.536 8.803 8.803 0 0 1 2.148 4.584 12.176 12.176 0 0 1 0.152 1.966 11.37 11.37 0 0 1-0.377 3.004 8.596 8.596 0 0 1-1.923 3.546q-1.908 2.116-5.607 2.476a16.449 16.449 0 0 1-1.593 0.074 15.509 15.509 0 0 1-2.727-0.223z" fill="#ffffff"/>
</g>
<g transform="matrix(.49524 0 0 .49524 172.91 301.5)" font-size="9pt" stroke="#ffffff" stroke-linecap="round" stroke-width=".25mm">
<path d="m145.9 51.2v-2q0-5.6 1.95-10.75t5.6-9.15 8.95-6.35a27.185 27.185 0 0 1 7.559-2.072 34.462 34.462 0 0 1 4.441-0.278 32.944 32.944 0 0 1 7.15 0.739 24.205 24.205 0 0 1 7.95 3.261q6.2 4 9.5 10.55t3.3 14.25v5.8h-48.8v-9.8h38.3l-6.3 4.4a29.465 29.465 0 0 0-0.191-3.45q-0.204-1.732-0.628-3.209a15.518 15.518 0 0 0-0.431-1.291 12.06 12.06 0 0 0-1.379-2.627 9.342 9.342 0 0 0-2.321-2.323 9.231 9.231 0 0 0-3.35-1.419q-1.277-0.276-2.753-0.281a16.077 16.077 0 0 0-0.047 0 13.208 13.208 0 0 0-3.252 0.384 10.521 10.521 0 0 0-2.998 1.266 9.681 9.681 0 0 0-3.136 3.206 12.888 12.888 0 0 0-0.914 1.794 16.38 16.38 0 0 0-0.932 3.138q-0.307 1.551-0.413 3.354a33.522 33.522 0 0 0-0.055 1.958q0 4.19 1.079 7.343a15.934 15.934 0 0 0 0.221 0.607 11.636 11.636 0 0 0 1.713 3.043 9.931 9.931 0 0 0 2.287 2.107 10.08 10.08 0 0 0 3.155 1.364q1.729 0.436 3.845 0.436 3.8 0 6.25-1.3a8.657 8.657 0 0 0 1.894-1.336 6.843 6.843 0 0 0 1.556-2.164h16.6q-1.2 5.6-4.75 10t-9 6.9a27.064 27.064 0 0 1-7.406 2.141 35.522 35.522 0 0 1-5.144 0.359 34.748 34.748 0 0 1-6.552-0.59 26.764 26.764 0 0 1-5.848-1.81 27.291 27.291 0 0 1-7.272-4.671 25.323 25.323 0 0 1-1.828-1.829q-3.7-4.1-5.65-9.2t-1.95-10.5zm61.6 9.5h16q0.381 2.381 2.847 4.126a10.959 10.959 0 0 0 0.253 0.174 9.419 9.419 0 0 0 2.557 1.166q1.2 0.357 2.646 0.513a22.36 22.36 0 0 0 2.397 0.121 19.601 19.601 0 0 0 2.857-0.197q1.53-0.226 2.827-0.709a11.631 11.631 0 0 0 0.366-0.144 5.235 5.235 0 0 0 1.229-0.694 3.312 3.312 0 0 0 1.321-2.756 3.832 3.832 0 0 0-1.37-2.962 5.883 5.883 0 0 0-0.63-0.488q-2-1.35-7.3-1.85l-3.8-0.4q-10.6-1.1-15.6-5.8t-5-11.8a20.39 20.39 0 0 1 0.458-4.437 14.283 14.283 0 0 1 2.542-5.613 17.175 17.175 0 0 1 5.647-4.75 22.076 22.076 0 0 1 2.653-1.2 30.394 30.394 0 0 1 6.629-1.644 40.363 40.363 0 0 1 5.471-0.356q8.878 0 15.005 3.103a22.411 22.411 0 0 1 2.895 1.747 16.669 16.669 0 0 1 7.027 11.943 23.467 23.467 0 0 1 0.173 2.007h-16a6.245 6.245 0 0 0-1.829-3.493 8.575 8.575 0 0 0-0.871-0.757q-2.3-1.75-6.6-1.75a14.309 14.309 0 0 0-2.08 0.142q-1.721 0.254-2.97 0.958a4.504 4.504 0 0 0-1.028 0.776 3.211 3.211 0 0 0-0.922 2.324 3.722 3.722 0 0 0 0.248 1.391q0.429 1.076 1.602 1.709a8.241 8.241 0 0 0 1.219 0.523q1.784 0.618 4.731 0.977l3.8 0.4q7.52 0.781 12.6 3.398a20.885 20.885 0 0 1 3.75 2.452 15.189 15.189 0 0 1 5.699 11.033 19.574 19.574 0 0 1 0.051 1.417 17.834 17.834 0 0 1-0.716 5.147 14.917 14.917 0 0 1-2.334 4.653q-3.05 4.1-8.7 6.3a30.578 30.578 0 0 1-6.083 1.633q-3.406 0.567-7.367 0.567a47.227 47.227 0 0 1-7.326-0.533q-3.903-0.613-7.077-1.934a22.527 22.527 0 0 1-4.497-2.483 17.148 17.148 0 0 1-7.232-12.163 23.123 23.123 0 0 1-0.168-1.787zm-188.9 17.1h-18.6v-73h18.6v73zm98.9 0h-17.5l-15.8-55.2h18.6l14.7 55.2zm11 0h-16.3l12.5-55.2h17.4l-13.6 55.2zm-52.3 0h-18.2v-55.2h18.2v55.2zm0-55.2h-25.2v13.2h25.2v-13.2zm-30 55.2h-29.6v-16.2h29.6v16.2zm77.3 0h-17.7v-15.2h17.7v15.2zm-60.727-59.823q-1.473-0.264-2.622-0.838a6.866 6.866 0 0 1-2.001-1.489 8.763 8.763 0 0 1-2.221-4.754 12.059 12.059 0 0 1-0.129-1.796q0-4 2.35-6.55 1.957-2.123 5.683-2.478a16.532 16.532 0 0 1 1.567-0.072 15.519 15.519 0 0 1 2.665 0.213q1.441 0.252 2.568 0.801a6.708 6.708 0 0 1 2.067 1.536 8.803 8.803 0 0 1 2.147 4.584 12.176 12.176 0 0 1 0.153 1.966 11.37 11.37 0 0 1-0.378 3.004 8.596 8.596 0 0 1-1.922 3.546q-1.909 2.116-5.608 2.476a16.449 16.449 0 0 1-1.592 0.074 15.509 15.509 0 0 1-2.727-0.223z" fill="#ffffff"/>
</g>
<rect x="245.63" y="267.47" width="8.059" height="5.577" stroke="#ffffff" fill="#ffffff"/>
<rect x="262.11" y="267.49" width="8.119" height="5.53" stroke="#ffffff" fill="#ffffff"/>
<rect x="202.12" y="313.19" width="8.016" height="5.631" stroke="#ffffff" fill="#ffffff"/>
<rect x="262.23" y="270.35" width="7.233" height="5.53" stroke="#ffffff" fill="#ffffff"/>
</svg>