<?xml version="1.0" encoding="utf-8" ?>
<svg xmlns="http://www.w3.org/2000/svg" xmlns:xlink="http://www.w3.org/1999/xlink" width="1024" height="1024">
	<path fill="white" d="M0 0L1024 0L1024 1024L0 1024L0 0Z"/>
	<path fill="#1A59CF" d="M738.935 364.192C742.227 363.939 745.776 364.258 749 364.986C758.584 367.148 767.829 373.517 772.925 382C777.629 389.831 779.198 400.797 776.843 409.595L776.589 410.5C775.259 415.403 773.058 419.77 769.832 423.711C762.815 432.281 753.985 436.179 743.124 437.333C741.199 437.449 739.17 437.243 737.25 437.038C726.918 435.936 718.475 431.319 712.061 423.23C706.101 415.714 703.117 406.625 704.327 397.002L704.456 396C705.27 389.45 708.117 383.201 712.204 378.038C719.104 369.32 728.074 365.385 738.935 364.192Z"/>
	<path fill="#1A59CF" d="M278.166 363.639C287.077 363.209 295.868 364.258 303.457 369.321C312.224 375.169 318.303 384.103 320.204 394.495C322.001 404.323 319.707 413.879 314.059 422.01C308.002 430.732 298.61 436.626 288.219 438.473C278.931 438.892 269.716 437.618 261.837 432.307C253.868 426.935 247.7 418.046 245.919 408.583C244.005 398.409 245.679 387.813 251.716 379.29C258.083 370.299 267.495 365.529 278.166 363.639Z"/>
	<path fill="#1A59CF" d="M794.759 577.182C799.262 576.51 804.654 577.062 809.062 578.185L810 578.432C814.501 579.594 818.586 581.501 822.424 584.128C831.363 590.249 837.648 600.742 839.495 611.369C841.478 622.774 838.842 634.906 832.032 644.321C825.06 653.961 813.549 658.615 802.168 660.337C798.205 660.515 794.642 660.496 790.766 659.565C779.344 656.823 768.609 649.342 762.586 639.182C757.114 629.95 755.493 618.33 758.192 607.92L758.44 607C759.787 601.861 761.97 597.322 765.228 593.114C772.734 583.423 782.823 578.682 794.759 577.182Z"/>
	<path fill="#1A59CF" d="M222.784 576.672C232.643 576.144 241.325 578.299 249.52 583.871C258.164 589.748 264.588 599.202 266.469 609.531L266.639 610.5C267.692 616.297 267.785 621.871 266.292 627.618L266.056 628.5C264.665 633.88 262.309 638.614 259.061 643.119C251.97 652.952 242.424 657.939 230.623 659.914C219.88 661.332 209.482 659.274 200.737 652.603C192 645.939 186.149 635.606 184.755 624.75C183.299 613.413 186.133 602.136 193.254 593.106C200.587 583.806 211.088 578.044 222.784 576.672Z"/>
	<path fill="#1A59CF" d="M507.372 607.17C511.977 606.404 517.618 607.123 522.127 608.173C535.233 611.224 546.089 619.565 553.008 631.036C558.432 640.028 560.402 652.318 557.806 662.526L557.553 663.5C556.097 669.227 553.704 674.82 550.239 679.634C542.02 691.05 530.732 696.773 517.116 698.893C513.319 699.315 509.712 699.271 505.922 698.749L505 698.617C498.312 697.697 492.312 695.53 486.672 691.807C476.541 685.119 468.804 674.505 466.502 662.485L465.933 659.411C464.111 648.157 467.221 635.684 473.976 626.528C482.459 615.029 493.435 609.23 507.372 607.17Z"/>
	<path fill="#1A59CF" d="M648.254 569.684C652.328 569.398 656.88 569.735 660.865 570.687C673.471 573.698 684.386 581.293 691.132 592.444C697.171 602.425 699.225 615.409 696.523 626.75C694.799 633.988 691.78 640.547 686.97 646.274C678.076 656.863 666.785 662.078 653.125 663.254C642.602 664.38 629.997 659.425 621.825 653.083C612.412 645.777 605.825 634.316 604.415 622.452C602.951 610.127 606.42 596.974 614.249 587.243C622.703 576.735 635.007 570.982 648.254 569.684Z"/>
	<path fill="#1A59CF" d="M368.47 569.68C373.753 569.393 378.939 569.575 384.071 570.996C396.35 574.398 407.216 582.702 413.451 593.84C419.359 604.393 421.261 616.975 417.83 628.689L417.586 629.5C416.058 634.673 413.612 639.56 410.382 643.89C402.021 655.097 390.729 661.637 376.932 663.547C365.319 665.086 352.646 661.327 343.332 654.242C333.278 646.595 327.054 635.596 325.492 623.116C323.944 610.751 327.09 598.369 334.775 588.51C343.444 577.386 354.591 571.421 368.47 569.68Z"/>
	<path fill="#1A59CF" d="M850.694 529.997L919.638 530.031C919.45 541.884 918.224 553.766 916.767 565.525C912.368 601.026 903.336 635.284 889.983 668.482C886.207 677.871 881.737 686.961 877.468 696.132L876.352 698.25L875.909 698.146C869.991 687.891 861.477 678.935 851.56 672.476C844.555 667.914 837.014 664.145 830.214 659.27L829.668 658.873C838.542 651.589 845.727 641.108 848.292 629.83C851.524 615.619 847.77 602.047 840.242 590.065L843.324 587.841C851.673 581.107 858.409 570.996 859.562 560.172C860.738 549.136 857.596 538.632 850.694 529.997Z"/>
	<path fill="#1A59CF" d="M115.342 529.739L172.749 529.6L168.001 537.141C163.454 545.285 162.527 555.065 164.988 564C167.923 574.656 175.525 583.027 185.003 588.397C177.847 599.65 173.391 613.93 175.308 627.319L175.45 628.25C177.333 641.585 184.303 651.28 193.728 660.451C186.87 663.212 180.891 666.389 174.801 670.604C163.629 678.311 155.123 687.373 146.646 697.851C141.169 685.996 135.48 674.207 130.75 662.024C118.378 630.155 109.935 596.637 105.889 562.676C104.594 551.805 104.115 540.817 103.459 529.895L115.342 529.739Z"/>
	<path fill="#1A59CF" d="M738.128 442.703C752.442 441.939 768.331 446.092 780.573 453.524C802.497 466.834 811.266 491.808 816.99 515.476C808.224 517.327 801.089 520.077 794.62 526.468C788.254 532.759 783.988 540.861 782.8 549.787C782.397 552.818 782.554 556.128 782.526 559.193C778.249 551.956 774.714 546.266 767.288 541.819C759.443 537.122 750.911 535.243 741.975 537.522L740.25 538.016C732.697 540.693 725.845 545.965 721.562 552.75C718.993 556.819 717.232 561.469 715.211 565.828L715.749 553.979C715.164 540.805 708.343 527.149 698.588 518.396C689.927 510.626 679.664 506.797 668.072 507.332C668.487 503.361 669.854 499.323 671.163 495.564C674.591 485.712 679.067 477.399 685.908 469.479C699.676 453.539 717.129 444.331 738.128 442.703Z"/>
	<path fill="#1A59CF" d="M280.16 441.203C292.344 440.605 303.95 444.065 314.554 449.878C337.654 462.541 351.501 485.313 358.786 509.983C355.222 509.961 351.576 509.817 348.043 510.319L347.25 510.441C340.064 511.501 333.221 514.587 327.382 518.864C317.322 526.233 310.987 536.504 308.902 548.75C308.225 552.726 308.481 556.863 308.532 560.89C307.339 558.365 306.424 555.689 304.971 553.295C300.416 545.789 293.635 541.07 285.647 537.758C277.413 535.451 270.019 535.337 261.9 538.277C255.926 540.44 249.101 544.795 245.423 550.082C243.6 552.704 242.295 555.776 240.939 558.658C241.954 549.03 240.596 540.093 235.061 531.96C228.244 521.948 217.655 517.985 206.255 515.817C209.846 497.969 215.469 481.416 227.616 467.456C241.368 451.651 259.331 442.604 280.16 441.203Z"/>
	<path fill="#1A59CF" d="M512.625 267.7C527.734 267.077 541.645 271.43 553.774 280.52C567.361 290.703 576.816 307.045 579.209 323.835C581.605 340.645 576.192 358.365 566.022 371.803C554.505 387.02 538.281 394.784 519.751 397.463C506.219 397.66 493.046 394.704 481.516 387.355C467.068 378.147 456.639 361.692 453.126 344.986C449.644 328.431 452.859 310.454 462.219 296.298C471.797 281.812 486.685 272.523 503.5 268.913C506.544 268.259 509.527 267.968 512.625 267.7Z"/>
	<path fill="#1A59CF" d="M790.782 665.187C801.013 664.387 811.884 664.816 821.761 667.869C836.981 672.574 851.633 680.855 861.882 693.25C865.554 697.691 868.616 703.007 871.305 708.089C868.325 714.684 864.081 721.058 860.26 727.212C837.897 763.226 808.715 796.502 776.223 823.668L748.633 845.275L751.715 787.638L766.132 783.702C763.643 751.141 755.371 721.751 732.724 697.178L733 696.811C747.557 677.951 767.518 668.166 790.782 665.187Z"/>
	<path fill="#1A59CF" d="M221.291 663.199L224.645 663.045C251.798 662.343 275.064 677.087 294.061 695.095C278.407 709.111 267.393 731.641 262.814 752.023C260.566 762.028 259.706 772.364 258.871 782.571L273.878 787.985L278.682 848.666L259.608 834.581C215.308 800.223 179.282 756.767 152.014 707.893L159.917 696.315C175.21 677.269 197.171 665.772 221.291 663.199Z"/>
	<path fill="#1A59CF" d="M646.808 669.208C667.992 668.135 691.623 675.193 708.562 687.975C730.793 704.749 744.894 725.829 751.858 752.75C753.845 760.429 754.784 768.287 755.884 776.125L710.181 787.813L712.931 867.795L645.482 899.028L596.95 912.704L607.463 814.303L620.091 811.232L618.14 794.088C614.46 770.18 605.037 747.714 588.679 729.641C582.482 722.793 575.348 716.899 567.918 711.444L568.923 710.206C584.891 691.145 605.218 677.272 629.664 671.567C635.3 670.252 641.053 669.692 646.808 669.208Z"/>
	<path fill="#1A59CF" d="M368.265 668.703L379.135 668.98C409.809 671.141 435.401 689.63 455.019 712.176L443.972 720.919C425.658 737.186 412.643 761.814 408.281 785.866C406.719 794.474 406.461 803.14 405.955 811.854L416.273 814.028L427.422 912.853L384.266 901.185C358.501 893.338 333.652 881.211 310.048 868.384L314.566 790.915L269.198 775.942C270.454 749.232 280.131 723.62 297.711 703.379C315.499 682.9 341.319 670.569 368.265 668.703Z"/>
	<path fill="#1A59CF" d="M504.121 703.689C525.157 701.718 547.818 708.721 564.762 721.124C583.38 734.752 597.415 754.695 604.25 776.691C606.988 785.501 608.374 794.578 609.736 803.68L566.522 813.819L563.036 918.812L522.625 922.026L461.148 918.9L456.95 814.183L416.005 803.618C416.892 796.764 417.426 789.963 418.871 783.18C422.127 767.894 429.501 752.388 439.159 740.133C455.554 719.328 477.752 706.774 504.121 703.689Z"/>
	<path fill="#1A59CF" d="M491.492 403.672C494.662 403.122 497.492 404.535 500.562 405.187C503.911 405.899 507.329 406.325 510.75 406.484C516.205 406.738 521.449 406.472 526.798 405.384C529.19 404.898 531.617 403.993 534.051 403.796C536.7 403.582 539.884 404.443 542.5 404.952C555.102 407.404 567.734 411.964 578.896 418.314C602.789 431.905 622.6 452.404 636.442 476.035C639.635 481.485 642.83 487.016 645.271 492.851C647.995 499.36 649.642 505.976 651.524 512.743C636.941 523.238 627.842 534.038 624.591 552.1L622.445 549C616.499 540.578 608.402 533.182 597.878 531.451L597.019 531.318C589.145 530.017 581.169 531.762 574.352 535.883C559.803 544.676 555.632 560.719 551.899 576.162L550.544 569.5C547.707 558.85 539.899 549.895 530.533 544.412C526.609 542.318 522.304 540.702 517.912 539.932C508.965 538.363 498.576 540.869 491.295 546.25C479.608 554.887 476.381 566.435 474.476 580.063L468.468 558.508C465.313 547.643 459.34 539.419 449.222 534.112C441.522 530.073 431.981 529.099 423.714 531.838C413.181 535.328 406 543.871 401.23 553.505C401.098 550.096 400.805 546.867 399.941 543.542C396.609 530.716 388.678 521.567 377.422 514.907C383.307 494.846 392.43 475.451 404.719 458.501C425.619 429.674 456.135 409.334 491.492 403.672Z"/>
	<path fill="#1A59CF" d="M529.81 102.985C553.146 104.315 575.852 106.649 598.75 111.504C657.484 123.956 711.915 150.428 759.519 186.723C773.347 197.266 786.822 208.519 799.045 220.916L756.107 257.848L779.717 282.388L821.567 245.748C833.139 258.16 843.314 272.412 852.652 286.547C882.603 331.885 903.42 383.485 913.211 436.97C916.755 456.329 918.594 475.882 919.493 495.526L849.946 496.034L849.417 485.858C848.348 470.407 845.566 455.062 842.048 440C830.154 389.073 807.089 343.149 774.338 302.515C766.308 292.553 758.265 282.384 748.596 273.934C740.257 280.353 732.539 287.565 724.114 293.912C704.706 308.534 683.339 320.924 661.512 331.533C665.304 346.52 669.236 361.489 672.145 376.681C677.284 403.528 679.869 430.64 681.006 457.927C678.501 461.752 675.268 464.863 672.519 468.497C669.81 472.079 667.804 476.187 665.767 480.172L659.538 480.412C660.496 443.473 656.862 405.937 649.475 369.75C647.505 360.095 644.867 350.498 642.44 340.944L583.419 359.931C585.683 352.473 587.313 345.643 588.002 337.847C604.321 334.281 620.477 327.824 636.014 321.782C630.483 303.87 623.205 287.045 614.63 270.392C600.885 243.702 584.05 219.169 560.68 200.017C553.418 194.449 545.597 189.923 537.001 186.75C517.962 179.722 497.938 181.178 479.638 189.778C461.96 198.086 447.975 212.453 436.122 227.69C414.436 255.569 398.998 287.39 387.094 320.513C398.943 324.912 410.651 329.062 422.741 332.798C429.32 334.831 436.02 337.094 442.82 338.224C443.094 345.833 445.283 352.733 447.621 359.918L381.405 340.176C371.694 375.722 365.884 412.428 364.041 449.238C363.324 463.552 363.471 477.945 363.66 492.271C357.856 480.665 351.703 470.705 343.488 460.628C343.296 449.15 344.367 437.439 345.429 426.014C348.414 393.918 354.346 363.11 362.409 331.94C340.065 320.832 318.278 308.521 298.309 293.483C290.311 287.46 282.658 280.743 275.009 274.274C225.323 323.014 192.298 386.714 179.299 454.896C176.73 468.37 175.848 481.86 174.366 495.458L103.334 495.4C103.721 478.705 105.825 461.697 108.582 445.254C116.533 397.819 132.957 350.743 157.002 309C170.394 285.752 186.308 264.188 203.399 243.552L244.557 282.789L266.358 259.515L225.342 220.561C237.978 206.939 252.965 195.042 267.844 183.984C332.225 136.141 408.659 107.951 488.74 103.209L494.531 103.018L494.664 162.826C506.523 161.419 518.017 162.168 529.858 163.161L529.81 102.985Z"/>
	<path fill="white" d="M562.156 177.6C571.834 177.699 582.988 181.182 592.31 183.557C620.861 190.833 648.953 202.307 674.479 217.064C695.732 229.35 715.234 243.82 734.157 259.388C725.451 268.288 715.054 275.562 705.073 282.939C689.299 293.966 672.05 304.876 654.307 312.418C649.258 299.219 644.548 285.973 638.659 273.106C629.918 254.008 619.093 235.757 606.619 218.865C597.938 207.109 588.56 195.854 576.968 186.834C572.211 183.131 567.283 180.643 562.156 177.6Z"/>
	<path fill="white" d="M460.969 177.202L461.265 177.75C440.425 188.909 425.111 207.367 411.876 226.547C393.721 252.859 379.422 281.644 369.069 311.897L319.932 283.603C309.383 276.288 298.442 268.447 289.513 259.209C324.447 228.306 366.932 203.153 411.5 189.052C427.778 183.902 444.227 180.402 460.969 177.202Z"/>
</svg>
