<?xml version="1.0" encoding="utf-8"?>
<svg viewBox="0 0 500 670" width="500" height="670" xmlns="http://www.w3.org/2000/svg">
  <path d="M 8.219 313.178 C 10.384 312.953 12.535 312.515 14.666 311.863 C 14.676 312.105 14.679 312.358 14.676 312.632 C 12.538 313.134 10.377 313.318 8.219 313.178 Z M 14.072 323.185 L 13.441 323.323 C 12.903 323.238 12.367 323.145 11.831 323.049 C 12.309 322.868 12.786 322.701 13.262 322.532 C 13.68 322.466 14.096 322.402 14.507 322.312 C 14.378 322.671 14.234 322.962 14.072 323.185 Z M 7.945 306.446 C 9.511 306.042 11.093 305.786 12.681 305.679 L 12.82 305.679 C 12.911 306.023 12.991 306.375 13.062 306.728 C 11.366 306.873 9.657 306.76 7.945 306.446 Z M 11.23 300.793 C 11.355 301.212 11.491 301.624 11.634 302.042 C 11.176 302.03 10.72 302.005 10.263 302.014 C 9.276 301.955 8.29 301.88 7.307 301.789 C 8.605 301.376 9.914 301.044 11.23 300.793 Z M 13.372 291.538 C 13.356 291.69 13.347 291.844 13.339 292.001 C 11.674 292.118 10.009 292.246 8.347 292.363 C 8.261 292.313 8.174 292.271 8.088 292.214 C 9.839 291.814 11.603 291.645 13.372 291.538 Z M 480.805 282.335 C 473.498 281.608 487.444 280.886 480.817 280.173 C 497.914 279.448 480.195 278.728 480.829 278.019 C 473.466 277.289 472.041 276.562 480.841 275.849 C 480.801 275.808 480.789 275.768 480.787 275.732 L 461.658 275.732 L 461.658 274.804 C 461.544 275.116 461.44 275.46 461.331 275.732 L 445.325 275.732 C 445.204 275.82 445.082 275.917 444.965 276.019 C 444.447 275.945 443.928 275.945 443.411 276.016 C 442.826 275.915 442.237 275.909 441.653 275.997 C 441.067 275.896 440.476 275.888 439.892 275.976 C 439.311 275.875 438.722 275.867 438.142 275.955 C 437.555 275.852 436.961 275.844 436.373 275.933 C 435.787 275.832 435.198 275.822 434.612 275.912 C 434.026 275.809 433.437 275.806 432.851 275.894 C 432.265 275.792 431.676 275.784 431.092 275.873 C 430.507 275.771 429.917 275.763 429.331 275.852 C 428.746 275.75 428.157 275.742 427.573 275.832 C 426.989 275.729 426.398 275.721 425.814 275.809 C 425.232 275.712 424.645 275.704 424.062 275.788 C 423.475 275.686 422.882 275.676 422.295 275.768 C 421.709 275.665 421.12 275.659 420.537 275.747 C 419.951 275.646 419.36 275.638 418.776 275.726 C 418.192 275.625 417.603 275.617 417.017 275.705 C 416.431 275.604 415.842 275.598 415.256 275.688 C 414.668 275.587 414.081 275.577 413.496 275.665 C 412.913 275.564 412.328 275.556 411.745 275.643 C 411.156 275.539 410.563 275.531 409.974 275.622 C 409.39 275.52 408.799 275.513 408.215 275.601 C 407.629 275.499 407.038 275.492 406.454 275.58 C 405.869 275.478 405.28 275.473 404.696 275.563 C 404.112 275.46 403.523 275.452 402.938 275.542 C 402.352 275.439 401.762 275.431 401.177 275.52 C 400.593 275.419 400.002 275.411 399.418 275.499 C 398.838 275.401 398.251 275.393 397.67 275.478 C 397.079 275.375 396.487 275.367 395.897 275.457 C 395.312 275.356 394.722 275.348 394.138 275.436 C 393.552 275.335 392.963 275.327 392.377 275.417 C 391.791 275.315 391.202 275.307 390.618 275.396 C 390.033 275.294 389.443 275.286 388.858 275.375 C 388.274 275.273 387.683 275.268 387.097 275.356 C 386.513 275.254 385.924 275.247 385.339 275.335 C 384.757 275.233 384.171 275.227 383.59 275.311 C 383.002 275.209 382.408 275.203 381.821 275.291 C 381.236 275.188 380.646 275.182 380.061 275.27 C 379.477 275.167 378.886 275.163 378.302 275.252 C 377.714 275.15 377.127 275.142 376.541 275.231 C 375.953 275.129 375.364 275.121 374.78 275.209 C 374.196 275.108 373.606 275.1 373.022 275.188 C 372.436 275.087 371.845 275.079 371.261 275.167 C 370.68 275.068 370.094 275.062 369.511 275.148 C 368.922 275.042 368.33 275.034 367.741 275.127 C 367.158 275.025 366.566 275.017 365.981 275.106 C 365.397 275.004 364.808 274.996 364.224 275.086 C 363.638 274.983 363.047 274.975 362.463 275.065 C 361.878 274.962 361.289 274.954 360.705 275.042 C 360.119 274.942 359.528 274.937 358.944 275.025 C 358.363 274.922 357.775 274.916 357.194 275.001 C 356.605 274.897 356.011 274.889 355.423 274.98 C 354.837 274.879 354.248 274.871 353.664 274.959 C 353.078 274.858 352.491 274.85 351.905 274.938 C 351.319 274.838 350.73 274.833 350.145 274.921 C 349.561 274.82 348.97 274.81 348.386 274.898 C 347.801 274.798 347.211 274.789 346.625 274.879 C 346.04 274.777 345.451 274.77 344.867 274.858 C 344.284 274.759 343.697 274.751 343.116 274.838 C 342.528 274.732 341.934 274.724 341.347 274.817 C 340.761 274.714 340.17 274.706 339.584 274.796 C 338.998 274.693 338.411 274.685 337.825 274.775 C 337.239 274.673 336.651 274.665 336.065 274.753 C 335.481 274.652 334.892 274.644 334.306 274.732 C 333.72 274.631 333.132 274.623 332.546 274.711 C 331.962 274.61 331.371 274.604 330.787 274.693 C 330.206 274.591 329.62 274.585 329.037 274.669 C 328.45 274.565 327.857 274.557 327.27 274.65 C 326.686 274.548 326.093 274.54 325.509 274.628 C 324.925 274.527 324.335 274.519 323.751 274.609 C 323.167 274.506 322.574 274.501 321.992 274.589 C 321.404 274.489 320.813 274.481 320.227 274.569 C 319.642 274.466 319.052 274.46 318.466 274.548 C 317.887 274.449 317.301 274.441 316.72 274.527 C 316.129 274.421 315.537 274.415 314.948 274.503 C 314.365 274.4 313.774 274.396 313.19 274.485 C 312.604 274.383 312.015 274.375 311.431 274.465 C 310.846 274.362 310.255 274.356 309.671 274.444 C 309.085 274.341 308.496 274.333 307.912 274.421 C 307.327 274.32 306.738 274.312 306.152 274.4 C 305.568 274.3 304.977 274.295 304.393 274.383 C 303.809 274.282 303.223 274.274 302.642 274.36 C 302.052 274.255 301.458 274.247 300.871 274.34 C 300.285 274.237 299.697 274.229 299.112 274.319 C 298.527 274.216 297.936 274.208 297.351 274.298 C 296.766 274.196 296.177 274.188 295.591 274.277 C 295.005 274.175 294.416 274.17 293.832 274.258 C 293.246 274.156 292.658 274.149 292.072 274.237 C 291.488 274.136 290.897 274.127 290.313 274.216 C 289.732 274.117 289.146 274.111 288.563 274.196 C 287.976 274.092 287.383 274.083 286.794 274.172 C 286.21 274.071 285.621 274.066 285.036 274.154 C 284.449 274.051 283.86 274.045 283.275 274.133 C 282.688 274.031 282.099 274.023 281.514 274.112 C 280.928 274.01 280.338 274.002 279.753 274.092 C 279.169 273.991 278.58 273.981 277.996 274.071 C 277.411 273.968 276.821 273.963 276.235 274.051 C 275.652 273.951 275.066 273.943 274.485 274.029 C 273.896 273.923 273.305 273.917 272.716 274.008 C 272.13 273.906 271.541 273.898 270.956 273.987 C 270.37 273.885 269.781 273.877 269.195 273.967 C 268.611 273.864 268.022 273.859 267.438 273.947 C 266.85 273.847 266.261 273.837 265.677 273.927 C 265.089 273.824 264.5 273.818 263.916 273.906 C 263.335 273.803 262.749 273.797 262.167 273.885 C 261.578 273.781 260.984 273.773 260.397 273.861 C 259.813 273.76 259.223 273.752 258.637 273.842 C 258.053 273.739 257.462 273.735 256.878 273.823 C 256.294 273.722 255.705 273.712 255.119 273.802 C 254.533 273.701 253.944 273.691 253.358 273.781 C 252.772 273.68 252.183 273.672 251.598 273.76 C 251.014 273.658 250.425 273.651 249.84 273.739 C 249.258 273.64 248.672 273.632 248.089 273.718 C 247.5 273.614 246.906 273.606 246.32 273.698 C 245.734 273.595 245.145 273.589 244.559 273.677 C 243.975 273.574 243.386 273.568 242.801 273.656 C 242.215 273.554 241.625 273.546 241.042 273.635 C 240.458 273.533 239.867 273.528 239.281 273.616 C 238.695 273.515 238.104 273.507 237.522 273.595 C 236.934 273.494 236.345 273.486 235.761 273.574 C 235.178 273.472 234.593 273.466 234.012 273.554 C 233.423 273.45 232.829 273.442 232.242 273.531 C 231.656 273.429 231.067 273.424 230.482 273.512 C 229.898 273.411 229.307 273.403 228.723 273.491 C 228.137 273.39 227.548 273.382 226.962 273.47 C 226.378 273.369 225.787 273.36 225.203 273.45 C 224.618 273.349 224.027 273.339 223.443 273.429 C 222.862 273.329 222.274 273.323 221.693 273.408 C 221.106 273.304 220.514 273.296 219.924 273.387 C 219.337 273.285 218.749 273.278 218.165 273.366 C 217.579 273.264 216.988 273.257 216.404 273.345 C 215.818 273.243 215.231 273.237 214.645 273.325 C 214.06 273.224 213.471 273.214 212.885 273.304 C 212.299 273.203 211.709 273.197 211.124 273.285 C 210.538 273.184 209.951 273.176 209.365 273.264 C 208.784 273.163 208.196 273.155 207.615 273.243 C 207.027 273.139 206.434 273.131 205.846 273.221 C 205.26 273.118 204.669 273.11 204.085 273.2 C 203.501 273.097 202.912 273.093 202.327 273.181 C 201.74 273.08 201.151 273.07 200.566 273.16 C 199.98 273.059 199.391 273.051 198.805 273.139 C 198.221 273.037 197.632 273.03 197.047 273.118 C 196.463 273.016 195.872 273.009 195.286 273.097 C 194.705 272.998 194.121 272.99 193.538 273.077 C 192.949 272.972 192.357 272.964 191.768 273.056 C 191.182 272.955 190.593 272.947 190.008 273.035 C 189.422 272.934 188.832 272.924 188.247 273.014 C 187.663 272.913 187.072 272.905 186.488 272.993 C 185.902 272.892 185.314 272.884 184.728 272.972 C 184.144 272.87 183.553 272.865 182.969 272.955 C 182.383 272.852 181.794 272.846 181.21 272.934 C 180.627 272.832 180.039 272.824 179.458 272.913 C 178.869 272.808 178.277 272.8 177.689 272.889 C 177.105 272.787 176.514 272.779 175.93 272.868 C 175.346 272.766 174.756 272.761 174.171 272.849 C 173.585 272.748 172.995 272.74 172.411 272.828 C 171.825 272.726 171.234 272.72 170.65 272.808 C 170.066 272.705 169.477 272.699 168.892 272.787 C 168.31 272.688 167.724 272.68 167.141 272.766 C 166.555 272.662 165.959 272.654 165.374 272.745 C 164.786 272.644 164.195 272.636 163.613 272.726 C 163.025 272.623 162.436 272.615 161.852 272.704 C 161.266 272.603 160.675 272.595 160.091 272.683 C 159.506 272.582 158.917 272.572 158.333 272.662 C 157.747 272.559 157.158 272.556 156.573 272.644 C 155.987 272.542 155.398 272.534 154.812 272.623 C 154.23 272.521 153.645 272.513 153.061 272.599 C 152.475 272.495 151.881 272.487 151.294 272.579 C 150.706 272.476 150.119 272.47 149.533 272.558 C 148.948 272.457 148.356 272.449 147.772 272.537 C 147.189 272.436 146.598 272.43 146.014 272.518 C 145.429 272.417 144.839 272.409 144.254 272.497 C 143.668 272.396 143.078 272.388 142.493 272.476 C 141.907 272.375 141.32 272.367 140.734 272.457 C 140.153 272.358 139.565 272.35 138.986 272.436 C 138.392 272.331 137.795 272.323 137.204 272.415 C 136.621 272.313 136.035 272.306 135.454 272.396 C 134.87 272.294 134.281 272.287 133.695 272.375 C 133.106 272.271 132.512 272.266 131.923 272.358 C 131.341 272.258 130.756 272.249 130.176 272.337 C 129.592 272.234 129.003 272.228 128.417 272.318 C 127.828 272.214 127.232 272.206 126.643 272.297 C 126.062 272.198 125.477 272.193 124.895 272.279 C 124.306 272.174 123.712 272.169 123.124 272.26 C 122.541 272.161 121.955 272.153 121.376 272.239 C 120.792 272.138 120.202 272.13 119.618 272.218 C 119.027 272.118 118.433 272.113 117.846 272.201 C 117.263 272.098 116.679 272.094 116.096 272.182 C 115.507 272.078 114.913 272.071 114.325 272.161 C 113.744 272.062 113.158 272.057 112.579 272.143 C 111.993 272.041 111.404 272.033 110.819 272.122 C 110.23 272.02 109.636 272.015 109.047 272.105 C 108.465 272.002 107.88 271.998 107.301 272.086 C 106.708 271.982 106.116 271.974 105.527 272.065 C 104.944 271.966 104.36 271.961 103.779 272.047 C 103.194 271.945 102.604 271.937 102.019 272.026 C 101.43 271.924 100.836 271.919 100.249 272.007 C 99.668 271.906 99.082 271.9 98.502 271.99 C 97.913 271.887 97.324 271.879 96.74 271.969 C 96.15 271.866 95.558 271.858 94.967 271.948 C 94.385 271.849 93.802 271.842 93.221 271.929 C 92.632 271.825 92.039 271.82 91.449 271.911 C 90.867 271.812 90.283 271.804 89.702 271.89 C 89.116 271.788 88.527 271.783 87.943 271.873 C 87.352 271.77 86.758 271.762 86.169 271.85 C 85.586 271.751 85.002 271.748 84.422 271.833 C 83.838 271.73 83.249 271.724 82.664 271.812 C 82.072 271.709 81.48 271.705 80.891 271.794 C 80.308 271.692 79.724 271.687 79.142 271.775 C 78.492 271.661 77.838 271.661 77.189 271.775 C 76.502 271.671 75.808 271.695 75.126 271.842 C 74.54 271.783 73.951 271.812 73.368 271.933 C 72.779 271.873 72.188 271.903 71.602 272.028 C 71.018 271.969 70.429 271.999 69.849 272.119 C 69.263 272.06 68.674 272.092 68.091 272.212 C 67.502 272.151 66.91 272.185 66.326 272.306 C 65.741 272.247 65.152 272.276 64.573 272.398 C 63.988 272.339 63.399 272.367 62.815 272.491 C 62.227 272.43 61.638 272.459 61.054 272.582 C 60.465 272.518 59.875 272.55 59.291 272.676 C 58.707 272.615 58.118 272.646 57.538 272.766 C 56.951 272.704 56.361 272.736 55.777 272.86 C 55.19 272.798 54.599 272.828 54.016 272.955 C 53.43 272.894 52.841 272.923 52.262 273.046 C 51.674 272.985 51.085 273.014 50.502 273.136 C 49.913 273.075 49.321 273.105 48.736 273.23 C 48.152 273.169 47.566 273.203 46.987 273.323 C 46.399 273.262 45.81 273.293 45.229 273.413 C 44.64 273.35 44.052 273.382 43.468 273.507 C 42.879 273.445 42.286 273.477 41.7 273.602 C 41.116 273.541 40.53 273.568 39.951 273.691 C 39.361 273.632 38.772 273.661 38.191 273.784 C 37.6 273.722 37.01 273.752 36.425 273.877 C 35.839 273.818 35.254 273.848 34.672 273.968 C 34.085 273.909 33.497 273.936 32.913 274.059 C 32.324 274 31.733 274.031 31.149 274.156 C 30.565 274.096 29.977 274.125 29.397 274.247 C 28.808 274.188 28.221 274.216 27.638 274.34 C 27.051 274.279 26.463 274.308 25.879 274.431 C 25.291 274.367 24.697 274.399 24.113 274.524 C 23.529 274.465 22.941 274.495 22.36 274.615 C 21.963 274.581 21.607 274.642 21.236 274.676 C 21.105 274.436 20.937 274.242 20.738 274.247 C 15.939 274.319 11.264 275.111 6.626 276.848 L 2.819 276.848 C 1.932 276.848 1.932 278.961 2.819 278.961 L 3.794 278.961 C 3.844 279.424 4.071 279.834 4.449 279.826 C 4.607 279.821 4.761 279.805 4.918 279.8 C 4.961 280.242 5.158 280.642 5.534 280.65 C 6.196 280.66 6.854 280.679 7.511 280.697 C 5.253 281.288 2.967 281.717 0.648 282.091 C -0.195 282.224 -0.237 284.158 0.648 284.153 C 1.836 284.14 3.026 284.089 4.214 284.008 C 4.239 284.022 4.249 284.065 4.276 284.075 C 4.366 284.108 4.451 284.132 4.539 284.163 C 4.23 284.667 4.403 285.708 4.995 285.825 L 5.153 285.857 C 5.019 286.002 4.934 286.244 4.932 286.508 L 3.364 286.508 C 2.662 286.508 2.512 288.088 3.195 288.391 C 5.077 289.215 6.97 289.766 8.874 290.157 C 7.883 290.337 6.895 290.563 5.915 290.898 C 5.437 291.059 5.334 292.054 5.69 292.512 C 4.915 292.545 4.138 292.598 3.364 292.608 C 2.569 292.619 2.569 294.506 3.364 294.497 C 3.52 294.497 3.677 294.489 3.834 294.485 C 5.001 294.828 6.168 295.091 7.339 295.311 C 5.959 295.494 4.579 295.753 3.203 296.138 C 2.63 296.301 2.622 297.772 3.203 297.921 C 3.997 298.121 4.79 298.283 5.587 298.414 C 5.467 298.867 5.57 299.475 5.927 299.608 C 6.388 299.783 6.847 299.917 7.307 300.039 C 6.117 300.406 4.934 300.854 3.759 301.425 C 3.13 301.728 3.301 303.009 3.906 303.095 C 4.649 303.202 5.393 303.27 6.138 303.353 C 6.17 303.601 6.256 303.825 6.48 303.897 C 6.615 303.94 6.751 303.961 6.887 304.003 C 5.893 304.016 4.897 304.02 3.906 304.024 C 3.208 304.024 3.208 305.685 3.906 305.681 L 5.176 305.681 C 5.069 305.729 4.958 305.754 4.852 305.799 C 4.366 306.007 4.313 307.225 4.852 307.386 C 6.349 307.818 7.854 308.133 9.356 308.296 C 7.745 308.652 6.133 308.978 4.513 309.273 C 3.769 309.284 3.024 309.289 2.277 309.289 C 1.731 309.289 1.668 310.334 2.036 310.69 C 1.529 310.815 1.021 310.932 0.514 311.061 C -0.014 311.2 0.083 312.328 0.514 312.553 C 2.068 313.37 3.634 313.936 5.208 314.297 C 3.695 314.425 2.174 314.502 0.648 314.521 C 0.005 314.526 0.005 316.059 0.648 316.048 C 1.044 316.045 1.433 316.005 1.828 315.997 C 1.756 316.375 1.83 316.808 2.145 316.885 C 2.19 316.9 2.232 316.905 2.277 316.914 L 2.28 316.914 C 4.318 317.423 6.351 317.668 8.381 317.734 C 8.346 317.95 8.357 318.174 8.446 318.341 C 6.684 318.939 4.939 319.655 3.234 320.655 C 2.717 320.956 2.808 322.058 3.364 322.115 C 5.077 322.292 6.756 322.178 8.414 321.888 C 8.272 322.295 8.427 322.929 8.794 322.921 L 8.861 322.919 C 8.933 323.327 9.367 323.622 9.946 323.828 C 10.172 323.953 10.398 324.059 10.622 324.168 C 10.095 324.426 9.686 324.741 9.695 325.112 C 9.372 325.221 9.048 325.295 8.723 325.332 C 8.422 325.396 8.509 326.118 8.794 326.118 C 9.918 326.113 11.033 326.023 12.151 325.956 C 12.088 326.241 12.045 326.536 12.018 326.835 C 11.824 326.843 11.631 326.841 11.434 326.843 C 10.851 326.504 10.483 326.516 10.316 326.865 C 9.809 326.87 9.301 326.883 8.794 326.883 C 8.314 326.885 8.314 328.024 8.794 328.029 C 9.397 328.036 10.001 328.052 10.601 328.063 C 10.755 328.101 10.909 328.136 11.061 328.168 C 10.83 328.305 10.6 328.41 10.372 328.554 C 10.209 328.564 10.046 328.585 9.879 328.59 C 9.372 328.609 9.37 329.809 9.879 329.801 C 10.027 329.798 10.169 329.774 10.316 329.769 C 10.353 329.782 10.377 329.827 10.422 329.821 C 10.728 329.806 11.022 329.741 11.326 329.715 L 11.326 329.736 C 11.469 329.723 11.61 329.686 11.754 329.67 C 12.389 329.617 13.025 329.566 13.651 329.48 C 13.654 329.753 13.64 330.054 13.595 330.403 C 14.733 331.282 15.897 331.295 17.013 331.013 C 17.607 331.111 18.199 331.068 18.775 330.922 C 19.369 331.018 19.954 330.975 20.53 330.831 C 21.124 330.927 21.712 330.882 22.289 330.74 C 22.875 330.828 23.469 330.797 24.052 330.645 C 24.646 330.74 25.232 330.695 25.808 330.552 C 26.402 330.648 26.988 330.603 27.566 330.458 C 28.16 330.557 28.747 330.512 29.324 330.367 C 29.919 330.463 30.51 330.423 31.088 330.275 C 31.68 330.371 32.266 330.328 32.843 330.184 C 33.435 330.28 34.022 330.235 34.602 330.093 C 35.188 330.181 35.78 330.149 36.365 330 C 36.957 330.093 37.541 330.048 38.119 329.905 C 38.712 330.002 39.299 329.957 39.879 329.811 C 40.473 329.91 41.062 329.865 41.641 329.72 C 42.234 329.816 42.819 329.771 43.396 329.629 C 43.988 329.725 44.577 329.681 45.155 329.537 C 45.747 329.635 46.335 329.587 46.915 329.446 C 47.5 329.536 48.093 329.502 48.676 329.353 C 49.268 329.446 49.854 329.403 50.43 329.259 C 51.024 329.355 51.612 329.31 52.19 329.164 C 52.785 329.26 53.376 329.219 53.955 329.073 C 54.546 329.171 55.132 329.126 55.707 328.982 C 56.301 329.078 56.888 329.035 57.465 328.89 C 58.063 328.987 58.651 328.94 59.23 328.796 C 59.823 328.89 60.409 328.846 60.983 328.703 C 61.577 328.799 62.165 328.754 62.741 328.609 C 63.335 328.708 63.924 328.663 64.502 328.517 C 65.096 328.614 65.687 328.572 66.265 328.426 C 66.857 328.522 67.445 328.479 68.018 328.335 C 68.613 328.431 69.199 328.386 69.779 328.244 C 70.365 328.332 70.957 328.301 71.541 328.149 C 72.134 328.244 72.721 328.199 73.297 328.056 C 73.89 328.151 74.479 328.108 75.055 327.962 C 75.593 328.053 76.129 328.029 76.656 327.912 C 77.212 328.029 77.777 328.029 78.334 327.917 C 78.929 328.058 79.519 328.056 80.098 327.94 C 80.692 328.074 81.276 328.074 81.856 327.957 C 82.447 328.095 83.037 328.095 83.614 327.975 C 84.208 328.116 84.8 328.116 85.38 327.994 C 85.969 328.132 86.556 328.132 87.132 328.015 C 87.728 328.151 88.314 328.156 88.892 328.036 C 89.486 328.173 90.078 328.173 90.658 328.056 C 91.248 328.191 91.836 328.191 92.412 328.072 C 93.008 328.212 93.597 328.212 94.178 328.09 C 94.769 328.228 95.355 328.228 95.931 328.111 C 96.525 328.249 97.114 328.252 97.694 328.132 C 98.284 328.273 98.877 328.271 99.458 328.151 C 100.049 328.289 100.635 328.289 101.211 328.172 C 101.803 328.309 102.392 328.309 102.97 328.189 C 103.556 328.325 104.15 328.332 104.738 328.207 C 105.327 328.345 105.914 328.345 106.491 328.228 C 107.085 328.369 107.677 328.367 108.256 328.249 C 108.846 328.386 109.435 328.386 110.011 328.268 C 110.602 328.405 111.192 328.405 111.77 328.285 C 112.364 328.426 112.955 328.426 113.535 328.305 C 114.125 328.441 114.713 328.441 115.289 328.325 C 115.883 328.465 116.475 328.463 117.055 328.345 C 117.647 328.484 118.233 328.484 118.81 328.364 C 119.4 328.501 119.989 328.501 120.569 328.385 C 121.163 328.522 121.754 328.522 122.335 328.401 C 122.924 328.538 123.51 328.538 124.088 328.42 C 124.682 328.561 125.274 328.559 125.854 328.441 C 126.444 328.58 127.032 328.58 127.608 328.46 C 128.189 328.596 128.782 328.604 129.366 328.481 C 129.962 328.62 130.554 328.62 131.133 328.5 C 131.723 328.634 132.31 328.634 132.888 328.517 C 133.477 328.655 134.068 328.658 134.647 328.538 C 135.241 328.679 135.832 328.676 136.412 328.559 C 137.002 328.697 137.587 328.697 138.161 328.58 C 138.755 328.718 139.346 328.718 139.926 328.601 C 140.518 328.737 141.107 328.738 141.685 328.62 C 142.279 328.758 142.868 328.759 143.448 328.639 C 144.038 328.778 144.627 328.782 145.205 328.66 C 145.798 328.799 146.385 328.802 146.965 328.682 C 147.559 328.82 148.145 328.823 148.724 328.703 C 149.316 328.838 149.906 328.841 150.485 328.721 C 151.074 328.858 151.663 328.862 152.238 328.742 C 152.824 328.881 153.418 328.889 154.007 328.766 C 154.587 328.902 155.181 328.908 155.765 328.786 C 156.346 328.923 156.938 328.929 157.524 328.807 C 158.117 328.945 158.704 328.945 159.284 328.825 C 159.865 328.961 160.457 328.969 161.043 328.846 C 161.635 328.987 162.226 328.987 162.804 328.868 C 163.385 329.003 163.978 329.011 164.562 328.889 C 165.154 329.028 165.742 329.028 166.318 328.911 C 166.912 329.049 167.504 329.049 168.084 328.932 C 168.675 329.068 169.265 329.07 169.842 328.95 C 170.434 329.089 171.023 329.092 171.603 328.971 C 172.195 329.11 172.784 329.113 173.362 328.993 C 173.954 329.131 174.545 329.134 175.121 329.014 C 175.714 329.151 176.303 329.151 176.882 329.035 C 177.472 329.171 178.061 329.172 178.635 329.052 C 179.221 329.191 179.815 329.198 180.401 329.076 C 180.984 329.211 181.576 329.219 182.161 329.097 C 182.743 329.233 183.336 329.239 183.92 329.118 C 184.501 329.254 185.093 329.26 185.679 329.137 C 186.273 329.276 186.859 329.276 187.44 329.158 C 188.031 329.297 188.62 329.297 189.2 329.177 C 189.792 329.318 190.381 329.318 190.961 329.198 C 191.54 329.334 192.131 329.342 192.714 329.222 C 193.308 329.363 193.9 329.363 194.48 329.243 C 195.061 329.376 195.653 329.38 196.237 329.26 C 196.831 329.4 197.42 329.403 197.997 329.281 C 198.589 329.42 199.178 329.422 199.758 329.304 C 200.35 329.441 200.941 329.443 201.519 329.323 C 202.109 329.462 202.699 329.464 203.278 329.345 C 203.861 329.476 204.452 329.483 205.038 329.366 C 205.627 329.5 206.214 329.502 206.792 329.382 C 207.376 329.523 207.97 329.529 208.556 329.406 C 209.139 329.542 209.731 329.55 210.317 329.427 C 210.898 329.563 211.491 329.571 212.077 329.449 C 212.667 329.587 213.26 329.587 213.835 329.47 C 214.428 329.608 215.018 329.608 215.597 329.488 C 216.177 329.624 216.771 329.632 217.355 329.508 C 217.949 329.649 218.538 329.649 219.118 329.529 C 219.695 329.665 220.285 329.672 220.869 329.553 C 221.463 329.693 222.055 329.693 222.635 329.574 C 223.227 329.71 223.815 329.712 224.396 329.592 C 224.988 329.731 225.577 329.733 226.153 329.612 C 226.746 329.752 227.335 329.753 227.914 329.635 C 228.505 329.771 229.096 329.774 229.674 329.656 C 230.265 329.792 230.854 329.795 231.433 329.675 C 232.024 329.811 232.61 329.813 233.188 329.693 C 233.782 329.837 234.373 329.837 234.952 329.717 C 235.544 329.857 236.135 329.857 236.713 329.737 C 237.307 329.88 237.896 329.88 238.474 329.758 C 239.055 329.894 239.649 329.902 240.233 329.781 C 240.824 329.918 241.413 329.918 241.993 329.801 C 242.584 329.939 243.174 329.939 243.751 329.819 C 244.333 329.955 244.926 329.961 245.512 329.84 C 246.102 329.981 246.69 329.981 247.266 329.864 C 247.86 330.005 248.451 330.005 249.032 329.885 C 249.616 330.018 250.205 330.022 250.79 329.905 C 251.382 330.04 251.971 330.043 252.551 329.925 C 253.142 330.061 253.732 330.064 254.312 329.944 C 254.901 330.082 255.492 330.085 256.073 329.965 C 256.662 330.102 257.251 330.106 257.831 329.986 C 258.423 330.123 259.01 330.126 259.59 330.006 C 260.181 330.142 260.768 330.146 261.343 330.026 C 261.929 330.163 262.523 330.171 263.109 330.048 C 263.692 330.184 264.284 330.192 264.868 330.069 C 265.461 330.21 266.051 330.21 266.629 330.09 C 267.212 330.226 267.804 330.234 268.389 330.11 C 268.981 330.25 269.57 330.25 270.148 330.13 C 270.729 330.266 271.321 330.274 271.907 330.149 C 272.498 330.291 273.086 330.291 273.664 330.173 C 274.256 330.315 274.848 330.315 275.429 330.195 C 276.02 330.333 276.609 330.334 277.189 330.216 C 277.778 330.351 278.367 330.354 278.947 330.235 C 279.539 330.371 280.128 330.375 280.708 330.254 C 281.298 330.392 281.887 330.395 282.465 330.275 C 283.059 330.413 283.647 330.416 284.228 330.296 C 284.819 330.435 285.409 330.437 285.987 330.317 C 286.575 330.456 287.166 330.456 287.739 330.338 C 288.333 330.479 288.925 330.479 289.506 330.359 C 290.087 330.495 290.68 330.503 291.266 330.379 C 291.847 330.515 292.439 330.523 293.023 330.4 C 293.616 330.541 294.206 330.541 294.784 330.423 C 295.367 330.557 295.959 330.565 296.544 330.442 C 297.138 330.579 297.725 330.579 298.306 330.461 C 298.897 330.6 299.485 330.6 300.064 330.482 C 300.655 330.623 301.241 330.623 301.819 330.504 C 302.411 330.645 303.003 330.645 303.584 330.525 C 304.177 330.664 304.764 330.667 305.344 330.546 C 305.935 330.682 306.525 330.685 307.102 330.565 C 307.696 330.703 308.283 330.706 308.863 330.586 C 309.455 330.724 310.044 330.727 310.622 330.607 C 311.213 330.744 311.805 330.748 312.383 330.627 C 312.974 330.767 313.565 330.768 314.144 330.648 C 314.722 330.781 315.313 330.788 315.895 330.669 C 316.489 330.81 317.082 330.81 317.661 330.69 C 318.242 330.826 318.836 330.832 319.421 330.711 C 320.013 330.852 320.602 330.852 321.18 330.732 C 321.774 330.872 322.361 330.872 322.943 330.752 C 323.533 330.89 324.122 330.89 324.7 330.773 C 325.293 330.911 325.88 330.911 326.461 330.792 C 327.041 330.927 327.63 330.935 328.213 330.815 C 328.807 330.956 329.399 330.956 329.98 330.836 C 330.571 330.975 331.162 330.976 331.741 330.856 C 332.332 330.996 332.921 330.997 333.499 330.877 C 334.091 331.013 334.68 331.016 335.26 330.896 C 335.851 331.034 336.44 331.037 337.018 330.917 C 337.61 331.055 338.198 331.058 338.779 330.938 C 339.368 331.076 339.96 331.077 340.538 330.959 C 341.119 331.095 341.708 331.098 342.291 330.98 C 342.887 331.121 343.477 331.121 344.057 331 C 344.651 331.141 345.238 331.141 345.818 331.021 C 346.409 331.162 346.998 331.162 347.577 331.042 C 348.17 331.183 348.759 331.183 349.34 331.063 C 349.929 331.204 350.517 331.204 351.098 331.084 C 351.69 331.221 352.278 331.221 352.857 331.105 C 353.448 331.242 354.035 331.242 354.617 331.122 C 355.206 331.265 355.793 331.265 356.373 331.146 C 356.963 331.287 357.557 331.287 358.137 331.167 C 358.728 331.305 359.318 331.308 359.896 331.188 C 360.479 331.321 361.07 331.327 361.656 331.209 C 362.246 331.345 362.837 331.346 363.415 331.228 C 364.007 331.365 364.595 331.367 365.174 331.247 C 365.767 331.386 366.354 331.388 366.934 331.269 C 367.525 331.407 368.114 331.41 368.69 331.29 C 369.274 331.428 369.868 331.436 370.456 331.313 C 371.047 331.452 371.634 331.452 372.214 331.332 C 372.806 331.473 373.395 331.473 373.975 331.353 C 374.564 331.494 375.153 331.494 375.732 331.373 C 376.325 331.514 376.914 331.514 377.493 331.394 C 378.086 331.535 378.673 331.535 379.254 331.415 C 379.844 331.554 380.434 331.554 381.012 331.433 C 381.593 331.569 382.182 331.575 382.765 331.457 C 383.359 331.598 383.951 331.598 384.531 331.478 C 385.123 331.615 385.712 331.618 386.29 331.498 C 386.881 331.636 387.473 331.639 388.051 331.521 C 388.636 331.654 389.226 331.657 389.811 331.54 C 390.403 331.676 390.992 331.678 391.57 331.559 C 392.163 331.697 392.752 331.7 393.33 331.58 C 393.924 331.718 394.511 331.719 395.091 331.599 C 395.68 331.738 396.269 331.742 396.845 331.62 C 397.438 331.763 398.03 331.763 398.611 331.644 C 399.202 331.783 399.791 331.783 400.37 331.663 C 400.961 331.804 401.549 331.804 402.128 331.684 C 402.721 331.825 403.308 331.825 403.889 331.705 C 404.48 331.844 405.071 331.844 405.649 331.726 C 406.231 331.862 406.825 331.868 407.41 331.746 C 407.997 331.884 408.589 331.884 409.167 331.764 C 409.758 331.905 410.344 331.905 410.919 331.788 C 411.516 331.929 412.105 331.929 412.686 331.809 C 413.277 331.947 413.868 331.95 414.447 331.83 C 415.039 331.967 415.629 331.971 416.207 331.851 C 416.8 331.985 417.388 331.988 417.969 331.868 C 418.56 332.007 419.147 332.009 419.727 331.889 C 420.319 332.028 420.907 332.03 421.486 331.91 C 422.077 332.049 422.663 332.052 423.241 331.931 C 423.827 332.07 424.419 332.078 425.007 331.955 C 425.599 332.094 426.187 332.094 426.765 331.975 C 427.357 332.113 427.944 332.113 428.525 331.995 C 429.107 332.129 429.699 332.137 430.285 332.014 C 430.868 332.152 431.46 332.158 432.044 332.036 C 432.635 332.176 433.227 332.176 433.805 332.057 C 434.396 332.195 434.985 332.195 435.563 332.078 C 436.144 332.211 436.733 332.219 437.318 332.099 C 437.913 332.24 438.502 332.24 439.082 332.12 C 439.676 332.257 440.263 332.26 440.843 332.14 C 441.437 332.278 442.024 332.281 442.605 332.161 C 443.151 332.289 443.697 332.289 444.235 332.195 C 444.322 332.273 444.424 332.353 444.539 332.432 L 480.102 332.432 C 480.26 332.307 480.408 332.182 480.505 332.057 C 458.525 331.327 485.54 330.61 480.518 329.897 C 491.755 329.171 476.919 328.45 480.533 327.743 C 491.406 327.009 484.809 326.287 480.547 325.57 C 489.587 324.847 486.318 324.123 480.56 323.407 C 466.974 322.684 471.726 321.959 480.571 321.246 C 486.485 320.521 475.458 319.799 480.585 319.085 C 465.724 318.36 473.529 317.635 480.597 316.925 C 482.668 316.2 458.851 315.472 480.613 314.762 C 474.537 314.04 471.385 313.315 480.622 312.609 C 496.22 311.878 486.944 311.154 480.635 310.438 C 477.263 309.71 468.598 308.986 480.648 308.277 C 495.627 307.549 488.782 306.827 480.661 306.114 C 499.891 305.388 495.243 304.662 480.673 303.955 C 457.641 303.228 502.934 302.503 480.686 301.79 C 486.587 301.064 462.445 300.342 480.699 299.631 C 476.604 298.904 469.778 298.182 480.712 297.466 C 481.66 296.744 482.911 296.019 480.728 295.316 C 463.946 294.585 465.747 293.858 480.742 293.144 C 474.841 292.417 492.695 291.692 480.753 290.983 C 470.311 290.256 484.945 289.532 480.765 288.821 C 471.175 288.09 474.777 287.368 480.779 286.657 C 498.919 285.932 462.088 285.207 480.792 284.494 C 513.54 283.771 498.128 283.045 480.805 282.335 Z" style="fill: rgb(255, 255, 255);" transform="matrix(0.9999999999999999, 0, 0, 0.9999999999999999, 0, -2.842170943040401e-14)"/>
  <g id="svgGroup" stroke-linecap="round" fill-rule="evenodd" font-size="9pt" stroke="#000" stroke-width="0.1" fill="#d9c96d" style="stroke: rgb(0, 0, 0); stroke-width: 0.1; fill: rgb(217, 201, 109);" transform="matrix(0.33324399590492243, 0, 0, 0.33324399590492243, 21.30024337768549, 288.4440917968749)">
    <path d="M 6.2 51.8 L 6.2 16.1 L 0 14.7 L 0 7.7 L 32.3 7.7 L 32.3 14.7 L 23.9 16.2 L 23.9 53.2 A 48.168 48.168 0 0 0 24.499 61.166 Q 26.882 75.302 38.751 75.783 A 20.942 20.942 0 0 0 39.6 75.8 A 16.054 16.054 0 0 0 44.272 75.16 A 11.744 11.744 0 0 0 51.05 69.85 A 21.766 21.766 0 0 0 53.409 64.28 Q 54.7 59.645 54.7 53.4 L 54.7 16.1 L 46.1 14.7 L 46.1 7.7 L 72.1 7.7 L 72.1 14.7 L 65.5 16.1 L 65.5 52.5 Q 65.5 62.392 62.424 68.966 A 21.537 21.537 0 0 1 57.85 75.45 A 25.556 25.556 0 0 1 45.55 81.912 A 37.978 37.978 0 0 1 37.1 82.8 A 50.936 50.936 0 0 1 28.379 82.104 Q 19.254 80.515 13.9 75.3 A 22.844 22.844 0 0 1 8.438 66.58 Q 7.109 62.926 6.569 58.4 A 55.814 55.814 0 0 1 6.2 51.8 Z" id="0" vector-effect="non-scaling-stroke"/>
    <path d="M 82.7 74.5 L 82.7 36.9 L 76.8 35.1 L 76.8 27.3 L 95 25.1 L 95.3 25.1 L 97.9 27.2 L 97.9 30.9 L 97.8 33.2 A 26.133 26.133 0 0 1 102.196 29.89 A 35.492 35.492 0 0 1 106.7 27.6 Q 112.1 25.3 118 25.3 A 27.119 27.119 0 0 1 121.663 25.532 Q 125.132 26.006 127.45 27.45 A 10.949 10.949 0 0 1 131.143 31.341 A 15.674 15.674 0 0 1 132.45 34.3 A 25.577 25.577 0 0 1 133.33 37.922 Q 133.99 41.717 134 46.934 A 84.038 84.038 0 0 1 134 47.1 L 134 74.5 L 139.6 75.3 L 139.6 82 L 112.4 82 L 112.4 75.4 L 117.3 74.5 L 117.3 47.2 Q 117.3 42.782 116.749 40.185 A 14.156 14.156 0 0 0 116.65 39.75 A 9.468 9.468 0 0 0 116.106 38.134 Q 115.714 37.258 115.166 36.62 A 4.826 4.826 0 0 0 114.4 35.9 A 5.315 5.315 0 0 0 112.801 35.101 Q 112.069 34.87 111.18 34.772 A 12.632 12.632 0 0 0 109.8 34.7 A 12.005 12.005 0 0 0 106.023 35.356 Q 104.382 35.9 102.616 36.895 A 30.786 30.786 0 0 0 99.4 39 L 99.4 74.5 L 104.9 75.4 L 104.9 82 L 77.2 82 L 77.2 75.4 L 82.7 74.5 Z" id="1" vector-effect="non-scaling-stroke"/>
    <path d="M 152.3 74.5 L 152.3 36.9 L 145.6 35 L 145.6 27.5 L 165.6 25.1 L 165.8 25.1 L 168.9 27.2 L 168.9 74.5 L 174.9 75.4 L 174.9 82 L 146.1 82 L 146.1 75.4 L 152.3 74.5 Z M 158.5 17.8 L 158.4 17.8 A 10.747 10.747 0 0 1 155.585 17.45 A 7.953 7.953 0 0 1 152.1 15.5 A 7.69 7.69 0 0 1 149.716 10.182 A 10.341 10.341 0 0 1 149.7 9.6 A 10.908 10.908 0 0 1 150.172 6.324 A 8.911 8.911 0 0 1 152.35 2.7 A 8.811 8.811 0 0 1 157.115 0.214 A 12.717 12.717 0 0 1 159.5 0 A 14.089 14.089 0 0 1 162.197 0.242 Q 164.778 0.746 166.4 2.3 A 7.69 7.69 0 0 1 168.784 7.618 A 10.341 10.341 0 0 1 168.8 8.2 A 11.134 11.134 0 0 1 168.371 11.365 A 8.653 8.653 0 0 1 166.1 15.15 Q 163.573 17.631 159.119 17.789 A 17.358 17.358 0 0 1 158.5 17.8 Z" id="2" vector-effect="non-scaling-stroke"/>
    <path d="M 185.8 70.4 L 185.8 34.8 L 179.7 34.8 L 179.7 29 L 181.7 28.2 Q 183.941 27.453 185.658 26.619 A 23.196 23.196 0 0 0 185.9 26.5 A 12.026 12.026 0 0 0 187.991 23.824 A 16.183 16.183 0 0 0 189.1 21.5 A 49.819 49.819 0 0 0 190.067 18.967 Q 191.163 15.869 192.4 11.4 L 201.7 11.4 L 202.3 26.4 L 216.6 26.4 L 216.6 34.8 L 202.5 34.8 L 202.5 61.3 A 159.44 159.44 0 0 0 202.519 63.84 Q 202.574 67.271 202.79 68.926 A 13.741 13.741 0 0 0 202.8 69 A 10.206 10.206 0 0 0 202.978 69.975 Q 203.306 71.358 203.95 71.85 A 2.32 2.32 0 0 0 204.582 72.179 Q 205.237 72.412 206.269 72.476 A 13.5 13.5 0 0 0 207.1 72.5 Q 211.8 72.5 216 70.9 L 218.1 77.2 A 15.618 15.618 0 0 1 215.739 78.776 Q 214.531 79.444 213.046 80.05 A 39.366 39.366 0 0 1 209.8 81.2 Q 204.3 82.9 198.7 82.9 A 22.675 22.675 0 0 1 195.129 82.639 Q 193.277 82.342 191.803 81.711 A 9.335 9.335 0 0 1 188.95 79.85 Q 186.431 77.411 185.926 72.831 A 22.217 22.217 0 0 1 185.8 70.4 Z" id="3" vector-effect="non-scaling-stroke"/>
    <path d="M 228.7 74.5 L 228.7 36.9 L 222 35 L 222 27.5 L 242 25.1 L 242.2 25.1 L 245.3 27.2 L 245.3 74.5 L 251.3 75.4 L 251.3 82 L 222.5 82 L 222.5 75.4 L 228.7 74.5 Z M 234.9 17.8 L 234.8 17.8 A 10.747 10.747 0 0 1 231.985 17.45 A 7.953 7.953 0 0 1 228.5 15.5 A 7.69 7.69 0 0 1 226.116 10.182 A 10.341 10.341 0 0 1 226.1 9.6 A 10.908 10.908 0 0 1 226.572 6.324 A 8.911 8.911 0 0 1 228.75 2.7 A 8.811 8.811 0 0 1 233.515 0.214 A 12.717 12.717 0 0 1 235.9 0 A 14.089 14.089 0 0 1 238.597 0.242 Q 241.178 0.746 242.8 2.3 A 7.69 7.69 0 0 1 245.184 7.618 A 10.341 10.341 0 0 1 245.2 8.2 A 11.134 11.134 0 0 1 244.771 11.365 A 8.653 8.653 0 0 1 242.5 15.15 Q 239.973 17.631 235.519 17.789 A 17.358 17.358 0 0 1 234.9 17.8 Z" id="4" vector-effect="non-scaling-stroke"/>
    <path d="M 263.8 74.5 L 263.8 36.9 L 257.9 35.1 L 257.9 27.3 L 276.1 25.1 L 276.4 25.1 L 279 27.2 L 279 30.9 L 278.9 33.2 A 26.133 26.133 0 0 1 283.296 29.89 A 35.492 35.492 0 0 1 287.8 27.6 Q 293.2 25.3 299.1 25.3 A 27.119 27.119 0 0 1 302.763 25.532 Q 306.232 26.006 308.55 27.45 A 10.949 10.949 0 0 1 312.243 31.341 A 15.674 15.674 0 0 1 313.55 34.3 A 25.577 25.577 0 0 1 314.43 37.922 Q 315.09 41.717 315.1 46.934 A 84.038 84.038 0 0 1 315.1 47.1 L 315.1 74.5 L 320.7 75.3 L 320.7 82 L 293.5 82 L 293.5 75.4 L 298.4 74.5 L 298.4 47.2 Q 298.4 42.782 297.849 40.185 A 14.156 14.156 0 0 0 297.75 39.75 A 9.468 9.468 0 0 0 297.206 38.134 Q 296.814 37.258 296.266 36.62 A 4.826 4.826 0 0 0 295.5 35.9 A 5.315 5.315 0 0 0 293.901 35.101 Q 293.169 34.87 292.28 34.772 A 12.632 12.632 0 0 0 290.9 34.7 A 12.005 12.005 0 0 0 287.123 35.356 Q 285.482 35.9 283.716 36.895 A 30.786 30.786 0 0 0 280.5 39 L 280.5 74.5 L 286 75.4 L 286 82 L 258.3 82 L 258.3 75.4 L 263.8 74.5 Z" id="5" vector-effect="non-scaling-stroke"/>
    <path d="M 382 24.8 L 385.6 24.8 L 385.6 37 L 375.7 37 Q 376.7 39.8 376.7 42.7 A 20.96 20.96 0 0 1 375.668 49.428 A 17.248 17.248 0 0 1 370.2 57.3 A 21.347 21.347 0 0 1 362.898 61.176 Q 359.77 62.165 355.991 62.512 A 46.913 46.913 0 0 1 351.7 62.7 A 56.568 56.568 0 0 1 348.398 62.61 Q 345.65 62.449 343.6 62 Q 343 63.2 342.65 64.5 A 14.174 14.174 0 0 0 342.465 65.264 Q 342.315 65.981 342.301 66.502 A 3.869 3.869 0 0 0 342.3 66.6 A 6.468 6.468 0 0 0 342.482 68.19 A 3.908 3.908 0 0 0 344.6 70.85 Q 346.346 71.723 350.281 71.934 A 51.18 51.18 0 0 0 353 72 L 363.3 72 A 43.416 43.416 0 0 1 370.87 72.6 Q 384.096 74.954 384.393 86.562 A 21.04 21.04 0 0 1 384.4 87.1 Q 384.4 93.7 379.8 98.7 A 27.158 27.158 0 0 1 372.535 104.251 A 35.08 35.08 0 0 1 367.75 106.35 Q 360.3 109 352 109 Q 340.278 109 334.076 105.898 A 16.092 16.092 0 0 1 332.05 104.7 A 15.207 15.207 0 0 1 328.184 100.898 Q 325.936 97.64 325.901 93.337 A 16.761 16.761 0 0 1 325.9 93.2 Q 325.9 89.2 328.6 85.6 Q 331.3 82 335.4 80.2 A 8.822 8.822 0 0 1 330.896 73.875 A 12.643 12.643 0 0 1 330.7 71.6 A 9.769 9.769 0 0 1 331.74 67.271 A 13.168 13.168 0 0 1 332.9 65.35 A 13.757 13.757 0 0 1 338.231 60.959 A 16.492 16.492 0 0 1 338.8 60.7 Q 329.863 57.399 328.121 48.393 A 24.722 24.722 0 0 1 327.7 43.7 Q 327.7 38 331.1 33.75 A 20.144 20.144 0 0 1 337.227 28.674 A 25.694 25.694 0 0 1 340.3 27.25 A 33.37 33.37 0 0 1 349.257 25.178 A 40.629 40.629 0 0 1 353.1 25 Q 365.6 25 371.4 29.6 A 9.259 9.259 0 0 1 372.675 28.346 Q 373.925 27.319 375.8 26.35 A 13.495 13.495 0 0 1 381.005 24.838 A 13.053 13.053 0 0 1 382 24.8 Z M 357.7 82.7 L 347.5 82.7 Q 345.9 82.7 343.9 82.5 A 12.358 12.358 0 0 0 342.39 86.34 Q 342.049 87.894 342.006 89.684 A 21.667 21.667 0 0 0 342 90.2 A 15.412 15.412 0 0 0 342.611 94.741 Q 344.15 99.731 349.57 101.037 A 18.529 18.529 0 0 0 353.9 101.5 A 17.398 17.398 0 0 0 358.705 100.863 A 14.166 14.166 0 0 0 363.3 98.6 A 9.35 9.35 0 0 0 367.131 91.766 A 13.201 13.201 0 0 0 367.2 90.4 Q 367.2 87.941 366.48 86.321 A 5.069 5.069 0 0 0 365.1 84.45 Q 363 82.7 357.7 82.7 Z M 352.7 55.9 A 8.752 8.752 0 0 0 355.096 55.593 A 6.003 6.003 0 0 0 358.75 52.75 A 11.359 11.359 0 0 0 359.859 50.066 Q 360.588 47.475 360.6 43.817 A 37.387 37.387 0 0 0 360.6 43.7 A 34.215 34.215 0 0 0 360.458 40.462 Q 360.152 37.26 359.189 35.27 A 7.715 7.715 0 0 0 358.7 34.4 A 6.18 6.18 0 0 0 354.556 31.682 A 9.975 9.975 0 0 0 352.6 31.5 A 8.524 8.524 0 0 0 348.539 32.408 Q 345.009 34.289 344.286 40.067 A 26.133 26.133 0 0 0 344.1 43.3 Q 344.1 55.526 352.196 55.889 A 11.233 11.233 0 0 0 352.7 55.9 Z" id="6" vector-effect="non-scaling-stroke"/>
    <path d="M 421.1 74.4 L 421.1 16.1 L 413.6 14.7 L 413.6 7.7 L 447.7 7.7 L 447.7 14.7 L 438.2 16.1 L 438.2 74.2 L 457 73.2 L 463.5 53.4 L 472.9 54.6 L 470 82 L 413.4 82 L 413.4 75.4 L 421.1 74.4 Z" id="8" vector-effect="non-scaling-stroke"/>
    <path d="M 484.3 74.5 L 484.3 36.9 L 477.6 35 L 477.6 27.5 L 497.6 25.1 L 497.8 25.1 L 500.9 27.2 L 500.9 74.5 L 506.9 75.4 L 506.9 82 L 478.1 82 L 478.1 75.4 L 484.3 74.5 Z M 490.5 17.8 L 490.4 17.8 A 10.747 10.747 0 0 1 487.585 17.45 A 7.953 7.953 0 0 1 484.1 15.5 A 7.69 7.69 0 0 1 481.716 10.182 A 10.341 10.341 0 0 1 481.7 9.6 A 10.908 10.908 0 0 1 482.172 6.324 A 8.911 8.911 0 0 1 484.35 2.7 A 8.811 8.811 0 0 1 489.115 0.214 A 12.717 12.717 0 0 1 491.5 0 A 14.089 14.089 0 0 1 494.197 0.242 Q 496.778 0.746 498.4 2.3 A 7.69 7.69 0 0 1 500.784 7.618 A 10.341 10.341 0 0 1 500.8 8.2 A 11.134 11.134 0 0 1 500.371 11.365 A 8.653 8.653 0 0 1 498.1 15.15 Q 495.573 17.631 491.119 17.789 A 17.358 17.358 0 0 1 490.5 17.8 Z" id="9" vector-effect="non-scaling-stroke"/>
    <path d="M 508.7 32.8 L 508.7 26.4 L 537.1 26.4 L 537.1 32.8 L 530.8 34 L 539.2 60.4 L 541.8 69.5 L 543.9 60.5 L 552.2 34 L 546.1 32.8 L 546.1 26.4 L 569.2 26.4 L 569.2 32.8 L 564 34 L 545.8 82.8 L 532.4 82.8 L 512.6 34 L 508.7 32.8 Z" id="10" vector-effect="non-scaling-stroke"/>
    <path d="M 618.3 55.6 L 587 55.6 A 34.624 34.624 0 0 0 587.62 60.517 Q 588.146 63.082 589.068 65.137 A 15.074 15.074 0 0 0 591.15 68.55 A 11.9 11.9 0 0 0 599.029 72.844 A 17.344 17.344 0 0 0 601.4 73 A 24.48 24.48 0 0 0 606.407 72.462 A 30.296 30.296 0 0 0 609.15 71.75 A 37.643 37.643 0 0 0 611.97 70.764 Q 613.316 70.227 614.429 69.639 A 17.815 17.815 0 0 0 615.7 68.9 L 618.5 75 Q 615.9 77.9 609.65 80.5 Q 603.4 83.1 596.9 83.1 Q 587.368 83.1 581.272 79.348 A 19.572 19.572 0 0 1 576.6 75.35 Q 570 67.6 570 54.2 A 40.961 40.961 0 0 1 570.651 46.716 A 29.667 29.667 0 0 1 573.4 38.5 Q 576.8 31.9 582.95 28.45 A 26.669 26.669 0 0 1 591.94 25.409 A 35.161 35.161 0 0 1 597.4 25 A 33.28 33.28 0 0 1 603.619 25.544 Q 609.678 26.698 613.45 30.3 Q 618.854 35.461 619.186 44.792 A 34.013 34.013 0 0 1 619.2 45.3 Q 619.2 51.629 618.32 55.514 A 22.477 22.477 0 0 1 618.3 55.6 Z M 586.9 49 L 603.3 49 L 603.4 44.8 Q 603.4 38.5 601.7 35.2 Q 600.24 32.366 597.009 31.966 A 9.029 9.029 0 0 0 595.9 31.9 A 7.658 7.658 0 0 0 592.641 32.574 Q 591.013 33.329 589.825 34.929 A 9.84 9.84 0 0 0 589.4 35.55 Q 587.1 39.2 586.9 49 Z" id="11" vector-effect="non-scaling-stroke"/>
    <path d="M 636.5 65.8 L 639 73.7 Q 639.567 74.591 641.347 75.351 A 15.161 15.161 0 0 0 642.25 75.7 Q 644.8 76.6 647.4 76.6 A 15.381 15.381 0 0 0 649.758 76.432 Q 650.963 76.244 651.936 75.849 A 6.673 6.673 0 0 0 653.65 74.85 A 5.724 5.724 0 0 0 655.328 72.695 A 5.92 5.92 0 0 0 655.8 70.3 A 5.58 5.58 0 0 0 653.825 66.002 A 8.423 8.423 0 0 0 653 65.35 Q 650.2 63.4 643.8 60.6 L 640 58.9 A 33.868 33.868 0 0 1 635.582 56.55 Q 633.326 55.11 631.662 53.443 A 17.78 17.78 0 0 1 630.25 51.85 A 14.902 14.902 0 0 1 627.42 45.61 A 21.059 21.059 0 0 1 627 41.3 Q 627 36.7 629.7 33.05 A 15.862 15.862 0 0 1 633.752 29.262 A 21.839 21.839 0 0 1 637.5 27.3 A 26.792 26.792 0 0 1 643.379 25.669 Q 646.239 25.2 649.5 25.2 A 64.839 64.839 0 0 1 653.185 25.299 Q 654.929 25.399 656.456 25.598 A 34.079 34.079 0 0 1 657.8 25.8 Q 661.3 26.4 664.9 27.3 Q 666.796 27.853 667.942 28.032 A 7.934 7.934 0 0 0 668.5 28.1 L 668.5 41.7 L 659.6 41.7 L 657 34 A 2.19 2.19 0 0 0 656.551 33.452 Q 656.052 32.998 655.156 32.587 A 11.046 11.046 0 0 0 654.6 32.35 A 10.612 10.612 0 0 0 652.047 31.708 A 13.699 13.699 0 0 0 650.3 31.6 A 14.184 14.184 0 0 0 647.927 31.787 Q 645.761 32.155 644.3 33.25 A 5.423 5.423 0 0 0 642.65 35.188 Q 642.1 36.3 642.1 37.7 A 6.559 6.559 0 0 0 642.541 40.15 Q 643.15 41.677 644.6 42.75 A 21.937 21.937 0 0 0 646.244 43.842 Q 648.647 45.303 652.6 47.1 L 654.7 48 Q 660.53 50.447 664.547 53.179 A 32.003 32.003 0 0 1 667.4 55.35 A 12.94 12.94 0 0 1 671.851 63.816 A 18.526 18.526 0 0 1 672 66.2 Q 672 73.6 666.1 78.35 A 18.958 18.958 0 0 1 660.125 81.513 Q 655.348 83.1 648.7 83.1 A 56.853 56.853 0 0 1 644.292 82.938 Q 641.606 82.728 639.3 82.25 Q 635.2 81.4 630.3 80 L 627 79.1 L 627 65.8 L 636.5 65.8 Z" id="12" vector-effect="non-scaling-stroke"/>
    <path d="M 702.7 74.3 L 725 7.4 L 743 7.4 L 765.4 74.4 L 770.9 75.4 L 770.9 82 L 739.4 82 L 739.4 75.4 L 746.5 74.4 L 743.1 62.4 L 719.2 62.4 L 715.8 74.5 L 723.6 75.4 L 723.6 82 L 697 82 L 696.9 75.4 L 702.7 74.3 Z M 741 54.7 L 732.4 24.8 L 730.9 17.8 L 729.3 24.9 L 721.2 54.7 L 741 54.7 Z" id="14" vector-effect="non-scaling-stroke"/>
    <path d="M 818.4 28 L 817.7 46.1 L 807.6 46.1 L 805 34.6 A 2.474 2.474 0 0 0 803.728 32.93 A 3.52 3.52 0 0 0 803.35 32.75 A 6.971 6.971 0 0 0 801.964 32.356 Q 801.109 32.2 800.1 32.2 Q 795.4 32.2 792.75 36.8 A 14.861 14.861 0 0 0 791.41 40.069 Q 790.4 43.544 790.169 48.811 A 75.058 75.058 0 0 0 790.1 52.1 A 50.001 50.001 0 0 0 790.411 57.875 Q 791.121 63.961 793.45 67.75 A 13.218 13.218 0 0 0 795.901 70.74 A 9.601 9.601 0 0 0 802.5 73.2 Q 809.9 73.2 816.1 69.4 L 818.8 75.3 A 14.278 14.278 0 0 1 816.811 77.118 Q 814.682 78.751 811.376 80.326 A 49.536 49.536 0 0 1 810.9 80.55 A 27.669 27.669 0 0 1 801.574 82.978 A 33.282 33.282 0 0 1 798.7 83.1 Q 788.837 83.1 782.715 78.707 A 19.675 19.675 0 0 1 779.1 75.35 A 26.58 26.58 0 0 1 773.778 64.719 Q 772.6 60.135 772.6 54.6 A 37.25 37.25 0 0 1 773.445 46.495 A 29.108 29.108 0 0 1 776.2 39 Q 779.8 32.3 786.3 28.65 A 28.419 28.419 0 0 1 796.677 25.289 A 36.026 36.026 0 0 1 801.3 25 A 54.058 54.058 0 0 1 804.523 25.091 Q 806.739 25.224 808.55 25.55 A 50.637 50.637 0 0 1 813.605 26.741 A 57.085 57.085 0 0 1 814.8 27.1 A 160.993 160.993 0 0 0 815.81 27.376 Q 817.831 27.919 818.4 28 Z" id="15" vector-effect="non-scaling-stroke"/>
    <path d="M 826.1 82 L 826.1 75.4 L 832.2 74.5 L 832.2 36.9 L 826.3 35.1 L 826.3 27.3 L 842.9 25.1 L 843.2 25.1 L 846 27.2 L 846 29.6 L 845.7 37.9 L 846 37.9 A 10.068 10.068 0 0 1 846.694 36.23 Q 847.559 34.552 849.2 32.55 A 22.025 22.025 0 0 1 853.383 28.657 A 26.94 26.94 0 0 1 855.55 27.25 Q 859.4 25 863.9 25 A 15.553 15.553 0 0 1 865.373 25.065 Q 866.847 25.206 867.799 25.651 A 4.326 4.326 0 0 1 867.9 25.7 L 867.9 43.1 Q 866.3 41.9 864.45 41.2 A 9.537 9.537 0 0 0 862.844 40.76 Q 862.027 40.606 861.071 40.543 A 20.966 20.966 0 0 0 859.7 40.5 A 23.508 23.508 0 0 0 856.098 40.765 A 18.305 18.305 0 0 0 853.2 41.45 A 25.145 25.145 0 0 0 851.271 42.165 Q 850.381 42.54 849.647 42.947 A 11.443 11.443 0 0 0 848.6 43.6 L 848.6 74.5 L 859.6 75.5 L 859.6 82 L 826.1 82 Z" id="16" vector-effect="non-scaling-stroke"/>
    <path d="M 874.927 47.187 A 40.468 40.468 0 0 0 874.3 54.5 A 48.394 48.394 0 0 0 874.345 56.599 Q 874.866 68.598 881.45 75.55 A 23.237 23.237 0 0 0 892.807 82.125 A 33.327 33.327 0 0 0 901.1 83.1 A 36.979 36.979 0 0 0 904.129 82.978 A 30.546 30.546 0 0 0 915.4 79.9 A 23.38 23.38 0 0 0 919.664 77.161 A 25.016 25.016 0 0 0 925.6 70.1 A 24.186 24.186 0 0 0 926.577 68.215 Q 928.121 64.89 928.82 60.831 A 42.594 42.594 0 0 0 929.4 53.6 A 48.394 48.394 0 0 0 929.355 51.502 Q 928.834 39.503 922.25 32.55 A 23.251 23.251 0 0 0 910.811 25.965 A 33.797 33.797 0 0 0 902.5 25 A 35.532 35.532 0 0 0 901.781 25.008 A 30.44 30.44 0 0 0 888.35 28.3 A 24.083 24.083 0 0 0 884.556 30.707 A 25.257 25.257 0 0 0 878.1 38.25 Q 875.844 42.199 874.927 47.187 Z M 902.1 76.1 Q 906.9 76.1 909.25 70.95 A 19.721 19.721 0 0 0 910.438 67.377 Q 911.6 62.535 911.6 54.8 Q 911.6 45.244 910.099 39.791 A 20.34 20.34 0 0 0 909.35 37.55 A 11.163 11.163 0 0 0 907.843 34.867 A 7.257 7.257 0 0 0 901.8 32 A 7.562 7.562 0 0 0 894.889 36.449 Q 892.818 40.238 892.232 47.253 A 72.903 72.903 0 0 0 892 53.3 Q 892 62.861 893.63 68.346 A 19.785 19.785 0 0 0 894.4 70.5 A 11.687 11.687 0 0 0 895.979 73.207 A 7.445 7.445 0 0 0 902.1 76.1 Z" id="17" vector-effect="non-scaling-stroke"/>
    <path d="M 948.2 65.8 L 950.7 73.7 Q 951.267 74.591 953.047 75.351 A 15.161 15.161 0 0 0 953.95 75.7 Q 956.5 76.6 959.1 76.6 A 15.381 15.381 0 0 0 961.458 76.432 Q 962.663 76.244 963.636 75.849 A 6.673 6.673 0 0 0 965.35 74.85 A 5.724 5.724 0 0 0 967.028 72.695 A 5.92 5.92 0 0 0 967.5 70.3 A 5.58 5.58 0 0 0 965.525 66.002 A 8.423 8.423 0 0 0 964.7 65.35 Q 961.9 63.4 955.5 60.6 L 951.7 58.9 A 33.868 33.868 0 0 1 947.282 56.55 Q 945.026 55.11 943.362 53.443 A 17.78 17.78 0 0 1 941.95 51.85 A 14.902 14.902 0 0 1 939.12 45.61 A 21.059 21.059 0 0 1 938.7 41.3 Q 938.7 36.7 941.4 33.05 A 15.862 15.862 0 0 1 945.452 29.262 A 21.839 21.839 0 0 1 949.2 27.3 A 26.792 26.792 0 0 1 955.079 25.669 Q 957.939 25.2 961.2 25.2 A 64.839 64.839 0 0 1 964.885 25.299 Q 966.629 25.399 968.156 25.598 A 34.079 34.079 0 0 1 969.5 25.8 Q 973 26.4 976.6 27.3 Q 978.496 27.853 979.642 28.032 A 7.934 7.934 0 0 0 980.2 28.1 L 980.2 41.7 L 971.3 41.7 L 968.7 34 A 2.19 2.19 0 0 0 968.251 33.452 Q 967.752 32.998 966.856 32.587 A 11.046 11.046 0 0 0 966.3 32.35 A 10.612 10.612 0 0 0 963.747 31.708 A 13.699 13.699 0 0 0 962 31.6 A 14.184 14.184 0 0 0 959.627 31.787 Q 957.461 32.155 956 33.25 A 5.423 5.423 0 0 0 954.35 35.188 Q 953.8 36.3 953.8 37.7 A 6.559 6.559 0 0 0 954.241 40.15 Q 954.85 41.677 956.3 42.75 A 21.937 21.937 0 0 0 957.944 43.842 Q 960.347 45.303 964.3 47.1 L 966.4 48 Q 972.23 50.447 976.247 53.179 A 32.003 32.003 0 0 1 979.1 55.35 A 12.94 12.94 0 0 1 983.551 63.816 A 18.526 18.526 0 0 1 983.7 66.2 Q 983.7 73.6 977.8 78.35 A 18.958 18.958 0 0 1 971.825 81.513 Q 967.048 83.1 960.4 83.1 A 56.853 56.853 0 0 1 955.992 82.938 Q 953.306 82.728 951 82.25 Q 946.9 81.4 942 80 L 938.7 79.1 L 938.7 65.8 L 948.2 65.8 Z" id="18" vector-effect="non-scaling-stroke"/>
    <path d="M 1001 65.8 L 1003.5 73.7 Q 1004.067 74.591 1005.847 75.351 A 15.161 15.161 0 0 0 1006.75 75.7 Q 1009.3 76.6 1011.9 76.6 A 15.381 15.381 0 0 0 1014.258 76.432 Q 1015.463 76.244 1016.436 75.849 A 6.673 6.673 0 0 0 1018.15 74.85 A 5.724 5.724 0 0 0 1019.828 72.695 A 5.92 5.92 0 0 0 1020.3 70.3 A 5.58 5.58 0 0 0 1018.325 66.002 A 8.423 8.423 0 0 0 1017.5 65.35 Q 1014.7 63.4 1008.3 60.6 L 1004.5 58.9 A 33.868 33.868 0 0 1 1000.082 56.55 Q 997.826 55.11 996.162 53.443 A 17.78 17.78 0 0 1 994.75 51.85 A 14.902 14.902 0 0 1 991.92 45.61 A 21.059 21.059 0 0 1 991.5 41.3 Q 991.5 36.7 994.2 33.05 A 15.862 15.862 0 0 1 998.252 29.262 A 21.839 21.839 0 0 1 1002 27.3 A 26.792 26.792 0 0 1 1007.879 25.669 Q 1010.739 25.2 1014 25.2 A 64.839 64.839 0 0 1 1017.685 25.299 Q 1019.429 25.399 1020.956 25.598 A 34.079 34.079 0 0 1 1022.3 25.8 Q 1025.8 26.4 1029.4 27.3 Q 1031.296 27.853 1032.442 28.032 A 7.934 7.934 0 0 0 1033 28.1 L 1033 41.7 L 1024.1 41.7 L 1021.5 34 A 2.19 2.19 0 0 0 1021.051 33.452 Q 1020.552 32.998 1019.656 32.587 A 11.046 11.046 0 0 0 1019.1 32.35 A 10.612 10.612 0 0 0 1016.547 31.708 A 13.699 13.699 0 0 0 1014.8 31.6 A 14.184 14.184 0 0 0 1012.427 31.787 Q 1010.261 32.155 1008.8 33.25 A 5.423 5.423 0 0 0 1007.15 35.188 Q 1006.6 36.3 1006.6 37.7 A 6.559 6.559 0 0 0 1007.041 40.15 Q 1007.65 41.677 1009.1 42.75 A 21.937 21.937 0 0 0 1010.744 43.842 Q 1013.147 45.303 1017.1 47.1 L 1019.2 48 Q 1025.03 50.447 1029.047 53.179 A 32.003 32.003 0 0 1 1031.9 55.35 A 12.94 12.94 0 0 1 1036.351 63.816 A 18.526 18.526 0 0 1 1036.5 66.2 Q 1036.5 73.6 1030.6 78.35 A 18.958 18.958 0 0 1 1024.625 81.513 Q 1019.848 83.1 1013.2 83.1 A 56.853 56.853 0 0 1 1008.792 82.938 Q 1006.106 82.728 1003.8 82.25 Q 999.7 81.4 994.8 80 L 991.5 79.1 L 991.5 65.8 L 1001 65.8 Z" id="19" vector-effect="non-scaling-stroke"/>
    <path d="M 1075.5 74.3 L 1075.5 16.1 L 1067.3 14.7 L 1067.3 7.7 L 1101 7.7 L 1101 14.7 L 1092.6 16.1 L 1092.6 74.4 L 1101 75.5 L 1101 82 L 1067.4 82 L 1067.4 75.4 L 1075.5 74.3 Z" id="21" vector-effect="non-scaling-stroke"/>
    <path d="M 1114.8 74.5 L 1114.8 36.9 L 1108.9 35.1 L 1108.9 27.3 L 1127.1 25.1 L 1127.4 25.1 L 1130 27.2 L 1130 30.9 L 1129.9 33.2 A 26.133 26.133 0 0 1 1134.296 29.89 A 35.492 35.492 0 0 1 1138.8 27.6 Q 1144.2 25.3 1150.1 25.3 A 27.119 27.119 0 0 1 1153.763 25.532 Q 1157.232 26.006 1159.55 27.45 A 10.949 10.949 0 0 1 1163.243 31.341 A 15.674 15.674 0 0 1 1164.55 34.3 A 25.577 25.577 0 0 1 1165.43 37.922 Q 1166.09 41.717 1166.1 46.934 A 84.038 84.038 0 0 1 1166.1 47.1 L 1166.1 74.5 L 1171.7 75.3 L 1171.7 82 L 1144.5 82 L 1144.5 75.4 L 1149.4 74.5 L 1149.4 47.2 Q 1149.4 42.782 1148.849 40.185 A 14.156 14.156 0 0 0 1148.75 39.75 A 9.468 9.468 0 0 0 1148.206 38.134 Q 1147.814 37.258 1147.266 36.62 A 4.826 4.826 0 0 0 1146.5 35.9 A 5.315 5.315 0 0 0 1144.901 35.101 Q 1144.169 34.87 1143.28 34.772 A 12.632 12.632 0 0 0 1141.9 34.7 A 12.005 12.005 0 0 0 1138.123 35.356 Q 1136.482 35.9 1134.716 36.895 A 30.786 30.786 0 0 0 1131.5 39 L 1131.5 74.5 L 1137 75.4 L 1137 82 L 1109.3 82 L 1109.3 75.4 L 1114.8 74.5 Z" id="22" vector-effect="non-scaling-stroke"/>
    <path d="M 1213.4 25.7 L 1213.4 9.8 L 1203.8 8.4 L 1203.8 2 L 1225.9 0 L 1226.4 0 L 1229.4 2.4 L 1229.4 75.3 L 1234.6 75.3 L 1234.6 81.7 A 104.081 104.081 0 0 1 1229.613 82.554 Q 1227.241 82.898 1225.184 83.058 A 43.566 43.566 0 0 1 1221.8 83.2 A 16.958 16.958 0 0 1 1220.078 83.119 Q 1218.321 82.939 1217.241 82.36 A 3.977 3.977 0 0 1 1216.75 82.05 A 3.243 3.243 0 0 1 1215.732 80.729 Q 1215.2 79.534 1215.2 77.6 L 1215.2 75.1 A 16.124 16.124 0 0 1 1211.38 78.987 A 21.388 21.388 0 0 1 1208.3 80.85 Q 1203.8 83.1 1199 83.1 Q 1189.4 83.1 1183.4 76.2 Q 1177.4 69.3 1177.4 55.5 A 34.753 34.753 0 0 1 1179.261 44.038 A 32.313 32.313 0 0 1 1180.85 40.25 Q 1184.3 33.3 1191.05 29.15 Q 1197.8 25 1207.4 25 A 26.397 26.397 0 0 1 1212.053 25.428 A 30.523 30.523 0 0 1 1213.4 25.7 Z M 1213.4 70.2 L 1213.4 34 A 3.055 3.055 0 0 0 1212.766 33.405 Q 1212.121 32.941 1211.084 32.579 A 11.239 11.239 0 0 0 1210.85 32.5 A 12.51 12.51 0 0 0 1207.486 31.912 A 14.344 14.344 0 0 0 1206.9 31.9 A 9.582 9.582 0 0 0 1199.322 35.428 A 14.348 14.348 0 0 0 1198 37.25 Q 1194.7 42.6 1194.7 54.7 A 55.841 55.841 0 0 0 1194.921 59.862 Q 1195.401 65.006 1196.918 68.243 A 13.271 13.271 0 0 0 1197.5 69.35 A 11.709 11.709 0 0 0 1199.409 71.83 A 7.751 7.751 0 0 0 1205 74.1 Q 1207.8 74.1 1209.95 72.95 Q 1212.1 71.8 1213.4 70.2 Z" id="23" vector-effect="non-scaling-stroke"/>
    <path d="M 1247.3 74.5 L 1247.3 36.9 L 1240.6 35 L 1240.6 27.5 L 1260.6 25.1 L 1260.8 25.1 L 1263.9 27.2 L 1263.9 74.5 L 1269.9 75.4 L 1269.9 82 L 1241.1 82 L 1241.1 75.4 L 1247.3 74.5 Z M 1253.5 17.8 L 1253.4 17.8 A 10.747 10.747 0 0 1 1250.585 17.45 A 7.953 7.953 0 0 1 1247.1 15.5 A 7.69 7.69 0 0 1 1244.716 10.182 A 10.341 10.341 0 0 1 1244.7 9.6 A 10.908 10.908 0 0 1 1245.172 6.324 A 8.911 8.911 0 0 1 1247.35 2.7 A 8.811 8.811 0 0 1 1252.115 0.214 A 12.717 12.717 0 0 1 1254.5 0 A 14.089 14.089 0 0 1 1257.197 0.242 Q 1259.778 0.746 1261.4 2.3 A 7.69 7.69 0 0 1 1263.784 7.618 A 10.341 10.341 0 0 1 1263.8 8.2 A 11.134 11.134 0 0 1 1263.371 11.365 A 8.653 8.653 0 0 1 1261.1 15.15 Q 1258.573 17.631 1254.119 17.789 A 17.358 17.358 0 0 1 1253.5 17.8 Z" id="24" vector-effect="non-scaling-stroke"/>
    <path d="M 1307.9 47.7 L 1307.9 45.7 Q 1307.9 42.103 1307.101 40.003 A 7.356 7.356 0 0 0 1307.1 40 Q 1306.3 37.9 1304.2 36.85 A 8 8 0 0 0 1302.607 36.274 Q 1301.015 35.867 1298.757 35.81 A 29.86 29.86 0 0 0 1298 35.8 Q 1293.1 35.8 1289.25 36.95 A 59.392 59.392 0 0 0 1284.301 38.681 A 73.004 73.004 0 0 0 1281.2 40 L 1277.8 32.8 A 14.695 14.695 0 0 1 1278.858 32.026 Q 1280.413 30.98 1283 29.65 Q 1286.6 27.8 1291.65 26.45 Q 1296.7 25.1 1302.2 25.1 A 49.553 49.553 0 0 1 1306.863 25.305 Q 1311.622 25.757 1314.75 27.2 Q 1319.3 29.3 1321.25 33.7 A 19.271 19.271 0 0 1 1322.4 37.276 Q 1323.2 40.832 1323.2 45.7 L 1323.2 75.4 L 1328.4 75.4 L 1328.4 81.7 A 40.283 40.283 0 0 1 1326.787 82.013 Q 1325.095 82.308 1322.776 82.604 A 146.954 146.954 0 0 1 1322 82.7 A 81.516 81.516 0 0 1 1319.094 83.005 Q 1316.813 83.2 1315 83.2 Q 1311.2 83.2 1309.95 82.1 A 2.865 2.865 0 0 1 1309.245 81.099 Q 1308.821 80.15 1308.727 78.623 A 15 15 0 0 1 1308.7 77.7 L 1308.7 75.4 A 20.351 20.351 0 0 1 1305.564 78.404 Q 1303.969 79.649 1302 80.75 A 18.413 18.413 0 0 1 1295.291 82.914 A 23.415 23.415 0 0 1 1292.3 83.1 A 18.627 18.627 0 0 1 1286.368 82.175 A 17.021 17.021 0 0 1 1283.75 81.05 Q 1279.9 79 1277.65 75.15 A 16.212 16.212 0 0 1 1275.691 69.622 A 21.699 21.699 0 0 1 1275.4 66 Q 1275.4 57.2 1284.35 52.5 A 37.048 37.048 0 0 1 1292.554 49.441 Q 1299.231 47.76 1307.9 47.7 Z M 1307.9 70.3 L 1307.9 54.4 A 34.75 34.75 0 0 0 1303.833 54.622 Q 1299.478 55.137 1296.854 56.849 A 9.714 9.714 0 0 0 1296.35 57.2 A 9.937 9.937 0 0 0 1293.993 59.632 A 8.393 8.393 0 0 0 1292.6 64.4 Q 1292.6 67.578 1293.597 69.758 A 7.824 7.824 0 0 0 1294.6 71.4 Q 1296.6 73.9 1300.1 73.9 A 7.34 7.34 0 0 0 1301.813 73.685 Q 1302.592 73.498 1303.433 73.148 A 14.193 14.193 0 0 0 1304.1 72.85 A 15.725 15.725 0 0 0 1306.729 71.278 A 13.502 13.502 0 0 0 1307.9 70.3 Z" id="25" vector-effect="non-scaling-stroke"/>
  </g>
</svg>