<svg width="1328.4" height="109.001" viewBox="0 0 1328.4 109.001" xmlns="http://www.w3.org/2000/svg"><g id="svgGroup" stroke-linecap="round" fill-rule="evenodd" font-size="9pt" stroke="#000" stroke-width="0.1" fill="#d9c96d" style="stroke:#000;stroke-width:0.1;fill:#d9c96d"><path d="M 6.2 51.8 L 6.2 16.1 L 0 14.7 L 0 7.7 L 32.3 7.7 L 32.3 14.7 L 23.9 16.2 L 23.9 53.2 A 48.168 48.168 0 0 0 24.499 61.166 Q 26.882 75.302 38.751 75.783 A 20.942 20.942 0 0 0 39.6 75.8 A 16.054 16.054 0 0 0 44.272 75.16 A 11.744 11.744 0 0 0 51.05 69.85 A 21.766 21.766 0 0 0 53.409 64.28 Q 54.7 59.645 54.7 53.4 L 54.7 16.1 L 46.1 14.7 L 46.1 7.7 L 72.1 7.7 L 72.1 14.7 L 65.5 16.1 L 65.5 52.5 Q 65.5 62.392 62.424 68.966 A 21.537 21.537 0 0 1 57.85 75.45 A 25.556 25.556 0 0 1 45.55 81.912 A 37.978 37.978 0 0 1 37.1 82.8 A 50.936 50.936 0 0 1 28.379 82.104 Q 19.254 80.515 13.9 75.3 A 22.844 22.844 0 0 1 8.438 66.58 Q 7.109 62.926 6.569 58.4 A 55.814 55.814 0 0 1 6.2 51.8 Z" id="0" vector-effect="non-scaling-stroke"/><path d="M 82.7 74.5 L 82.7 36.9 L 76.8 35.1 L 76.8 27.3 L 95 25.1 L 95.3 25.1 L 97.9 27.2 L 97.9 30.9 L 97.8 33.2 A 26.133 26.133 0 0 1 102.196 29.89 A 35.492 35.492 0 0 1 106.7 27.6 Q 112.1 25.3 118 25.3 A 27.119 27.119 0 0 1 121.663 25.532 Q 125.132 26.006 127.45 27.45 A 10.949 10.949 0 0 1 131.143 31.341 A 15.674 15.674 0 0 1 132.45 34.3 A 25.577 25.577 0 0 1 133.33 37.922 Q 133.99 41.717 134 46.934 A 84.038 84.038 0 0 1 134 47.1 L 134 74.5 L 139.6 75.3 L 139.6 82 L 112.4 82 L 112.4 75.4 L 117.3 74.5 L 117.3 47.2 Q 117.3 42.782 116.749 40.185 A 14.156 14.156 0 0 0 116.65 39.75 A 9.468 9.468 0 0 0 116.106 38.134 Q 115.714 37.258 115.166 36.62 A 4.826 4.826 0 0 0 114.4 35.9 A 5.315 5.315 0 0 0 112.801 35.101 Q 112.069 34.87 111.18 34.772 A 12.632 12.632 0 0 0 109.8 34.7 A 12.005 12.005 0 0 0 106.023 35.356 Q 104.382 35.9 102.616 36.895 A 30.786 30.786 0 0 0 99.4 39 L 99.4 74.5 L 104.9 75.4 L 104.9 82 L 77.2 82 L 77.2 75.4 L 82.7 74.5 Z" id="1" vector-effect="non-scaling-stroke"/><path d="M 152.3 74.5 L 152.3 36.9 L 145.6 35 L 145.6 27.5 L 165.6 25.1 L 165.8 25.1 L 168.9 27.2 L 168.9 74.5 L 174.9 75.4 L 174.9 82 L 146.1 82 L 146.1 75.4 L 152.3 74.5 Z M 158.5 17.8 L 158.4 17.8 A 10.747 10.747 0 0 1 155.585 17.45 A 7.953 7.953 0 0 1 152.1 15.5 A 7.69 7.69 0 0 1 149.716 10.182 A 10.341 10.341 0 0 1 149.7 9.6 A 10.908 10.908 0 0 1 150.172 6.324 A 8.911 8.911 0 0 1 152.35 2.7 A 8.811 8.811 0 0 1 157.115 0.214 A 12.717 12.717 0 0 1 159.5 0 A 14.089 14.089 0 0 1 162.197 0.242 Q 164.778 0.746 166.4 2.3 A 7.69 7.69 0 0 1 168.784 7.618 A 10.341 10.341 0 0 1 168.8 8.2 A 11.134 11.134 0 0 1 168.371 11.365 A 8.653 8.653 0 0 1 166.1 15.15 Q 163.573 17.631 159.119 17.789 A 17.358 17.358 0 0 1 158.5 17.8 Z" id="2" vector-effect="non-scaling-stroke"/><path d="M 185.8 70.4 L 185.8 34.8 L 179.7 34.8 L 179.7 29 L 181.7 28.2 Q 183.941 27.453 185.658 26.619 A 23.196 23.196 0 0 0 185.9 26.5 A 12.026 12.026 0 0 0 187.991 23.824 A 16.183 16.183 0 0 0 189.1 21.5 A 49.819 49.819 0 0 0 190.067 18.967 Q 191.163 15.869 192.4 11.4 L 201.7 11.4 L 202.3 26.4 L 216.6 26.4 L 216.6 34.8 L 202.5 34.8 L 202.5 61.3 A 159.44 159.44 0 0 0 202.519 63.84 Q 202.574 67.271 202.79 68.926 A 13.741 13.741 0 0 0 202.8 69 A 10.206 10.206 0 0 0 202.978 69.975 Q 203.306 71.358 203.95 71.85 A 2.32 2.32 0 0 0 204.582 72.179 Q 205.237 72.412 206.269 72.476 A 13.5 13.5 0 0 0 207.1 72.5 Q 211.8 72.5 216 70.9 L 218.1 77.2 A 15.618 15.618 0 0 1 215.739 78.776 Q 214.531 79.444 213.046 80.05 A 39.366 39.366 0 0 1 209.8 81.2 Q 204.3 82.9 198.7 82.9 A 22.675 22.675 0 0 1 195.129 82.639 Q 193.277 82.342 191.803 81.711 A 9.335 9.335 0 0 1 188.95 79.85 Q 186.431 77.411 185.926 72.831 A 22.217 22.217 0 0 1 185.8 70.4 Z" id="3" vector-effect="non-scaling-stroke"/><path d="M 228.7 74.5 L 228.7 36.9 L 222 35 L 222 27.5 L 242 25.1 L 242.2 25.1 L 245.3 27.2 L 245.3 74.5 L 251.3 75.4 L 251.3 82 L 222.5 82 L 222.5 75.4 L 228.7 74.5 Z M 234.9 17.8 L 234.8 17.8 A 10.747 10.747 0 0 1 231.985 17.45 A 7.953 7.953 0 0 1 228.5 15.5 A 7.69 7.69 0 0 1 226.116 10.182 A 10.341 10.341 0 0 1 226.1 9.6 A 10.908 10.908 0 0 1 226.572 6.324 A 8.911 8.911 0 0 1 228.75 2.7 A 8.811 8.811 0 0 1 233.515 0.214 A 12.717 12.717 0 0 1 235.9 0 A 14.089 14.089 0 0 1 238.597 0.242 Q 241.178 0.746 242.8 2.3 A 7.69 7.69 0 0 1 245.184 7.618 A 10.341 10.341 0 0 1 245.2 8.2 A 11.134 11.134 0 0 1 244.771 11.365 A 8.653 8.653 0 0 1 242.5 15.15 Q 239.973 17.631 235.519 17.789 A 17.358 17.358 0 0 1 234.9 17.8 Z" id="4" vector-effect="non-scaling-stroke"/><path d="M 263.8 74.5 L 263.8 36.9 L 257.9 35.1 L 257.9 27.3 L 276.1 25.1 L 276.4 25.1 L 279 27.2 L 279 30.9 L 278.9 33.2 A 26.133 26.133 0 0 1 283.296 29.89 A 35.492 35.492 0 0 1 287.8 27.6 Q 293.2 25.3 299.1 25.3 A 27.119 27.119 0 0 1 302.763 25.532 Q 306.232 26.006 308.55 27.45 A 10.949 10.949 0 0 1 312.243 31.341 A 15.674 15.674 0 0 1 313.55 34.3 A 25.577 25.577 0 0 1 314.43 37.922 Q 315.09 41.717 315.1 46.934 A 84.038 84.038 0 0 1 315.1 47.1 L 315.1 74.5 L 320.7 75.3 L 320.7 82 L 293.5 82 L 293.5 75.4 L 298.4 74.5 L 298.4 47.2 Q 298.4 42.782 297.849 40.185 A 14.156 14.156 0 0 0 297.75 39.75 A 9.468 9.468 0 0 0 297.206 38.134 Q 296.814 37.258 296.266 36.62 A 4.826 4.826 0 0 0 295.5 35.9 A 5.315 5.315 0 0 0 293.901 35.101 Q 293.169 34.87 292.28 34.772 A 12.632 12.632 0 0 0 290.9 34.7 A 12.005 12.005 0 0 0 287.123 35.356 Q 285.482 35.9 283.716 36.895 A 30.786 30.786 0 0 0 280.5 39 L 280.5 74.5 L 286 75.4 L 286 82 L 258.3 82 L 258.3 75.4 L 263.8 74.5 Z" id="5" vector-effect="non-scaling-stroke"/><path d="M 382 24.8 L 385.6 24.8 L 385.6 37 L 375.7 37 Q 376.7 39.8 376.7 42.7 A 20.96 20.96 0 0 1 375.668 49.428 A 17.248 17.248 0 0 1 370.2 57.3 A 21.347 21.347 0 0 1 362.898 61.176 Q 359.77 62.165 355.991 62.512 A 46.913 46.913 0 0 1 351.7 62.7 A 56.568 56.568 0 0 1 348.398 62.61 Q 345.65 62.449 343.6 62 Q 343 63.2 342.65 64.5 A 14.174 14.174 0 0 0 342.465 65.264 Q 342.315 65.981 342.301 66.502 A 3.869 3.869 0 0 0 342.3 66.6 A 6.468 6.468 0 0 0 342.482 68.19 A 3.908 3.908 0 0 0 344.6 70.85 Q 346.346 71.723 350.281 71.934 A 51.18 51.18 0 0 0 353 72 L 363.3 72 A 43.416 43.416 0 0 1 370.87 72.6 Q 384.096 74.954 384.393 86.562 A 21.04 21.04 0 0 1 384.4 87.1 Q 384.4 93.7 379.8 98.7 A 27.158 27.158 0 0 1 372.535 104.251 A 35.08 35.08 0 0 1 367.75 106.35 Q 360.3 109 352 109 Q 340.278 109 334.076 105.898 A 16.092 16.092 0 0 1 332.05 104.7 A 15.207 15.207 0 0 1 328.184 100.898 Q 325.936 97.64 325.901 93.337 A 16.761 16.761 0 0 1 325.9 93.2 Q 325.9 89.2 328.6 85.6 Q 331.3 82 335.4 80.2 A 8.822 8.822 0 0 1 330.896 73.875 A 12.643 12.643 0 0 1 330.7 71.6 A 9.769 9.769 0 0 1 331.74 67.271 A 13.168 13.168 0 0 1 332.9 65.35 A 13.757 13.757 0 0 1 338.231 60.959 A 16.492 16.492 0 0 1 338.8 60.7 Q 329.863 57.399 328.121 48.393 A 24.722 24.722 0 0 1 327.7 43.7 Q 327.7 38 331.1 33.75 A 20.144 20.144 0 0 1 337.227 28.674 A 25.694 25.694 0 0 1 340.3 27.25 A 33.37 33.37 0 0 1 349.257 25.178 A 40.629 40.629 0 0 1 353.1 25 Q 365.6 25 371.4 29.6 A 9.259 9.259 0 0 1 372.675 28.346 Q 373.925 27.319 375.8 26.35 A 13.495 13.495 0 0 1 381.005 24.838 A 13.053 13.053 0 0 1 382 24.8 Z M 357.7 82.7 L 347.5 82.7 Q 345.9 82.7 343.9 82.5 A 12.358 12.358 0 0 0 342.39 86.34 Q 342.049 87.894 342.006 89.684 A 21.667 21.667 0 0 0 342 90.2 A 15.412 15.412 0 0 0 342.611 94.741 Q 344.15 99.731 349.57 101.037 A 18.529 18.529 0 0 0 353.9 101.5 A 17.398 17.398 0 0 0 358.705 100.863 A 14.166 14.166 0 0 0 363.3 98.6 A 9.35 9.35 0 0 0 367.131 91.766 A 13.201 13.201 0 0 0 367.2 90.4 Q 367.2 87.941 366.48 86.321 A 5.069 5.069 0 0 0 365.1 84.45 Q 363 82.7 357.7 82.7 Z M 352.7 55.9 A 8.752 8.752 0 0 0 355.096 55.593 A 6.003 6.003 0 0 0 358.75 52.75 A 11.359 11.359 0 0 0 359.859 50.066 Q 360.588 47.475 360.6 43.817 A 37.387 37.387 0 0 0 360.6 43.7 A 34.215 34.215 0 0 0 360.458 40.462 Q 360.152 37.26 359.189 35.27 A 7.715 7.715 0 0 0 358.7 34.4 A 6.18 6.18 0 0 0 354.556 31.682 A 9.975 9.975 0 0 0 352.6 31.5 A 8.524 8.524 0 0 0 348.539 32.408 Q 345.009 34.289 344.286 40.067 A 26.133 26.133 0 0 0 344.1 43.3 Q 344.1 55.526 352.196 55.889 A 11.233 11.233 0 0 0 352.7 55.9 Z" id="6" vector-effect="non-scaling-stroke"/><path d="M 421.1 74.4 L 421.1 16.1 L 413.6 14.7 L 413.6 7.7 L 447.7 7.7 L 447.7 14.7 L 438.2 16.1 L 438.2 74.2 L 457 73.2 L 463.5 53.4 L 472.9 54.6 L 470 82 L 413.4 82 L 413.4 75.4 L 421.1 74.4 Z" id="8" vector-effect="non-scaling-stroke"/><path d="M 484.3 74.5 L 484.3 36.9 L 477.6 35 L 477.6 27.5 L 497.6 25.1 L 497.8 25.1 L 500.9 27.2 L 500.9 74.5 L 506.9 75.4 L 506.9 82 L 478.1 82 L 478.1 75.4 L 484.3 74.5 Z M 490.5 17.8 L 490.4 17.8 A 10.747 10.747 0 0 1 487.585 17.45 A 7.953 7.953 0 0 1 484.1 15.5 A 7.69 7.69 0 0 1 481.716 10.182 A 10.341 10.341 0 0 1 481.7 9.6 A 10.908 10.908 0 0 1 482.172 6.324 A 8.911 8.911 0 0 1 484.35 2.7 A 8.811 8.811 0 0 1 489.115 0.214 A 12.717 12.717 0 0 1 491.5 0 A 14.089 14.089 0 0 1 494.197 0.242 Q 496.778 0.746 498.4 2.3 A 7.69 7.69 0 0 1 500.784 7.618 A 10.341 10.341 0 0 1 500.8 8.2 A 11.134 11.134 0 0 1 500.371 11.365 A 8.653 8.653 0 0 1 498.1 15.15 Q 495.573 17.631 491.119 17.789 A 17.358 17.358 0 0 1 490.5 17.8 Z" id="9" vector-effect="non-scaling-stroke"/><path d="M 508.7 32.8 L 508.7 26.4 L 537.1 26.4 L 537.1 32.8 L 530.8 34 L 539.2 60.4 L 541.8 69.5 L 543.9 60.5 L 552.2 34 L 546.1 32.8 L 546.1 26.4 L 569.2 26.4 L 569.2 32.8 L 564 34 L 545.8 82.8 L 532.4 82.8 L 512.6 34 L 508.7 32.8 Z" id="10" vector-effect="non-scaling-stroke"/><path d="M 618.3 55.6 L 587 55.6 A 34.624 34.624 0 0 0 587.62 60.517 Q 588.146 63.082 589.068 65.137 A 15.074 15.074 0 0 0 591.15 68.55 A 11.9 11.9 0 0 0 599.029 72.844 A 17.344 17.344 0 0 0 601.4 73 A 24.48 24.48 0 0 0 606.407 72.462 A 30.296 30.296 0 0 0 609.15 71.75 A 37.643 37.643 0 0 0 611.97 70.764 Q 613.316 70.227 614.429 69.639 A 17.815 17.815 0 0 0 615.7 68.9 L 618.5 75 Q 615.9 77.9 609.65 80.5 Q 603.4 83.1 596.9 83.1 Q 587.368 83.1 581.272 79.348 A 19.572 19.572 0 0 1 576.6 75.35 Q 570 67.6 570 54.2 A 40.961 40.961 0 0 1 570.651 46.716 A 29.667 29.667 0 0 1 573.4 38.5 Q 576.8 31.9 582.95 28.45 A 26.669 26.669 0 0 1 591.94 25.409 A 35.161 35.161 0 0 1 597.4 25 A 33.28 33.28 0 0 1 603.619 25.544 Q 609.678 26.698 613.45 30.3 Q 618.854 35.461 619.186 44.792 A 34.013 34.013 0 0 1 619.2 45.3 Q 619.2 51.629 618.32 55.514 A 22.477 22.477 0 0 1 618.3 55.6 Z M 586.9 49 L 603.3 49 L 603.4 44.8 Q 603.4 38.5 601.7 35.2 Q 600.24 32.366 597.009 31.966 A 9.029 9.029 0 0 0 595.9 31.9 A 7.658 7.658 0 0 0 592.641 32.574 Q 591.013 33.329 589.825 34.929 A 9.84 9.84 0 0 0 589.4 35.55 Q 587.1 39.2 586.9 49 Z" id="11" vector-effect="non-scaling-stroke"/><path d="M 636.5 65.8 L 639 73.7 Q 639.567 74.591 641.347 75.351 A 15.161 15.161 0 0 0 642.25 75.7 Q 644.8 76.6 647.4 76.6 A 15.381 15.381 0 0 0 649.758 76.432 Q 650.963 76.244 651.936 75.849 A 6.673 6.673 0 0 0 653.65 74.85 A 5.724 5.724 0 0 0 655.328 72.695 A 5.92 5.92 0 0 0 655.8 70.3 A 5.58 5.58 0 0 0 653.825 66.002 A 8.423 8.423 0 0 0 653 65.35 Q 650.2 63.4 643.8 60.6 L 640 58.9 A 33.868 33.868 0 0 1 635.582 56.55 Q 633.326 55.11 631.662 53.443 A 17.78 17.78 0 0 1 630.25 51.85 A 14.902 14.902 0 0 1 627.42 45.61 A 21.059 21.059 0 0 1 627 41.3 Q 627 36.7 629.7 33.05 A 15.862 15.862 0 0 1 633.752 29.262 A 21.839 21.839 0 0 1 637.5 27.3 A 26.792 26.792 0 0 1 643.379 25.669 Q 646.239 25.2 649.5 25.2 A 64.839 64.839 0 0 1 653.185 25.299 Q 654.929 25.399 656.456 25.598 A 34.079 34.079 0 0 1 657.8 25.8 Q 661.3 26.4 664.9 27.3 Q 666.796 27.853 667.942 28.032 A 7.934 7.934 0 0 0 668.5 28.1 L 668.5 41.7 L 659.6 41.7 L 657 34 A 2.19 2.19 0 0 0 656.551 33.452 Q 656.052 32.998 655.156 32.587 A 11.046 11.046 0 0 0 654.6 32.35 A 10.612 10.612 0 0 0 652.047 31.708 A 13.699 13.699 0 0 0 650.3 31.6 A 14.184 14.184 0 0 0 647.927 31.787 Q 645.761 32.155 644.3 33.25 A 5.423 5.423 0 0 0 642.65 35.188 Q 642.1 36.3 642.1 37.7 A 6.559 6.559 0 0 0 642.541 40.15 Q 643.15 41.677 644.6 42.75 A 21.937 21.937 0 0 0 646.244 43.842 Q 648.647 45.303 652.6 47.1 L 654.7 48 Q 660.53 50.447 664.547 53.179 A 32.003 32.003 0 0 1 667.4 55.35 A 12.94 12.94 0 0 1 671.851 63.816 A 18.526 18.526 0 0 1 672 66.2 Q 672 73.6 666.1 78.35 A 18.958 18.958 0 0 1 660.125 81.513 Q 655.348 83.1 648.7 83.1 A 56.853 56.853 0 0 1 644.292 82.938 Q 641.606 82.728 639.3 82.25 Q 635.2 81.4 630.3 80 L 627 79.1 L 627 65.8 L 636.5 65.8 Z" id="12" vector-effect="non-scaling-stroke"/><path d="M 702.7 74.3 L 725 7.4 L 743 7.4 L 765.4 74.4 L 770.9 75.4 L 770.9 82 L 739.4 82 L 739.4 75.4 L 746.5 74.4 L 743.1 62.4 L 719.2 62.4 L 715.8 74.5 L 723.6 75.4 L 723.6 82 L 697 82 L 696.9 75.4 L 702.7 74.3 Z M 741 54.7 L 732.4 24.8 L 730.9 17.8 L 729.3 24.9 L 721.2 54.7 L 741 54.7 Z" id="14" vector-effect="non-scaling-stroke"/><path d="M 818.4 28 L 817.7 46.1 L 807.6 46.1 L 805 34.6 A 2.474 2.474 0 0 0 803.728 32.93 A 3.52 3.52 0 0 0 803.35 32.75 A 6.971 6.971 0 0 0 801.964 32.356 Q 801.109 32.2 800.1 32.2 Q 795.4 32.2 792.75 36.8 A 14.861 14.861 0 0 0 791.41 40.069 Q 790.4 43.544 790.169 48.811 A 75.058 75.058 0 0 0 790.1 52.1 A 50.001 50.001 0 0 0 790.411 57.875 Q 791.121 63.961 793.45 67.75 A 13.218 13.218 0 0 0 795.901 70.74 A 9.601 9.601 0 0 0 802.5 73.2 Q 809.9 73.2 816.1 69.4 L 818.8 75.3 A 14.278 14.278 0 0 1 816.811 77.118 Q 814.682 78.751 811.376 80.326 A 49.536 49.536 0 0 1 810.9 80.55 A 27.669 27.669 0 0 1 801.574 82.978 A 33.282 33.282 0 0 1 798.7 83.1 Q 788.837 83.1 782.715 78.707 A 19.675 19.675 0 0 1 779.1 75.35 A 26.58 26.58 0 0 1 773.778 64.719 Q 772.6 60.135 772.6 54.6 A 37.25 37.25 0 0 1 773.445 46.495 A 29.108 29.108 0 0 1 776.2 39 Q 779.8 32.3 786.3 28.65 A 28.419 28.419 0 0 1 796.677 25.289 A 36.026 36.026 0 0 1 801.3 25 A 54.058 54.058 0 0 1 804.523 25.091 Q 806.739 25.224 808.55 25.55 A 50.637 50.637 0 0 1 813.605 26.741 A 57.085 57.085 0 0 1 814.8 27.1 A 160.993 160.993 0 0 0 815.81 27.376 Q 817.831 27.919 818.4 28 Z" id="15" vector-effect="non-scaling-stroke"/><path d="M 826.1 82 L 826.1 75.4 L 832.2 74.5 L 832.2 36.9 L 826.3 35.1 L 826.3 27.3 L 842.9 25.1 L 843.2 25.1 L 846 27.2 L 846 29.6 L 845.7 37.9 L 846 37.9 A 10.068 10.068 0 0 1 846.694 36.23 Q 847.559 34.552 849.2 32.55 A 22.025 22.025 0 0 1 853.383 28.657 A 26.94 26.94 0 0 1 855.55 27.25 Q 859.4 25 863.9 25 A 15.553 15.553 0 0 1 865.373 25.065 Q 866.847 25.206 867.799 25.651 A 4.326 4.326 0 0 1 867.9 25.7 L 867.9 43.1 Q 866.3 41.9 864.45 41.2 A 9.537 9.537 0 0 0 862.844 40.76 Q 862.027 40.606 861.071 40.543 A 20.966 20.966 0 0 0 859.7 40.5 A 23.508 23.508 0 0 0 856.098 40.765 A 18.305 18.305 0 0 0 853.2 41.45 A 25.145 25.145 0 0 0 851.271 42.165 Q 850.381 42.54 849.647 42.947 A 11.443 11.443 0 0 0 848.6 43.6 L 848.6 74.5 L 859.6 75.5 L 859.6 82 L 826.1 82 Z" id="16" vector-effect="non-scaling-stroke"/><path d="M 874.927 47.187 A 40.468 40.468 0 0 0 874.3 54.5 A 48.394 48.394 0 0 0 874.345 56.599 Q 874.866 68.598 881.45 75.55 A 23.237 23.237 0 0 0 892.807 82.125 A 33.327 33.327 0 0 0 901.1 83.1 A 36.979 36.979 0 0 0 904.129 82.978 A 30.546 30.546 0 0 0 915.4 79.9 A 23.38 23.38 0 0 0 919.664 77.161 A 25.016 25.016 0 0 0 925.6 70.1 A 24.186 24.186 0 0 0 926.577 68.215 Q 928.121 64.89 928.82 60.831 A 42.594 42.594 0 0 0 929.4 53.6 A 48.394 48.394 0 0 0 929.355 51.502 Q 928.834 39.503 922.25 32.55 A 23.251 23.251 0 0 0 910.811 25.965 A 33.797 33.797 0 0 0 902.5 25 A 35.532 35.532 0 0 0 901.781 25.008 A 30.44 30.44 0 0 0 888.35 28.3 A 24.083 24.083 0 0 0 884.556 30.707 A 25.257 25.257 0 0 0 878.1 38.25 Q 875.844 42.199 874.927 47.187 Z M 902.1 76.1 Q 906.9 76.1 909.25 70.95 A 19.721 19.721 0 0 0 910.438 67.377 Q 911.6 62.535 911.6 54.8 Q 911.6 45.244 910.099 39.791 A 20.34 20.34 0 0 0 909.35 37.55 A 11.163 11.163 0 0 0 907.843 34.867 A 7.257 7.257 0 0 0 901.8 32 A 7.562 7.562 0 0 0 894.889 36.449 Q 892.818 40.238 892.232 47.253 A 72.903 72.903 0 0 0 892 53.3 Q 892 62.861 893.63 68.346 A 19.785 19.785 0 0 0 894.4 70.5 A 11.687 11.687 0 0 0 895.979 73.207 A 7.445 7.445 0 0 0 902.1 76.1 Z" id="17" vector-effect="non-scaling-stroke"/><path d="M 948.2 65.8 L 950.7 73.7 Q 951.267 74.591 953.047 75.351 A 15.161 15.161 0 0 0 953.95 75.7 Q 956.5 76.6 959.1 76.6 A 15.381 15.381 0 0 0 961.458 76.432 Q 962.663 76.244 963.636 75.849 A 6.673 6.673 0 0 0 965.35 74.85 A 5.724 5.724 0 0 0 967.028 72.695 A 5.92 5.92 0 0 0 967.5 70.3 A 5.58 5.58 0 0 0 965.525 66.002 A 8.423 8.423 0 0 0 964.7 65.35 Q 961.9 63.4 955.5 60.6 L 951.7 58.9 A 33.868 33.868 0 0 1 947.282 56.55 Q 945.026 55.11 943.362 53.443 A 17.78 17.78 0 0 1 941.95 51.85 A 14.902 14.902 0 0 1 939.12 45.61 A 21.059 21.059 0 0 1 938.7 41.3 Q 938.7 36.7 941.4 33.05 A 15.862 15.862 0 0 1 945.452 29.262 A 21.839 21.839 0 0 1 949.2 27.3 A 26.792 26.792 0 0 1 955.079 25.669 Q 957.939 25.2 961.2 25.2 A 64.839 64.839 0 0 1 964.885 25.299 Q 966.629 25.399 968.156 25.598 A 34.079 34.079 0 0 1 969.5 25.8 Q 973 26.4 976.6 27.3 Q 978.496 27.853 979.642 28.032 A 7.934 7.934 0 0 0 980.2 28.1 L 980.2 41.7 L 971.3 41.7 L 968.7 34 A 2.19 2.19 0 0 0 968.251 33.452 Q 967.752 32.998 966.856 32.587 A 11.046 11.046 0 0 0 966.3 32.35 A 10.612 10.612 0 0 0 963.747 31.708 A 13.699 13.699 0 0 0 962 31.6 A 14.184 14.184 0 0 0 959.627 31.787 Q 957.461 32.155 956 33.25 A 5.423 5.423 0 0 0 954.35 35.188 Q 953.8 36.3 953.8 37.7 A 6.559 6.559 0 0 0 954.241 40.15 Q 954.85 41.677 956.3 42.75 A 21.937 21.937 0 0 0 957.944 43.842 Q 960.347 45.303 964.3 47.1 L 966.4 48 Q 972.23 50.447 976.247 53.179 A 32.003 32.003 0 0 1 979.1 55.35 A 12.94 12.94 0 0 1 983.551 63.816 A 18.526 18.526 0 0 1 983.7 66.2 Q 983.7 73.6 977.8 78.35 A 18.958 18.958 0 0 1 971.825 81.513 Q 967.048 83.1 960.4 83.1 A 56.853 56.853 0 0 1 955.992 82.938 Q 953.306 82.728 951 82.25 Q 946.9 81.4 942 80 L 938.7 79.1 L 938.7 65.8 L 948.2 65.8 Z" id="18" vector-effect="non-scaling-stroke"/><path d="M 1001 65.8 L 1003.5 73.7 Q 1004.067 74.591 1005.847 75.351 A 15.161 15.161 0 0 0 1006.75 75.7 Q 1009.3 76.6 1011.9 76.6 A 15.381 15.381 0 0 0 1014.258 76.432 Q 1015.463 76.244 1016.436 75.849 A 6.673 6.673 0 0 0 1018.15 74.85 A 5.724 5.724 0 0 0 1019.828 72.695 A 5.92 5.92 0 0 0 1020.3 70.3 A 5.58 5.58 0 0 0 1018.325 66.002 A 8.423 8.423 0 0 0 1017.5 65.35 Q 1014.7 63.4 1008.3 60.6 L 1004.5 58.9 A 33.868 33.868 0 0 1 1000.082 56.55 Q 997.826 55.11 996.162 53.443 A 17.78 17.78 0 0 1 994.75 51.85 A 14.902 14.902 0 0 1 991.92 45.61 A 21.059 21.059 0 0 1 991.5 41.3 Q 991.5 36.7 994.2 33.05 A 15.862 15.862 0 0 1 998.252 29.262 A 21.839 21.839 0 0 1 1002 27.3 A 26.792 26.792 0 0 1 1007.879 25.669 Q 1010.739 25.2 1014 25.2 A 64.839 64.839 0 0 1 1017.685 25.299 Q 1019.429 25.399 1020.956 25.598 A 34.079 34.079 0 0 1 1022.3 25.8 Q 1025.8 26.4 1029.4 27.3 Q 1031.296 27.853 1032.442 28.032 A 7.934 7.934 0 0 0 1033 28.1 L 1033 41.7 L 1024.1 41.7 L 1021.5 34 A 2.19 2.19 0 0 0 1021.051 33.452 Q 1020.552 32.998 1019.656 32.587 A 11.046 11.046 0 0 0 1019.1 32.35 A 10.612 10.612 0 0 0 1016.547 31.708 A 13.699 13.699 0 0 0 1014.8 31.6 A 14.184 14.184 0 0 0 1012.427 31.787 Q 1010.261 32.155 1008.8 33.25 A 5.423 5.423 0 0 0 1007.15 35.188 Q 1006.6 36.3 1006.6 37.7 A 6.559 6.559 0 0 0 1007.041 40.15 Q 1007.65 41.677 1009.1 42.75 A 21.937 21.937 0 0 0 1010.744 43.842 Q 1013.147 45.303 1017.1 47.1 L 1019.2 48 Q 1025.03 50.447 1029.047 53.179 A 32.003 32.003 0 0 1 1031.9 55.35 A 12.94 12.94 0 0 1 1036.351 63.816 A 18.526 18.526 0 0 1 1036.5 66.2 Q 1036.5 73.6 1030.6 78.35 A 18.958 18.958 0 0 1 1024.625 81.513 Q 1019.848 83.1 1013.2 83.1 A 56.853 56.853 0 0 1 1008.792 82.938 Q 1006.106 82.728 1003.8 82.25 Q 999.7 81.4 994.8 80 L 991.5 79.1 L 991.5 65.8 L 1001 65.8 Z" id="19" vector-effect="non-scaling-stroke"/><path d="M 1075.5 74.3 L 1075.5 16.1 L 1067.3 14.7 L 1067.3 7.7 L 1101 7.7 L 1101 14.7 L 1092.6 16.1 L 1092.6 74.4 L 1101 75.5 L 1101 82 L 1067.4 82 L 1067.4 75.4 L 1075.5 74.3 Z" id="21" vector-effect="non-scaling-stroke"/><path d="M 1114.8 74.5 L 1114.8 36.9 L 1108.9 35.1 L 1108.9 27.3 L 1127.1 25.1 L 1127.4 25.1 L 1130 27.2 L 1130 30.9 L 1129.9 33.2 A 26.133 26.133 0 0 1 1134.296 29.89 A 35.492 35.492 0 0 1 1138.8 27.6 Q 1144.2 25.3 1150.1 25.3 A 27.119 27.119 0 0 1 1153.763 25.532 Q 1157.232 26.006 1159.55 27.45 A 10.949 10.949 0 0 1 1163.243 31.341 A 15.674 15.674 0 0 1 1164.55 34.3 A 25.577 25.577 0 0 1 1165.43 37.922 Q 1166.09 41.717 1166.1 46.934 A 84.038 84.038 0 0 1 1166.1 47.1 L 1166.1 74.5 L 1171.7 75.3 L 1171.7 82 L 1144.5 82 L 1144.5 75.4 L 1149.4 74.5 L 1149.4 47.2 Q 1149.4 42.782 1148.849 40.185 A 14.156 14.156 0 0 0 1148.75 39.75 A 9.468 9.468 0 0 0 1148.206 38.134 Q 1147.814 37.258 1147.266 36.62 A 4.826 4.826 0 0 0 1146.5 35.9 A 5.315 5.315 0 0 0 1144.901 35.101 Q 1144.169 34.87 1143.28 34.772 A 12.632 12.632 0 0 0 1141.9 34.7 A 12.005 12.005 0 0 0 1138.123 35.356 Q 1136.482 35.9 1134.716 36.895 A 30.786 30.786 0 0 0 1131.5 39 L 1131.5 74.5 L 1137 75.4 L 1137 82 L 1109.3 82 L 1109.3 75.4 L 1114.8 74.5 Z" id="22" vector-effect="non-scaling-stroke"/><path d="M 1213.4 25.7 L 1213.4 9.8 L 1203.8 8.4 L 1203.8 2 L 1225.9 0 L 1226.4 0 L 1229.4 2.4 L 1229.4 75.3 L 1234.6 75.3 L 1234.6 81.7 A 104.081 104.081 0 0 1 1229.613 82.554 Q 1227.241 82.898 1225.184 83.058 A 43.566 43.566 0 0 1 1221.8 83.2 A 16.958 16.958 0 0 1 1220.078 83.119 Q 1218.321 82.939 1217.241 82.36 A 3.977 3.977 0 0 1 1216.75 82.05 A 3.243 3.243 0 0 1 1215.732 80.729 Q 1215.2 79.534 1215.2 77.6 L 1215.2 75.1 A 16.124 16.124 0 0 1 1211.38 78.987 A 21.388 21.388 0 0 1 1208.3 80.85 Q 1203.8 83.1 1199 83.1 Q 1189.4 83.1 1183.4 76.2 Q 1177.4 69.3 1177.4 55.5 A 34.753 34.753 0 0 1 1179.261 44.038 A 32.313 32.313 0 0 1 1180.85 40.25 Q 1184.3 33.3 1191.05 29.15 Q 1197.8 25 1207.4 25 A 26.397 26.397 0 0 1 1212.053 25.428 A 30.523 30.523 0 0 1 1213.4 25.7 Z M 1213.4 70.2 L 1213.4 34 A 3.055 3.055 0 0 0 1212.766 33.405 Q 1212.121 32.941 1211.084 32.579 A 11.239 11.239 0 0 0 1210.85 32.5 A 12.51 12.51 0 0 0 1207.486 31.912 A 14.344 14.344 0 0 0 1206.9 31.9 A 9.582 9.582 0 0 0 1199.322 35.428 A 14.348 14.348 0 0 0 1198 37.25 Q 1194.7 42.6 1194.7 54.7 A 55.841 55.841 0 0 0 1194.921 59.862 Q 1195.401 65.006 1196.918 68.243 A 13.271 13.271 0 0 0 1197.5 69.35 A 11.709 11.709 0 0 0 1199.409 71.83 A 7.751 7.751 0 0 0 1205 74.1 Q 1207.8 74.1 1209.95 72.95 Q 1212.1 71.8 1213.4 70.2 Z" id="23" vector-effect="non-scaling-stroke"/><path d="M 1247.3 74.5 L 1247.3 36.9 L 1240.6 35 L 1240.6 27.5 L 1260.6 25.1 L 1260.8 25.1 L 1263.9 27.2 L 1263.9 74.5 L 1269.9 75.4 L 1269.9 82 L 1241.1 82 L 1241.1 75.4 L 1247.3 74.5 Z M 1253.5 17.8 L 1253.4 17.8 A 10.747 10.747 0 0 1 1250.585 17.45 A 7.953 7.953 0 0 1 1247.1 15.5 A 7.69 7.69 0 0 1 1244.716 10.182 A 10.341 10.341 0 0 1 1244.7 9.6 A 10.908 10.908 0 0 1 1245.172 6.324 A 8.911 8.911 0 0 1 1247.35 2.7 A 8.811 8.811 0 0 1 1252.115 0.214 A 12.717 12.717 0 0 1 1254.5 0 A 14.089 14.089 0 0 1 1257.197 0.242 Q 1259.778 0.746 1261.4 2.3 A 7.69 7.69 0 0 1 1263.784 7.618 A 10.341 10.341 0 0 1 1263.8 8.2 A 11.134 11.134 0 0 1 1263.371 11.365 A 8.653 8.653 0 0 1 1261.1 15.15 Q 1258.573 17.631 1254.119 17.789 A 17.358 17.358 0 0 1 1253.5 17.8 Z" id="24" vector-effect="non-scaling-stroke"/><path d="M 1307.9 47.7 L 1307.9 45.7 Q 1307.9 42.103 1307.101 40.003 A 7.356 7.356 0 0 0 1307.1 40 Q 1306.3 37.9 1304.2 36.85 A 8 8 0 0 0 1302.607 36.274 Q 1301.015 35.867 1298.757 35.81 A 29.86 29.86 0 0 0 1298 35.8 Q 1293.1 35.8 1289.25 36.95 A 59.392 59.392 0 0 0 1284.301 38.681 A 73.004 73.004 0 0 0 1281.2 40 L 1277.8 32.8 A 14.695 14.695 0 0 1 1278.858 32.026 Q 1280.413 30.98 1283 29.65 Q 1286.6 27.8 1291.65 26.45 Q 1296.7 25.1 1302.2 25.1 A 49.553 49.553 0 0 1 1306.863 25.305 Q 1311.622 25.757 1314.75 27.2 Q 1319.3 29.3 1321.25 33.7 A 19.271 19.271 0 0 1 1322.4 37.276 Q 1323.2 40.832 1323.2 45.7 L 1323.2 75.4 L 1328.4 75.4 L 1328.4 81.7 A 40.283 40.283 0 0 1 1326.787 82.013 Q 1325.095 82.308 1322.776 82.604 A 146.954 146.954 0 0 1 1322 82.7 A 81.516 81.516 0 0 1 1319.094 83.005 Q 1316.813 83.2 1315 83.2 Q 1311.2 83.2 1309.95 82.1 A 2.865 2.865 0 0 1 1309.245 81.099 Q 1308.821 80.15 1308.727 78.623 A 15 15 0 0 1 1308.7 77.7 L 1308.7 75.4 A 20.351 20.351 0 0 1 1305.564 78.404 Q 1303.969 79.649 1302 80.75 A 18.413 18.413 0 0 1 1295.291 82.914 A 23.415 23.415 0 0 1 1292.3 83.1 A 18.627 18.627 0 0 1 1286.368 82.175 A 17.021 17.021 0 0 1 1283.75 81.05 Q 1279.9 79 1277.65 75.15 A 16.212 16.212 0 0 1 1275.691 69.622 A 21.699 21.699 0 0 1 1275.4 66 Q 1275.4 57.2 1284.35 52.5 A 37.048 37.048 0 0 1 1292.554 49.441 Q 1299.231 47.76 1307.9 47.7 Z M 1307.9 70.3 L 1307.9 54.4 A 34.75 34.75 0 0 0 1303.833 54.622 Q 1299.478 55.137 1296.854 56.849 A 9.714 9.714 0 0 0 1296.35 57.2 A 9.937 9.937 0 0 0 1293.993 59.632 A 8.393 8.393 0 0 0 1292.6 64.4 Q 1292.6 67.578 1293.597 69.758 A 7.824 7.824 0 0 0 1294.6 71.4 Q 1296.6 73.9 1300.1 73.9 A 7.34 7.34 0 0 0 1301.813 73.685 Q 1302.592 73.498 1303.433 73.148 A 14.193 14.193 0 0 0 1304.1 72.85 A 15.725 15.725 0 0 0 1306.729 71.278 A 13.502 13.502 0 0 0 1307.9 70.3 Z" id="25" vector-effect="non-scaling-stroke"/></g></svg>